<?xml version="1.0" encoding="utf-8"?>
<!-- Generator: Adobe Illustrator 16.0.0, SVG Export Plug-In . SVG Version: 6.00 Build 0)  -->
<!DOCTYPE svg PUBLIC "-//W3C//DTD SVG 1.1//EN" "http://www.w3.org/Graphics/SVG/1.1/DTD/svg11.dtd">
<svg version="1.1" id="Layer_1" xmlns="http://www.w3.org/2000/svg" xmlns:xlink="http://www.w3.org/1999/xlink" x="0px" y="0px"
	 width="468px" height="337px" viewBox="0 0 468 337" enable-background="new 0 0 468 337" xml:space="preserve">
<g>
	<path fill-rule="evenodd" clip-rule="evenodd" fill="#004990" d="M75.134,286.183l-2.554-28.287
		c-0.393-4.223-0.785-9.624-0.983-14.239h-0.196c-1.964,4.418-5.008,10.509-7.071,14.533l-14.534,28.481H46.26l-14.732-28.481
		c-2.162-4.124-4.815-9.722-6.974-14.34h-0.196c-0.195,4.814-0.687,10.315-0.981,14.046l-2.456,28.287h-8.445l5.399-62.661h5.894
		l16.698,32.214c2.552,4.911,5.794,11.295,7.856,16.106h0.196c1.964-4.812,5.008-10.901,7.661-16.106l16.5-32.214h5.893
		l5.598,62.661H75.134L75.134,286.183z"/>
	<path fill-rule="evenodd" clip-rule="evenodd" fill="#004990" d="M119.229,287.26c-13.26,0-23.668-9.524-23.668-23.275
		c0-13.847,10.408-23.374,23.668-23.374c13.259,0,23.571,9.527,23.571,23.374C142.8,277.735,132.488,287.26,119.229,287.26
		L119.229,287.26z M119.229,248.468c-7.857,0-14.633,6.188-14.633,15.517c0,9.231,6.775,15.419,14.633,15.419
		c7.758,0,14.536-6.188,14.536-15.419C133.765,254.655,126.988,248.468,119.229,248.468L119.229,248.468z"/>
	<path fill-rule="evenodd" clip-rule="evenodd" fill="#004990" d="M182.381,248.861h-14.146v24.748c0,3.634,2.95,5.6,6.581,5.6
		c1.866,0,3.538-0.198,4.912-0.688l-1.767,7.955c-0.981,0.294-2.26,0.393-4.027,0.393c-8.054,0-14.535-4.714-14.535-13.554v-24.454
		h-8.741v-7.171h8.741v-9.035l8.837-4.616v13.651h15.715L182.381,248.861L182.381,248.861z"/>
	<path fill-rule="evenodd" clip-rule="evenodd" fill="#004990" d="M225.396,287.26c-3.046-0.685-5.5-2.944-6.481-5.695
		c-3.145,4.126-7.661,5.695-12.474,5.695c-8.84,0-14.337-6.479-14.337-13.65c0-8.643,7.07-13.555,14.631-14.24l10.41-0.98v-2.85
		c0-4.027-2.355-7.268-8.642-7.268c-4.417,0-9.032,1.376-12.276,3.536l-1.768-7.367c4.027-2.65,9.134-3.83,14.536-3.83
		c9.92,0,17.089,5.598,17.089,16.106v17.973c0,4.027,2.16,6.386,5.008,6.875L225.396,287.26L225.396,287.26z M217.145,265.752
		l-8.837,0.786c-5.306,0.492-7.661,3.93-7.661,7.17c0,3.146,2.653,5.993,6.188,5.993c4.714,0,10.311-4.42,10.311-10.02V265.752
		L217.145,265.752z"/>
	<path fill-rule="evenodd" clip-rule="evenodd" fill="#004990" d="M258.396,287.26c-6.779,0-11.981-1.963-15.521-4.123v-66.883
		h8.939v25.831c1.474-0.688,4.027-1.475,7.761-1.475c12.669,0,24.258,9.037,24.258,22.982
		C283.833,278.323,273.42,287.26,258.396,287.26L258.396,287.26z M259.575,248.468c-3.34,0-6.188,0.981-7.761,1.964v27.796
		c1.573,0.588,3.142,1.176,6.581,1.176c10.311,0,16.402-6.283,16.402-15.811C274.798,254.262,267.037,248.468,259.575,248.468
		L259.575,248.468z"/>
	<path fill-rule="evenodd" clip-rule="evenodd" fill="#004990" d="M302.689,233.146c-1.768,0-5.401-3.634-5.401-5.4
		c0-1.865,3.634-5.499,5.401-5.499c1.866,0,5.5,3.634,5.5,5.499C308.189,229.512,304.556,233.146,302.689,233.146L302.689,233.146z
		 M298.17,241.69h9.035v44.492h-9.035V241.69L298.17,241.69z"/>
	<path fill-rule="evenodd" clip-rule="evenodd" fill="#004990" d="M334.311,287.95c-2.943-0.787-8.837-3.733-8.837-12.276v-59.42
		h8.936v58.24c0,4.123,3.241,6.875,5.993,7.364L334.311,287.95L334.311,287.95z"/>
	<path fill-rule="evenodd" clip-rule="evenodd" fill="#004990" d="M359.354,233.146c-1.768,0-5.401-3.634-5.401-5.4
		c0-1.865,3.634-5.499,5.401-5.499c1.866,0,5.5,3.634,5.5,5.499C364.854,229.512,361.221,233.146,359.354,233.146L359.354,233.146z
		 M354.839,241.69h9.035v44.492h-9.035V241.69L354.839,241.69z"/>
	<path fill-rule="evenodd" clip-rule="evenodd" fill="#004990" d="M407.378,248.861h-14.14v24.748c0,3.634,2.947,5.6,6.578,5.6
		c1.869,0,3.538-0.198,4.912-0.688l-1.768,7.955c-0.981,0.294-2.26,0.393-4.027,0.393c-8.054,0-14.535-4.714-14.535-13.554v-24.454
		h-8.741v-7.171h8.741v-9.035l8.84-4.616v13.651h15.712L407.378,248.861L407.378,248.861z"/>
	<path fill-rule="evenodd" clip-rule="evenodd" fill="#004990" d="M441.85,281.858c-6.676,16.401-13.943,23.573-22.685,27.501
		l-5.401-5.5c8.149-3.042,13.749-8.84,18.952-21.608l-16.597-40.561h9.233l8.249,20.232c1.179,2.85,2.553,6.383,3.828,10.018h0.198
		c1.18-3.438,2.554-6.776,3.733-9.724l8.348-20.526h8.543L441.85,281.858L441.85,281.858z"/>
	<polygon fill-rule="evenodd" clip-rule="evenodd" fill="#004990" points="16.815,309.244 12.604,309.244 12.604,307.533 
		22.97,307.533 22.97,309.244 18.758,309.244 18.758,321.088 16.815,321.088 16.815,309.244 	"/>
	<path fill-rule="evenodd" clip-rule="evenodd" fill="#004990" d="M24.737,306.525h1.825v6.075h0.04
		c0.661-1.047,1.806-1.651,3.185-1.651c2.561,0,3.708,1.596,3.708,4.251v5.888H31.67v-5.128c0-2.309-0.506-3.436-2.098-3.534
		c-2.078,0-3.01,1.671-3.01,4.076v4.586h-1.825V306.525L24.737,306.525z"/>
	<path fill-rule="evenodd" clip-rule="evenodd" fill="#004990" d="M44.192,320.681c-0.699,0.251-1.495,0.638-3.125,0.638
		c-3.515,0-5.127-2.134-5.127-5.358c0-2.934,1.845-5.011,4.64-5.011c3.3,0,4.369,2.411,4.369,5.593H37.88
		c0,1.962,1.536,3.3,3.262,3.3c1.204,0,2.603-0.621,3.049-0.987V320.681L44.192,320.681z M43.006,315.184
		c0-1.516-0.892-2.758-2.464-2.758c-1.786,0-2.524,1.477-2.661,2.758H43.006L43.006,315.184z"/>
	<polygon fill-rule="evenodd" clip-rule="evenodd" fill="#004990" points="53.025,306.525 54.851,306.525 54.851,321.088 
		53.025,321.088 53.025,306.525 	"/>
	<path fill-rule="evenodd" clip-rule="evenodd" fill="#004990" d="M65.78,320.681c-0.699,0.251-1.493,0.638-3.125,0.638
		c-3.512,0-5.125-2.134-5.125-5.358c0-2.934,1.845-5.011,4.64-5.011c3.302,0,4.369,2.411,4.369,5.593h-7.066
		c0,1.962,1.533,3.3,3.261,3.3c1.204,0,2.602-0.621,3.047-0.987V320.681L65.78,320.681z M64.598,315.184
		c0-1.516-0.894-2.758-2.466-2.758c-1.786,0-2.524,1.477-2.659,2.758H64.598L64.598,315.184z"/>
	<path fill-rule="evenodd" clip-rule="evenodd" fill="#004990" d="M69.451,311.884c0.912-0.545,2-0.935,3.262-0.935
		c2.834,0,3.98,1.4,3.98,4.096v4.1c0,1.127,0.04,1.648,0.078,1.943h-1.709v-1.285h-0.038c-0.428,0.604-1.399,1.516-3.069,1.516
		c-2.136,0-3.629-0.932-3.629-3.085c0-2.487,2.719-3.265,4.6-3.265c0.717,0,1.224,0,1.942,0.04c0-1.708-0.621-2.583-2.446-2.583
		c-1.029,0-2.137,0.39-2.872,1.011L69.451,311.884L69.451,311.884z M74.868,316.366c-0.39,0-0.776-0.036-1.165-0.036
		c-0.991,0-3.437,0.155-3.437,1.903c0,1.047,1.009,1.608,1.843,1.608c1.805,0,2.758-1.126,2.758-2.6V316.366L74.868,316.366z"/>
	<path fill-rule="evenodd" clip-rule="evenodd" fill="#004990" d="M86.789,319.687h-0.038c-0.487,0.74-1.614,1.632-3.378,1.632
		c-2.991,0-4.253-2.659-4.253-5.358c0-2.659,1.397-5.011,4.271-5.011c1.728,0,2.717,0.684,3.282,1.596h0.038v-6.02h1.825v14.562
		h-1.748V319.687L86.789,319.687z M83.799,319.842c2.058,0,2.912-2.038,2.912-3.687c0-1.847-0.952-3.729-2.932-3.729
		s-2.757,1.863-2.717,3.67C81.022,317.651,81.839,319.842,83.799,319.842L83.799,319.842z"/>
	<path fill-rule="evenodd" clip-rule="evenodd" fill="#004990" d="M91.759,306.912h2.056v2.058h-2.056V306.912L91.759,306.912z
		 M91.876,311.184h1.825v9.904h-1.825V311.184L91.876,311.184z"/>
	<path fill-rule="evenodd" clip-rule="evenodd" fill="#004990" d="M97.04,311.184h1.767v1.575h0.038
		c0.543-1.126,1.865-1.81,3.243-1.81c2.563,0,3.708,1.596,3.708,4.251v5.888h-1.824v-5.128c0-2.309-0.507-3.436-2.099-3.534
		c-2.075,0-3.008,1.671-3.008,4.076v4.586H97.04V311.184L97.04,311.184z"/>
	<path fill-rule="evenodd" clip-rule="evenodd" fill="#004990" d="M117.659,320.658c0,3.009-1.553,4.737-5.105,4.737
		c-1.049,0-1.962-0.136-3.555-0.681l0.195-1.688c1.397,0.641,2.233,0.893,3.573,0.893c1.923,0,3.069-1.299,3.069-3.396v-0.972h-0.04
		c-0.778,1.031-2.058,1.537-3.322,1.537c-2.834,0-4.231-2.312-4.231-4.877c0-2.543,1.436-5.262,4.427-5.262
		c1.748,0,2.719,0.644,3.264,1.711h0.037v-1.477h1.689V320.658L117.659,320.658z M115.835,316.251c0-2.058-0.951-3.825-2.894-3.825
		c-1.845,0-2.757,1.998-2.757,3.689c0,1.863,1.047,3.495,2.757,3.495C114.649,319.61,115.835,318.095,115.835,316.251
		L115.835,316.251z"/>
	<path fill-rule="evenodd" clip-rule="evenodd" fill="#004990" d="M132.452,312.855c-0.697-0.291-1.396-0.43-1.979-0.43
		c-2.038,0-3.185,1.826-3.185,3.71c0,1.767,0.952,3.706,3.302,3.706c0.62,0,1.397-0.194,1.959-0.562l0.137,1.632
		c-0.756,0.351-1.63,0.406-2.291,0.406c-2.99,0-5.049-2.349-5.049-5.183c0-3.01,2.02-5.187,5.049-5.187
		c0.737,0,1.69,0.178,2.213,0.39L132.452,312.855L132.452,312.855z"/>
	<path fill-rule="evenodd" clip-rule="evenodd" fill="#004990" d="M135.25,311.884c0.912-0.545,1.999-0.935,3.259-0.935
		c2.836,0,3.982,1.4,3.982,4.096v4.1c0,1.127,0.04,1.648,0.078,1.943h-1.709v-1.285h-0.04c-0.424,0.604-1.397,1.516-3.067,1.516
		c-2.136,0-3.63-0.932-3.63-3.085c0-2.487,2.719-3.265,4.602-3.265c0.719,0,1.222,0,1.942,0.04c0-1.708-0.623-2.583-2.446-2.583
		c-1.029,0-2.136,0.39-2.874,1.011L135.25,311.884L135.25,311.884z M140.666,316.366c-0.39,0-0.776-0.036-1.166-0.036
		c-0.991,0-3.434,0.155-3.434,1.903c0,1.047,1.008,1.608,1.842,1.608c1.807,0,2.758-1.126,2.758-2.6V316.366L140.666,316.366z"/>
	<path fill-rule="evenodd" clip-rule="evenodd" fill="#004990" d="M145.579,311.184h1.709v1.536h0.036
		c0.487-1.031,1.535-1.771,2.583-1.771c0.543,0,0.814,0.06,1.204,0.139v1.632c-0.332-0.139-0.699-0.175-1.011-0.175
		c-1.63,0-2.699,1.552-2.699,4.036v4.507h-1.823V311.184L145.579,311.184z"/>
	<path fill-rule="evenodd" clip-rule="evenodd" fill="#004990" d="M157.79,319.145c0.717,0.466,1.746,0.697,2.271,0.697
		c0.836,0,1.865-0.35,1.865-1.417c0-1.804-4.291-1.648-4.291-4.424c0-2.062,1.533-3.052,3.495-3.052c0.852,0,1.553,0.178,2.27,0.39
		l-0.155,1.592c-0.406-0.251-1.493-0.505-1.921-0.505c-0.932,0-1.748,0.39-1.748,1.205c0,2.019,4.29,1.435,4.29,4.603
		c0,2.114-1.688,3.085-3.454,3.085c-0.932,0-1.883-0.096-2.719-0.541L157.79,319.145L157.79,319.145z"/>
	<path fill-rule="evenodd" clip-rule="evenodd" fill="#004990" d="M172.372,312.855c-0.7-0.291-1.4-0.43-1.982-0.43
		c-2.038,0-3.181,1.826-3.181,3.71c0,1.767,0.948,3.706,3.3,3.706c0.618,0,1.397-0.194,1.959-0.562l0.135,1.632
		c-0.756,0.351-1.632,0.406-2.29,0.406c-2.993,0-5.048-2.349-5.048-5.183c0-3.01,2.019-5.187,5.048-5.187
		c0.737,0,1.688,0.178,2.213,0.39L172.372,312.855L172.372,312.855z"/>
	<path fill-rule="evenodd" clip-rule="evenodd" fill="#004990" d="M174.697,306.525h1.827v6.075h0.04
		c0.661-1.047,1.807-1.651,3.185-1.651c2.563,0,3.707,1.596,3.707,4.251v5.888h-1.824v-5.128c0-2.309-0.505-3.436-2.098-3.534
		c-2.078,0-3.009,1.671-3.009,4.076v4.586h-1.827V306.525L174.697,306.525z"/>
	<path fill-rule="evenodd" clip-rule="evenodd" fill="#004990" d="M194.155,320.681c-0.701,0.251-1.497,0.638-3.128,0.638
		c-3.512,0-5.124-2.134-5.124-5.358c0-2.934,1.843-5.011,4.642-5.011c3.3,0,4.367,2.411,4.367,5.593h-7.066
		c0,1.962,1.533,3.3,3.261,3.3c1.203,0,2.6-0.621,3.049-0.987V320.681L194.155,320.681z M192.969,315.184
		c0-1.516-0.892-2.758-2.464-2.758c-1.787,0-2.524,1.477-2.66,2.758H192.969L192.969,315.184z"/>
	<path fill-rule="evenodd" clip-rule="evenodd" fill="#004990" d="M197.34,311.184h1.708v1.437h0.036
		c0.7-1.143,1.691-1.671,3.148-1.671c1.143,0,2.289,0.584,2.814,1.922c0.681-1.417,2.174-1.922,3.065-1.922
		c2.524,0,3.439,1.632,3.439,3.789v6.35h-1.827v-5.904c0-1.222-0.291-2.758-1.768-2.758c-1.863,0-2.6,1.826-2.6,3.67v4.992h-1.827
		v-5.904c0-1.222-0.291-2.758-1.764-2.758c-1.867,0-2.604,1.826-2.604,3.67v4.992h-1.823V311.184L197.34,311.184z"/>
	<path fill-rule="evenodd" clip-rule="evenodd" fill="#004990" d="M222.209,320.681c-0.701,0.251-1.497,0.638-3.125,0.638
		c-3.516,0-5.127-2.134-5.127-5.358c0-2.934,1.846-5.011,4.641-5.011c3.301,0,4.367,2.411,4.367,5.593h-7.066
		c0,1.962,1.533,3.3,3.261,3.3c1.206,0,2.604-0.621,3.05-0.987V320.681L222.209,320.681z M221.026,315.184
		c0-1.516-0.896-2.758-2.468-2.758c-1.787,0-2.524,1.477-2.66,2.758H221.026L221.026,315.184z"/>
	<path fill-rule="evenodd" clip-rule="evenodd" fill="#004990" d="M231.994,312.66h-2.329v-1.477h2.329v-0.912
		c0-2.408,0.621-3.98,3.319-3.98c0.466,0,0.855,0.06,1.223,0.115l-0.076,1.477c-0.211-0.079-0.562-0.115-0.872-0.115
		c-1.572,0-1.768,1.008-1.768,2.349v1.067h2.62v1.477h-2.62v8.428h-1.826V312.66L231.994,312.66z"/>
	<path fill-rule="evenodd" clip-rule="evenodd" fill="#004990" d="M242.75,310.949c3.01,0,5.031,2.177,5.031,5.187
		c0,2.834-2.062,5.183-5.031,5.183c-2.99,0-5.048-2.349-5.048-5.183C237.702,313.126,239.721,310.949,242.75,310.949L242.75,310.949
		z M242.75,319.842c2.138,0,3.089-1.939,3.089-3.706c0-1.884-1.146-3.71-3.089-3.71c-1.959,0-3.105,1.826-3.105,3.71
		C239.645,317.902,240.596,319.842,242.75,319.842L242.75,319.842z"/>
	<path fill-rule="evenodd" clip-rule="evenodd" fill="#004990" d="M250.226,311.184h1.708v1.536h0.04
		c0.485-1.031,1.532-1.771,2.583-1.771c0.542,0,0.812,0.06,1.202,0.139v1.632c-0.33-0.139-0.7-0.175-1.011-0.175
		c-1.632,0-2.698,1.552-2.698,4.036v4.507h-1.824V311.184L250.226,311.184z"/>
	<path fill-rule="evenodd" clip-rule="evenodd" fill="#004990" d="M270.186,319.687h-0.039c-0.486,0.74-1.612,1.632-3.38,1.632
		c-2.989,0-4.252-2.659-4.252-5.358c0-2.659,1.397-5.011,4.271-5.011c1.728,0,2.719,0.684,3.28,1.596h0.04v-6.02h1.827v14.562
		h-1.748V319.687L270.186,319.687z M267.192,319.842c2.059,0,2.914-2.038,2.914-3.687c0-1.847-0.951-3.729-2.931-3.729
		c-1.981,0-2.758,1.863-2.719,3.67C264.418,317.651,265.233,319.842,267.192,319.842L267.192,319.842z"/>
	<path fill-rule="evenodd" clip-rule="evenodd" fill="#004990" d="M275.154,306.912h2.058v2.058h-2.058V306.912L275.154,306.912z
		 M275.27,311.184h1.824v9.904h-1.824V311.184L275.27,311.184z"/>
	<path fill-rule="evenodd" clip-rule="evenodd" fill="#004990" d="M279.696,319.145c0.721,0.466,1.748,0.697,2.273,0.697
		c0.835,0,1.863-0.35,1.863-1.417c0-1.804-4.292-1.648-4.292-4.424c0-2.062,1.536-3.052,3.495-3.052c0.855,0,1.557,0.178,2.273,0.39
		l-0.155,1.592c-0.41-0.251-1.493-0.505-1.923-0.505c-0.932,0-1.748,0.39-1.748,1.205c0,2.019,4.292,1.435,4.292,4.603
		c0,2.114-1.688,3.085-3.456,3.085c-0.932,0-1.886-0.096-2.719-0.541L279.696,319.145L279.696,319.145z"/>
	<path fill-rule="evenodd" clip-rule="evenodd" fill="#004990" d="M288.454,311.884c0.912-0.545,1.999-0.935,3.261-0.935
		c2.834,0,3.98,1.4,3.98,4.096v4.1c0,1.127,0.04,1.648,0.079,1.943h-1.711v-1.285h-0.036c-0.43,0.604-1.4,1.516-3.069,1.516
		c-2.134,0-3.63-0.932-3.63-3.085c0-2.487,2.719-3.265,4.602-3.265c0.72,0,1.222,0,1.939,0.04c0-1.708-0.621-2.583-2.445-2.583
		c-1.027,0-2.134,0.39-2.874,1.011L288.454,311.884L288.454,311.884z M293.869,316.366c-0.387,0-0.776-0.036-1.163-0.036
		c-0.991,0-3.436,0.155-3.436,1.903c0,1.047,1.007,1.608,1.843,1.608c1.808,0,2.756-1.126,2.756-2.6V316.366L293.869,316.366z"/>
	<path fill-rule="evenodd" clip-rule="evenodd" fill="#004990" d="M298.781,306.525h1.826v6.02h0.04
		c0.562-0.912,1.553-1.596,3.28-1.596c2.874,0,4.271,2.352,4.271,5.011c0,2.719-1.262,5.358-4.252,5.358
		c-1.767,0-2.894-0.892-3.379-1.632h-0.036v1.401h-1.751V306.525L298.781,306.525z M303.541,312.426
		c-1.981,0-2.934,1.883-2.934,3.729c0,1.648,0.853,3.687,2.914,3.687c1.959,0,2.775-2.19,2.735-3.746
		C306.297,314.309,305.521,312.426,303.541,312.426L303.541,312.426z"/>
	<polygon fill-rule="evenodd" clip-rule="evenodd" fill="#004990" points="310.879,306.525 312.702,306.525 312.702,321.088 
		310.879,321.088 310.879,306.525 	"/>
	<path fill-rule="evenodd" clip-rule="evenodd" fill="#004990" d="M323.634,320.681c-0.701,0.251-1.497,0.638-3.126,0.638
		c-3.515,0-5.127-2.134-5.127-5.358c0-2.934,1.847-5.011,4.642-5.011c3.301,0,4.371,2.411,4.371,5.593h-7.07
		c0,1.962,1.533,3.3,3.261,3.3c1.206,0,2.604-0.621,3.05-0.987V320.681L323.634,320.681z M322.451,315.184
		c0-1.516-0.896-2.758-2.468-2.758c-1.788,0-2.524,1.477-2.66,2.758H322.451L322.451,315.184z"/>
	<path fill-rule="evenodd" clip-rule="evenodd" fill="#004990" d="M333.848,319.687h-0.039c-0.486,0.74-1.612,1.632-3.38,1.632
		c-2.989,0-4.252-2.659-4.252-5.358c0-2.659,1.397-5.011,4.271-5.011c1.729,0,2.719,0.684,3.284,1.596h0.036v-6.02h1.823v14.562
		h-1.744V319.687L333.848,319.687z M330.854,319.842c2.059,0,2.914-2.038,2.914-3.687c0-1.847-0.951-3.729-2.931-3.729
		c-1.981,0-2.758,1.863-2.719,3.67C328.08,317.651,328.896,319.842,330.854,319.842L330.854,319.842z"/>
	<path fill-rule="evenodd" clip-rule="evenodd" fill="#004990" d="M344.096,311.184h1.751v1.397h0.036
		c0.485-0.737,1.615-1.632,3.359-1.632c2.874,0,4.271,2.352,4.271,5.011c0,2.719-1.262,5.358-4.252,5.358
		c-1.747,0-2.738-0.677-3.3-1.592h-0.04v5.438h-1.826V311.184L344.096,311.184z M348.853,312.426c-1.979,0-2.931,1.883-2.931,3.729
		c0,1.648,0.856,3.687,2.914,3.687c1.959,0,2.775-2.19,2.735-3.746C351.611,314.309,350.835,312.426,348.853,312.426
		L348.853,312.426z"/>
	<path fill-rule="evenodd" clip-rule="evenodd" fill="#004990" d="M363.55,320.681c-0.697,0.251-1.493,0.638-3.122,0.638
		c-3.515,0-5.13-2.134-5.13-5.358c0-2.934,1.847-5.011,4.642-5.011c3.303,0,4.37,2.411,4.37,5.593h-7.066
		c0,1.962,1.533,3.3,3.261,3.3c1.206,0,2.6-0.621,3.046-0.987V320.681L363.55,320.681z M362.367,315.184
		c0-1.516-0.896-2.758-2.465-2.758c-1.787,0-2.526,1.477-2.659,2.758H362.367L362.367,315.184z"/>
	<path fill-rule="evenodd" clip-rule="evenodd" fill="#004990" d="M371.142,310.949c3.013,0,5.031,2.177,5.031,5.187
		c0,2.834-2.059,5.183-5.031,5.183c-2.99,0-5.045-2.349-5.045-5.183C366.097,313.126,368.115,310.949,371.142,310.949
		L371.142,310.949z M371.142,319.842c2.137,0,3.089-1.939,3.089-3.706c0-1.884-1.146-3.71-3.089-3.71
		c-1.959,0-3.105,1.826-3.105,3.71C368.036,317.902,368.987,319.842,371.142,319.842L371.142,319.842z"/>
	<path fill-rule="evenodd" clip-rule="evenodd" fill="#004990" d="M378.617,311.184h1.748v1.397h0.039
		c0.485-0.737,1.612-1.632,3.359-1.632c2.875,0,4.271,2.352,4.271,5.011c0,2.719-1.262,5.358-4.251,5.358
		c-1.748,0-2.739-0.677-3.301-1.592h-0.039v5.438h-1.827V311.184L378.617,311.184z M383.374,312.426c-1.981,0-2.93,1.883-2.93,3.729
		c0,1.648,0.853,3.687,2.91,3.687c1.962,0,2.775-2.19,2.738-3.746C386.13,314.309,385.356,312.426,383.374,312.426L383.374,312.426z
		"/>
	<polygon fill-rule="evenodd" clip-rule="evenodd" fill="#004990" points="390.715,306.525 392.538,306.525 392.538,321.088 
		390.715,321.088 390.715,306.525 	"/>
	<path fill-rule="evenodd" clip-rule="evenodd" fill="#004990" d="M403.47,320.681c-0.7,0.251-1.493,0.638-3.129,0.638
		c-3.512,0-5.123-2.134-5.123-5.358c0-2.934,1.843-5.011,4.642-5.011c3.3,0,4.367,2.411,4.367,5.593h-7.066
		c0,1.962,1.532,3.3,3.261,3.3c1.202,0,2.603-0.621,3.049-0.987V320.681L403.47,320.681z M402.287,315.184
		c0-1.516-0.896-2.758-2.468-2.758c-1.784,0-2.524,1.477-2.659,2.758H402.287L402.287,315.184z"/>
	<g>
		<path fill-rule="evenodd" clip-rule="evenodd" fill="#FCB131" d="M227.846,78.513c0,0-34.571-34.269-38.582-48.258
			c-3.951-13.768,6.458-15.129,11.351-6.287C204.863,31.647,203.04,37.189,227.846,78.513L227.846,78.513z"/>
		<path fill-rule="evenodd" clip-rule="evenodd" fill="#FCB131" d="M224.054,80.477c0,0-42.001-24.593-49.37-37.145
			c-7.248-12.35,2.493-16.261,9.432-8.908C190.136,40.802,189.756,46.623,224.054,80.477L224.054,80.477z"/>
		<path fill-rule="evenodd" clip-rule="evenodd" fill="#FCB131" d="M220.869,83.323c0,0-46.803-13.371-57.056-23.701
			c-10.094-10.157-1.632-16.368,6.919-10.976C178.149,53.329,179.228,59.065,220.869,83.323L220.869,83.323z"/>
		<path fill-rule="evenodd" clip-rule="evenodd" fill="#FCB131" d="M218.497,86.876c0,0-48.661-1.316-61.16-8.768
			c-12.306-7.332-5.652-15.451,3.972-12.352C169.659,68.444,172.129,73.733,218.497,86.876L218.497,86.876z"/>
		<path fill-rule="evenodd" clip-rule="evenodd" fill="#FCB131" d="M217.076,90.903c0,0-47.453,10.826-61.417,6.718
			c-13.738-4.042-9.314-13.558,0.776-12.953C165.195,85.198,168.896,89.707,217.076,90.903L217.076,90.903z"/>
		<path fill-rule="evenodd" clip-rule="evenodd" fill="#FCB131" d="M216.703,95.156c0,0-43.27,22.289-57.815,21.783
			c-14.311-0.5-12.396-10.819-2.469-12.738C165.033,102.533,169.742,105.98,216.703,95.156L216.703,95.156z"/>
		<path fill-rule="evenodd" clip-rule="evenodd" fill="#FCB131" d="M217.403,99.368c0,0-36.37,32.352-50.582,35.475
			c-13.989,3.079-14.698-7.39-5.562-11.724C169.192,119.363,174.608,121.533,217.403,99.368L217.403,99.368z"/>
		<path fill-rule="evenodd" clip-rule="evenodd" fill="#FCB131" d="M219.131,103.278c0,0-27.185,40.374-40.172,46.941
			c-12.785,6.462-16.074-3.507-8.304-9.973C177.404,134.633,183.189,135.385,219.131,103.278L219.131,103.278z"/>
		<path fill-rule="evenodd" clip-rule="evenodd" fill="#FCB131" d="M221.771,106.629c0,0-16.29,45.873-27.241,55.463
			c-10.768,9.431-16.435,0.596-10.518-7.598C189.152,147.381,194.939,146.671,221.771,106.629L221.771,106.629z"/>
		<path fill-rule="evenodd" clip-rule="evenodd" fill="#FCB131" d="M225.163,109.226c0,0-4.367,48.478-12.589,60.487
			c-8.083,11.82-15.774,4.671-12.078-4.737C203.704,156.808,209.138,154.679,225.163,109.226L225.163,109.226z"/>
		<path fill-rule="evenodd" clip-rule="evenodd" fill="#FCB131" d="M229.091,110.896c0,0,7.833,48.04,2.852,61.72
			c-4.893,13.457-14.116,8.44-12.874-1.592C220.142,162.32,224.872,158.904,229.091,110.896L229.091,110.896z"/>
		<path fill-rule="evenodd" clip-rule="evenodd" fill="#FCB131" d="M233.316,111.532c0,0,19.53,44.584,18.113,59.074
			c-1.4,14.248-11.579,11.688-12.87,1.66C237.433,163.565,241.169,159.083,233.316,111.532L233.316,111.532z"/>
		<path fill-rule="evenodd" clip-rule="evenodd" fill="#FCB131" d="M237.568,111.101c0,0,29.999,38.328,32.229,52.711
			c2.19,14.152-8.305,14.202-12.051,4.812C254.495,160.474,256.996,155.208,237.568,111.101L237.568,111.101z"/>
		<path fill-rule="evenodd" clip-rule="evenodd" fill="#FCB131" d="M241.568,109.627c0,0,38.599,29.664,44.33,43.038
			c5.646,13.16-4.509,15.821-10.476,7.658C270.247,153.239,271.36,147.512,241.568,109.627L241.568,109.627z"/>
		<path fill-rule="evenodd" clip-rule="evenodd" fill="#FCB131" d="M245.09,107.199c0,0,44.753,19.136,53.633,30.663
			c8.741,11.346-0.429,16.445-8.238,10.023C283.709,142.311,283.361,136.49,245.09,107.199L245.09,107.199z"/>
		<path fill-rule="evenodd" clip-rule="evenodd" fill="#FCB131" d="M247.892,103.978c0,0,48.103,7.4,59.579,16.357
			c11.281,8.819,3.667,16.041-5.49,11.761C294.032,128.381,292.248,122.823,247.892,103.978L247.892,103.978z"/>
		<path fill-rule="evenodd" clip-rule="evenodd" fill="#FCB131" d="M249.801,100.154c0,0,48.439-4.788,61.779,1.032
			c13.118,5.735,7.539,14.62-2.395,12.757C300.563,112.32,297.451,107.386,249.801,100.154L249.801,100.154z"/>
		<path fill-rule="evenodd" clip-rule="evenodd" fill="#FCB131" d="M250.703,95.98c0,0,45.724-16.686,60.091-14.362
			c14.14,2.288,10.941,12.288,0.855,12.952C302.896,95.143,298.65,91.132,250.703,95.98L250.703,95.98z"/>
		<path fill-rule="evenodd" clip-rule="evenodd" fill="#FCB131" d="M250.538,91.716c0,0,40.138-27.537,54.634-28.858
			c14.261-1.298,13.653,9.179,4.05,12.331C300.88,77.922,295.776,75.092,250.538,91.716L250.538,91.716z"/>
		<path fill-rule="evenodd" clip-rule="evenodd" fill="#FCB131" d="M249.318,87.621c0,0,32.024-36.649,45.741-41.535
			c13.488-4.807,15.503,5.496,6.983,10.935C294.649,61.743,289.001,60.272,249.318,87.621L249.318,87.621z"/>
		<path fill-rule="evenodd" clip-rule="evenodd" fill="#FCB131" d="M247.119,83.96c0,0,21.908-43.464,33.97-51.607
			c11.869-8.006,16.389,1.468,9.487,8.858C284.591,47.624,278.75,47.602,247.119,83.96L247.119,83.96z"/>
		<path fill-rule="evenodd" clip-rule="evenodd" fill="#FCB131" d="M244.076,80.966c0,0,10.409-47.549,20.072-58.436
			c9.504-10.71,16.236-2.654,11.394,6.219C271.33,36.449,265.671,37.88,244.076,80.966L244.076,80.966z"/>
		<path fill-rule="evenodd" clip-rule="evenodd" fill="#FCB131" d="M240.39,78.817c0,0-1.748-48.643,4.905-61.592
			c6.545-12.735,15.061-6.605,12.58,3.193C255.715,28.92,250.594,31.714,240.39,78.817L240.39,78.817z"/>
		<path fill-rule="evenodd" clip-rule="evenodd" fill="#FCB131" d="M236.276,77.656c0,0-13.782-46.684-10.564-60.877
			c3.171-13.965,12.946-10.145,12.977-0.036C238.715,25.515,234.449,29.494,236.276,77.656L236.276,77.656z"/>
		<path fill-rule="evenodd" clip-rule="evenodd" fill="#FCB131" d="M231.976,77.555c0,0-24.958-41.79-25.368-56.338
			c-0.399-14.312,10.017-13.046,12.56-3.262C221.371,26.444,218.223,31.363,231.976,77.555L231.976,77.555z"/>
		<path fill-rule="evenodd" clip-rule="evenodd" fill="#004990" d="M216.726,94.562c0,9.45,7.654,17.103,17.106,17.103
			c9.448,0,17.105-7.653,17.105-17.103c0-9.446-7.657-17.104-17.105-17.104C224.38,77.458,216.726,85.115,216.726,94.562
			L216.726,94.562z"/>
	</g>
</g>
</svg>
