<?xml version="1.0" encoding="utf-8"?>
<!-- Generator: Adobe Illustrator 16.0.0, SVG Export Plug-In . SVG Version: 6.00 Build 0)  -->
<!DOCTYPE svg PUBLIC "-//W3C//DTD SVG 1.1//EN" "http://www.w3.org/Graphics/SVG/1.1/DTD/svg11.dtd">
<svg version="1.1" id="Layer_1" xmlns="http://www.w3.org/2000/svg" xmlns:xlink="http://www.w3.org/1999/xlink" x="0px" y="0px"
	 width="140px" height="140px" viewBox="0 0 140 140" enable-background="new 0 0 140 140" xml:space="preserve">
<g>
	<path fill="#0173A0" d="M53.872,64.727c0,2.664-1.332,4.68-3.42,7.055l-5.04,5.688h9.216v4.067H38.069V77.9l7.127-8.423
		c1.656-1.979,2.268-3.023,2.268-4.499c0-1.656-1.044-2.412-2.483-2.412c-0.756,0-1.296,0.072-1.691,0.181
		c-0.468,0.144-0.54,0.432-0.54,0.972v2.016l-4.535-0.288v-5.939c1.655-0.899,4.535-1.619,7.667-1.619
		C50.775,57.888,53.872,60.587,53.872,64.727z"/>
	<path fill="#0173A0" d="M64.456,57.888c5.076,0,7.487,2.52,7.487,5.831c0,2.556-1.584,4.463-3.563,5.651
		c2.771,0.828,3.888,2.844,3.888,5.399c0,3.635-2.483,7.199-8.423,7.199c-3.492,0-6.335-0.973-7.919-2.017l1.691-4.427
		c1.692,0.936,3.6,1.655,5.543,1.655c1.8,0,3.024-0.899,3.024-2.735c0-2.195-1.656-2.592-4.067-2.592h-1.836l0.432-3.815h3.312
		c0.9-0.576,1.8-1.656,1.8-3.168c0-1.728-1.116-2.304-2.376-2.304c-0.611,0-1.224,0.072-1.691,0.217
		c-0.468,0.144-0.54,0.396-0.54,0.936v1.764l-4.535-0.288v-5.688C59.058,58.392,61.9,57.888,64.456,57.888z"/>
	<path fill="#0173A0" d="M86.488,64.33c0,4.644-2.304,6.659-5.903,6.659c-3.708,0-5.688-2.087-5.688-6.515
		c0-4.535,2.484-6.587,5.903-6.587C84.185,57.888,86.488,59.903,86.488,64.33z M82.385,64.438c0-2.916-0.647-3.707-1.656-3.707
		c-1.079,0-1.728,0.863-1.728,3.851c0,2.736,0.648,3.636,1.62,3.636C81.629,68.218,82.385,67.426,82.385,64.438z M81.305,80.456
		l10.511-22.533l3.779,1.548L85.013,82.076L81.305,80.456z M101.931,75.453c0,4.643-2.304,6.659-5.903,6.659
		c-3.708,0-5.688-2.088-5.688-6.552c0-4.499,2.483-6.551,5.903-6.551C99.591,69.01,101.931,70.989,101.931,75.453z M97.827,75.561
		c0-2.915-0.648-3.707-1.656-3.707c-1.08,0-1.728,0.864-1.728,3.852c0,2.735,0.647,3.6,1.62,3.6
		C97.071,79.305,97.827,78.549,97.827,75.561z"/>
</g>
<g>
	<path fill="none" d="M20.75,70.875c0,27.407,22.218,49.625,49.625,49.625S120,98.282,120,70.875c0-1.576-0.082-3.132-0.226-4.671
		L70.375,70V21.25C42.968,21.25,20.75,43.468,20.75,70.875z"/>
	<path fill="#E8E8E8" d="M120,70.875c0,27.407-22.218,49.625-49.625,49.625S20.75,98.282,20.75,70.875S42.968,21.25,70.375,21.25V3
		C32.889,3,2.5,33.389,2.5,70.875s30.389,67.875,67.875,67.875s67.875-30.389,67.875-67.875c0-2.047-0.106-4.068-0.284-6.068
		l-18.191,1.397C119.918,67.743,120,69.299,120,70.875z"/>
	<path fill="#0173A0" d="M70.375,3v18.25c25.831,0,47.044,19.739,49.399,44.954l18.191-1.397C134.895,30.166,105.814,3,70.375,3z"/>
</g>
</svg>
