<?xml version="1.0" encoding="utf-8"?>
<!-- Generator: Adobe Illustrator 16.0.0, SVG Export Plug-In . SVG Version: 6.00 Build 0)  -->
<!DOCTYPE svg PUBLIC "-//W3C//DTD SVG 1.1//EN" "http://www.w3.org/Graphics/SVG/1.1/DTD/svg11.dtd">
<svg version="1.1" id="Layer_1" xmlns="http://www.w3.org/2000/svg" xmlns:xlink="http://www.w3.org/1999/xlink" x="0px" y="0px"
	 width="140px" height="140px" viewBox="0 0 140 140" enable-background="new 0 0 140 140" xml:space="preserve">
<g>
	<path fill="#0173A0" d="M61.378,66.185v5.219h2.951v4.212h-2.987v2.304l2.376,0.216v3.527H52.991v-3.456l1.62-0.144
		c0.756-0.071,0.972-0.288,0.972-1.151v-1.404h-9.107v-3.348l6.911-14.397l4.536,2.268l-5.399,11.374h3.204l2.196-5.219H61.378z"/>
	<path fill="#0173A0" d="M78.082,64.456c0,4.644-2.304,6.659-5.903,6.659c-3.708,0-5.688-2.087-5.688-6.515
		c0-4.535,2.484-6.587,5.903-6.587C75.778,58.014,78.082,60.029,78.082,64.456z M73.979,64.564c0-2.916-0.648-3.707-1.656-3.707
		c-1.079,0-1.728,0.863-1.728,3.851c0,2.736,0.648,3.636,1.62,3.636C73.223,68.344,73.979,67.552,73.979,64.564z M72.898,80.582
		l10.511-22.533l3.779,1.548L76.606,82.202L72.898,80.582z M93.524,75.579c0,4.643-2.304,6.659-5.903,6.659
		c-3.708,0-5.688-2.088-5.688-6.551c0-4.5,2.483-6.552,5.903-6.552C91.185,69.136,93.524,71.115,93.524,75.579z M89.421,75.688
		c0-2.916-0.648-3.708-1.656-3.708c-1.08,0-1.728,0.864-1.728,3.852c0,2.735,0.647,3.6,1.62,3.6
		C88.665,79.431,89.421,78.675,89.421,75.688z"/>
</g>
<g>
	<path fill="none" d="M70.375,21.25c-27.407,0-49.625,22.218-49.625,49.625S42.968,120.5,70.375,120.5S120,98.282,120,70.875
		c0-23.575-16.443-43.295-38.483-48.354L70.375,70V21.25z"/>
	<path fill="#E8E8E8" d="M85.686,4.755l-4.169,17.766C103.557,27.58,120,47.3,120,70.875c0,27.407-22.218,49.625-49.625,49.625
		S20.75,98.282,20.75,70.875S42.968,21.25,70.375,21.25V3C32.889,3,2.5,33.389,2.5,70.875s30.389,67.875,67.875,67.875
		s67.875-30.389,67.875-67.875C138.25,38.656,115.794,11.701,85.686,4.755z"/>
	<path fill="#0173A0" d="M81.517,22.521l4.169-17.766C80.763,3.62,75.643,3,70.375,3v18.25
		C74.208,21.25,77.934,21.699,81.517,22.521z"/>
</g>
</svg>
