<?xml version="1.0" encoding="utf-8"?>
<!-- Generator: Adobe Illustrator 16.0.0, SVG Export Plug-In . SVG Version: 6.00 Build 0)  -->
<!DOCTYPE svg PUBLIC "-//W3C//DTD SVG 1.1//EN" "http://www.w3.org/Graphics/SVG/1.1/DTD/svg11.dtd">
<svg version="1.1" id="Layer_1" xmlns="http://www.w3.org/2000/svg" xmlns:xlink="http://www.w3.org/1999/xlink" x="0px" y="0px"
	 width="140px" height="140px" viewBox="0 0 140 140" enable-background="new 0 0 140 140" xml:space="preserve">
<g>
	<path fill="#0173A0" d="M49.535,77.505c4.176-0.396,7.308-1.691,8.1-5.651c-1.188,0.828-2.88,1.368-4.464,1.368
		c-3.959,0-6.263-2.448-6.263-7.056c0-4.931,2.843-8.278,8.278-8.278c5.867,0,8.351,4.211,8.351,10.402s-2.591,13.03-12.85,13.679
		L49.535,77.505z M54.935,69.118c1.188,0,2.16-0.468,2.736-1.008c0.035-4.104-0.721-5.976-2.484-5.976
		c-1.476,0-2.447,1.152-2.447,3.779C52.739,67.822,53.423,69.118,54.935,69.118z"/>
	<path fill="#0173A0" d="M77.649,64.33c0,4.644-2.304,6.659-5.903,6.659c-3.708,0-5.688-2.087-5.688-6.515
		c0-4.535,2.484-6.587,5.903-6.587C75.346,57.888,77.649,59.903,77.649,64.33z M73.546,64.438c0-2.916-0.648-3.707-1.656-3.707
		c-1.079,0-1.728,0.863-1.728,3.851c0,2.736,0.648,3.636,1.62,3.636C72.79,68.218,73.546,67.426,73.546,64.438z M72.466,80.456
		l10.511-22.533l3.779,1.548L76.174,82.076L72.466,80.456z M93.092,75.453c0,4.643-2.304,6.659-5.903,6.659
		c-3.708,0-5.688-2.088-5.688-6.551c0-4.5,2.483-6.552,5.903-6.552C90.752,69.01,93.092,70.989,93.092,75.453z M88.988,75.562
		c0-2.916-0.648-3.708-1.656-3.708c-1.08,0-1.728,0.864-1.728,3.852c0,2.735,0.647,3.6,1.62,3.6
		C88.232,79.305,88.988,78.549,88.988,75.562z"/>
</g>
<g>
	<path fill="none" d="M70.375,21.25c-27.407,0-49.625,22.218-49.625,49.625S42.968,120.5,70.375,120.5S120,98.282,120,70.875
		c0-18.959-10.635-35.429-26.262-43.785L70.375,70V21.25z"/>
	<path fill="#E8E8E8" d="M102.468,11.059L93.738,27.09C109.365,35.446,120,51.916,120,70.875c0,27.407-22.218,49.625-49.625,49.625
		S20.75,98.282,20.75,70.875S42.968,21.25,70.375,21.25V3C32.889,3,2.5,33.389,2.5,70.875s30.389,67.875,67.875,67.875
		s67.875-30.389,67.875-67.875C138.25,44.999,123.767,22.51,102.468,11.059z"/>
	<path fill="#0173A0" d="M93.738,27.09l8.729-16.032C92.911,5.92,81.985,3,70.375,3v18.25C78.823,21.25,86.775,23.367,93.738,27.09z
		"/>
</g>
</svg>
