<?xml version="1.0" encoding="utf-8"?>
<!-- Generator: Adobe Illustrator 16.0.0, SVG Export Plug-In . SVG Version: 6.00 Build 0)  -->
<!DOCTYPE svg PUBLIC "-//W3C//DTD SVG 1.1//EN" "http://www.w3.org/Graphics/SVG/1.1/DTD/svg11.dtd">
<svg version="1.1" id="Layer_1" xmlns="http://www.w3.org/2000/svg" xmlns:xlink="http://www.w3.org/1999/xlink" x="0px" y="0px"
	 width="800px" height="400px" viewBox="0 0 800 400" enable-background="new 0 0 800 400" xml:space="preserve">
<polyline fill-rule="evenodd" clip-rule="evenodd" fill="#FFFFFF" points="295.814,15.064 504.847,15.064 511.932,25.349 
	511.932,378.886 504.847,384.725 291.288,384.725 284.899,376.932 284.899,22.155 295.814,15.064 "/>
<path fill-rule="evenodd" clip-rule="evenodd" fill="#A5ADB9" d="M398.196,37.652c50.515,0,91.5,41.025,91.5,91.573
	c0,50.55-40.985,91.577-91.5,91.577c-50.502,0-91.499-41.027-91.499-91.577C306.697,78.678,347.693,37.652,398.196,37.652"/>
<path fill-rule="evenodd" clip-rule="evenodd" fill="#FFFFFF" d="M398.196,56.223c40.396,0,73.18,32.824,73.18,73.261
	c0,40.44-32.784,73.264-73.18,73.264c-40.401,0-73.181-32.824-73.181-73.264C325.015,89.047,357.794,56.223,398.196,56.223"/>
<polyline fill-rule="evenodd" clip-rule="evenodd" fill="#A5ADB9" points="347.254,63.853 333.067,78.114 449.508,194.794 
	463.689,180.53 347.254,63.853 "/>
<path fill-rule="evenodd" clip-rule="evenodd" fill="#292A2C" d="M514.507,375.601c0,6.706-5.452,12.163-12.163,12.163v-6.086
	c3.362,0,6.085-2.723,6.085-6.077c0,0,0,0,0-0.071L514.507,375.601"/>
<path fill-rule="evenodd" clip-rule="evenodd" fill="#292A2C" d="M293.868,387.764c0,0,0,0-0.083,0
	c-6.701,0-12.158-5.457-12.158-12.163l6.079-0.071c0,0,0,0,0,0.071c0,3.354,2.729,6.077,6.162,6.077V387.764"/>
<polyline fill-rule="evenodd" clip-rule="evenodd" fill="#292A2C" points="510.768,34.861 304.148,241.869 306.723,244.441 
	513.343,37.432 510.768,34.861 "/>
<polyline fill-rule="evenodd" clip-rule="evenodd" fill="#292A2C" points="510.847,24.416 293.713,242.023 296.273,244.598 
	513.407,26.982 510.847,24.416 "/>
<polyline fill-rule="evenodd" clip-rule="evenodd" fill="#292A2C" points="507.801,17.092 286.225,239.062 288.882,241.623 
	510.375,19.66 507.801,17.092 "/>
<polyline fill-rule="evenodd" clip-rule="evenodd" fill="#292A2C" points="500.318,14.211 283.347,231.652 285.915,234.225 
	502.893,16.86 500.318,14.211 "/>
<polyline fill-rule="evenodd" clip-rule="evenodd" fill="#292A2C" points="489.722,14.441 283.968,220.659 286.535,223.239 
	492.294,17.092 489.722,14.441 "/>
<path fill-rule="evenodd" clip-rule="evenodd" fill="#292A2C" d="M281.712,25.117l-0.085,0.007c0-0.027,0-0.052,0-0.081
	c0-6.712,5.445-12.156,12.158-12.156c0.032,0,0.057,0,0.09,0l-0.013,6.078c-0.027,0-0.045,0-0.077,0
	c-3.357,0-6.079,2.723-6.079,6.079c0,0.02,0,0.048,0,0.074H281.712"/>
<path fill-rule="evenodd" clip-rule="evenodd" fill="#292A2C" d="M502.344,12.886c6.711,0,12.163,5.457,12.163,12.23h-6.078
	c0-3.344-2.723-6.153-6.085-6.153V12.886"/>
<path fill-rule="evenodd" clip-rule="evenodd" fill="#292A2C" d="M502.344,240.077c6.711,0,12.163,5.451,12.163,12.152
	c0,0,0,0,0,0.077h-6.078c0-3.421-2.723-6.149-6.085-6.149V240.077"/>
<path fill-rule="evenodd" clip-rule="evenodd" fill="#292A2C" d="M502.344,246.157c6.711,0,12.163-5.465,12.163-12.242h-6.078
	c0,3.349-2.723,6.08-6.085,6.08V246.157"/>
<path fill-rule="evenodd" clip-rule="evenodd" fill="#292A2C" d="M294.178,240.077c-6.784,0-12.234,5.451-12.234,12.152
	c0,0,0,0,0,0.077h6.156c0-3.421,2.729-6.149,6.079-6.149V240.077"/>
<path fill-rule="evenodd" clip-rule="evenodd" fill="#292A2C" d="M294.178,246.157c-6.784,0-12.234-5.465-12.234-12.242h6.156
	c0,3.349,2.729,6.08,6.079,6.08V246.157"/>
<rect x="293.868" y="12.882" fill="#292A2C" width="208.476" height="6.082"/>
<rect x="281.627" y="25.124" fill="#292A2C" width="6.085" height="350.406"/>
<rect x="508.429" y="25.124" fill="#292A2C" width="6.154" height="350.406"/>
<rect x="294.178" y="240.077" fill="#292A2C" width="208.166" height="6.08"/>
<rect x="293.868" y="381.686" fill="#292A2C" width="208.476" height="6.154"/>
<polyline fill="#292A2C" points="352.731,291.343 368.399,291.343 368.399,298.67 344.202,298.67 344.202,291.343 358.757,271.535 
	344.494,271.535 344.494,264.541 367.624,264.541 367.624,271.535 352.731,291.343 "/>
<path fill="#292A2C" d="M388.923,286.759c0-5.73-1.971-7.507-4.863-7.507c-3.666,0-5.153,2.988-5.153,7.507
	c0,3.956,1.928,6.944,5.153,6.944C387.236,293.703,388.923,290.715,388.923,286.759z M372.15,286.759
	c0-9.88,5.787-13.489,11.567-13.489c5.258,0,11.808,3.609,11.808,13.489c0,7.281-4.766,12.778-11.465,12.778
	C376.688,299.537,372.15,294.472,372.15,286.759"/>
<path fill="#292A2C" d="M410.755,274.188c1.016-0.485,2.217-0.634,3.381-0.634c5.303,0,9.291,4.102,9.291,9.021v16.096h-6.409
	v-13.975c0-2.75-1.35-4.966-3.988-4.966c-3.142,0-5.16,1.829-5.16,4.282v14.658h-6.459v-24.435h6.653v1.776
	C409.312,274.951,409.7,274.577,410.755,274.188"/>
<path fill="#292A2C" d="M435.288,283.725h9.874c-0.138-2.41-2.548-4.571-4.961-4.571
	C437.746,279.153,435.674,281.081,435.288,283.725z M446.803,290.903l3.9,4.247c-3.123,2.849-5.207,4.05-9.636,4.05
	c-7.56,0-12.194-5.593-12.194-13.062c0-6.647,4.301-12.48,10.903-12.48c7.175,0,11.611,5.348,11.611,13.348v1.682h-16.101
	c0.148,2.805,2.696,4.823,5.929,4.823C443.041,293.51,444.056,293.226,446.803,290.903"/>
<polyline fill="#292A2C" points="341.402,335.481 341.402,343.041 324.241,343.041 324.241,352.049 344.681,352.049 344.681,360.63 
	315.834,360.63 315.834,318.676 342.773,318.676 342.773,326.662 324.241,326.662 324.241,335.481 341.402,335.481 "/>
<polyline fill="#292A2C" points="356.062,318.676 365.301,318.676 384.43,346.807 384.43,318.676 392.894,318.676 392.894,360.63 
	383.653,360.63 364.467,332.501 364.467,360.63 356.062,360.63 356.062,318.676 "/>
<path fill="#292A2C" d="M432.281,339.168c0-10.299-6.913-12.33-10.487-12.33h-6.791v25.27h5.89
	C427.935,352.107,432.281,347.751,432.281,339.168z M441.042,339.117c0,12.746-9.124,21.513-19.664,21.513h-15.196v-41.954h16.27
	C433.113,318.676,441.042,327.068,441.042,339.117"/>
<path fill="#292A2C" d="M472.986,348.655c0-2.275-0.949-3.758-5.431-4.656l-7.151-1.488c-4.229-0.84-9.766-4.468-9.766-11.497
	c0-6.743,6.13-13.229,15.973-13.229c0,0,11.025,0,16.567,6.544l-6.08,6.02c-4.945-4.225-10.784-4.225-10.784-4.225
	c-3.815,0-6.08,1.851-6.08,4.593c0,2.198,1.612,3.636,8.819,4.643c7.986,1.066,13.398,6.015,13.47,12.985
	c0.059,5.847-3.219,13.229-17.769,13.229c-8.283,0-12.157-2.198-17.879-7.979l7.151-5.417c3.945,3.812,6.674,5.004,11.213,5.004
	C469.947,353.182,472.986,351.752,472.986,348.655"/>
</svg>
