<?xml version="1.0" encoding="utf-8"?>
<!-- Generator: Adobe Illustrator 16.0.0, SVG Export Plug-In . SVG Version: 6.00 Build 0)  -->
<!DOCTYPE svg PUBLIC "-//W3C//DTD SVG 1.1//EN" "http://www.w3.org/Graphics/SVG/1.1/DTD/svg11.dtd">
<svg version="1.1" id="Layer_1" xmlns="http://www.w3.org/2000/svg" xmlns:xlink="http://www.w3.org/1999/xlink" x="0px" y="0px"
	 width="514px" height="195.333px" viewBox="0 0 514 195.333" enable-background="new 0 0 514 195.333" xml:space="preserve">
<g>
	<path fill="#FFFFFF" d="M34.292,173.495c2.081-1.351,2.067-1.338,3.65,0.455c3.245,3.67,6.762,7.027,11.025,9.524
		c9.731,5.7,19.487,4.172,26.983-4.271c5.015-5.647,7.845-12.367,9.438-19.656c2.271-10.391,1.061-20.568-2.035-30.604
		c-3.204-10.386-8.086-20-13.995-29.056C63.42,90.786,57.145,81.902,50.963,72.96c-5.788-8.372-10.984-17.063-14.616-26.612
		c-1.8-4.735-2.833-9.628-3.023-14.711C32.94,21.391,37.215,13.477,45.328,7.5c1.954-1.44,4.106-2.612,6.177-3.891
		c0.31-0.191,0.674-0.292,1.013-0.435c0.068,0.099,0.135,0.198,0.203,0.296c-0.456,0.452-0.887,0.933-1.372,1.351
		c-4.292,3.711-7.063,8.281-8.047,13.919c-1.183,6.777-0.186,13.271,2.326,19.604c2.563,6.463,6.057,12.423,9.94,18.148
		c5.969,8.798,12.131,17.466,18.084,26.274c6.319,9.351,11.996,19.066,16.1,29.633c3.279,8.441,5.185,17.168,5.716,26.215
		c0.505,8.6,0.037,17.09-2.466,25.385c-3.03,10.041-9.231,17.738-17.907,23.397c-7.659,4.996-15.771,5.36-24.055,1.426
		C44.459,185.696,37.821,179.004,34.292,173.495z"/>
	<path fill="#FFFFFF" d="M189.715,182.071c-1.094,0-2.163,0-3.351,0c-1.196-8.475-2.388-16.914-3.604-25.525
		c1.153,0,2.146-0.053,3.126,0.035c0.274,0.023,0.6,0.422,0.75,0.725c1.207,2.43,2.258,4.943,3.584,7.305
		c2.474,4.405,5.788,8.1,10.386,10.326c4.405,2.135,9.085,2.723,13.87,1.324c5.699-1.665,9.273-7.436,8.611-13.334
		c-0.465-4.143-2.553-7.264-5.737-9.574c-4.389-3.186-8.928-6.184-13.552-9.02c-4.098-2.515-8.151-5.037-11.677-8.344
		c-4.862-4.56-6.349-10.298-5.818-16.684c0.878-10.572,9.089-16.637,18.205-17.777c5.06-0.634,9.737,0.629,14.38,2.329
		c0.862,0.315,1.717,0.651,2.592,0.929c3.572,1.123,5.051,0.28,5.904-3.385c1.049,0,2.111,0,3.288,0
		c0.874,8.494,1.744,16.939,2.632,25.568c-1.23,0-2.34,0.07-3.429-0.051c-0.268-0.029-0.578-0.655-0.68-1.057
		c-1.181-4.605-3.204-8.765-6.457-12.275c-3.893-4.199-8.705-6.496-14.435-6.477c-4.987,0.018-10.361,2.698-11.039,9.018
		c-0.399,3.72,0.953,6.826,3.5,9.441c2.838,2.913,6.196,5.139,9.662,7.24c4.917,2.98,9.873,5.922,14.602,9.186
		c3.703,2.555,6.87,5.801,8.815,9.959c5.355,11.444-0.609,24.635-13.013,28.698c-6.903,2.263-13.837,2.007-20.708-0.313
		c-1.85-0.625-3.685-1.323-5.574-1.795c-2.979-0.744-4.142,0.086-4.676,3.074C189.844,181.771,189.77,181.917,189.715,182.071z"/>
	<path fill="#FFFFFF" d="M175.693,32.935c0-1.084,0-1.88,0-2.814c0.444-0.021,0.866-0.057,1.288-0.058
		c4.719-0.004,9.438,0.019,14.157-0.022c0.847-0.007,1.37,0.257,1.896,0.919c11.01,13.872,22.045,27.725,33.077,41.58
		c0.216,0.271,0.458,0.522,0.849,0.965c0.056-0.539,0.12-0.866,0.12-1.194c-0.015-10.197-0.004-20.394-0.087-30.59
		c-0.013-1.615-0.334-3.256-0.729-4.831c-0.484-1.932-1.79-3.181-3.801-3.55c-1.331-0.244-2.673-0.424-4.141-0.653
		c0-0.751,0-1.599,0-2.538c7.51,0,15.003,0,22.591,0c0,0.855,0,1.709,0,2.55c-1.216,0.207-2.347,0.424-3.485,0.586
		c-2.832,0.403-4.248,2.225-4.716,4.854c-0.293,1.644-0.48,3.33-0.484,4.998c-0.035,16.156-0.021,32.312-0.021,48.469
		c0,0.516,0,1.031,0,1.603c-1.328,0.271-2.321,0.234-3.282-0.969c-12.624-15.807-25.304-31.569-37.972-47.341
		c-0.296-0.369-0.607-0.726-1.105-1.317c-0.058,0.594-0.117,0.919-0.117,1.244c-0.005,11.717-0.022,23.435,0.019,35.152
		c0.005,1.506,0.218,3.032,0.521,4.511c0.609,2.976,2.407,4.516,5.45,4.862c0.831,0.095,1.663,0.177,2.588,0.274
		c0,0.834,0,1.651,0,2.575c-7.502,0-14.994,0-22.566,0c0-0.847,0-1.663,0-2.553c1.256-0.181,2.513-0.338,3.761-0.545
		c2.528-0.418,4.139-1.866,4.549-4.414c0.291-1.806,0.521-3.644,0.527-5.469c0.043-13.477,0.015-26.954,0.042-40.43
		c0.001-0.912-0.288-1.576-0.861-2.254C181.667,34.062,179.244,32.345,175.693,32.935z"/>
	<path fill="#FFFFFF" d="M22.975,37.142c0,2.268-0.052,4.538,0.008,6.804c0.396,14.788,5.822,27.537,15.916,38.247
		c3.472,3.683,7.539,6.798,11.12,10.385c5.784,5.793,12.119,11.043,17.29,17.446c6.594,8.166,10.351,17.527,11.823,27.863
		c0.036,0.251,0.004,0.511,0.004,1.076c-0.31-0.412-0.48-0.557-0.549-0.741c-4.278-11.507-12.385-19.558-22.899-25.46
		c-5.292-2.971-10.614-5.896-15.822-9.01c-13.268-7.935-21.719-19.648-26.428-34.208c-0.944-2.919-1.68-5.906-2.546-8.852
		c-0.222-0.757-0.113-1.188,0.625-1.648c3.322-2.068,5.274-5.277,6.925-8.689c1.887-3.898,3.123-8.021,4.067-12.238
		c0.08-0.358,0.199-0.707,0.3-1.061C22.865,37.085,22.92,37.113,22.975,37.142z"/>
	<path fill="#FFFFFF" d="M299.356,151.859c0.029,0.242,0.075,0.472,0.084,0.702c0.013,0.438,0.003,0.874,0.003,1.406
		c-6.744,0-13.401,0-20.17,0c0-0.668,0-1.359,0-2.108c0.949-0.106,1.897-0.149,2.818-0.331c1.911-0.375,2.682-1.188,2.973-3.1
		c0.131-0.865,0.205-1.747,0.209-2.623c0.016-7.157,0.026-14.316-0.01-21.475c-0.007-1.188-0.201-2.383-0.414-3.557
		c-0.195-1.092-0.918-1.646-2.062-1.551c-1.063,0.09-2.128,0.199-3.198,0.3c-0.552-1.976-0.369-2.253,1.514-2.843
		c3.349-1.051,6.686-2.141,10.015-3.25c1.726-0.574,2.086-0.36,2.088,1.396c0.002,1.348,0,2.693,0,4.328
		c0.569-0.385,0.916-0.609,1.253-0.848c2.643-1.861,5.184-3.904,8.402-4.734c5.082-1.311,10.229,0.196,12.499,5.633
		c0.061,0.146,0.159,0.271,0.314,0.526c0.443-0.405,0.842-0.778,1.248-1.144c2.97-2.651,6.242-4.736,10.286-5.27
		c6.697-0.881,11.011,2.199,12.205,8.85c0.429,2.387,0.648,4.836,0.678,7.261c0.071,5.995-0.018,11.993-0.054,17.989
		c-0.016,2.627,1.012,3.822,3.621,4.146c0.752,0.094,1.507,0.163,2.36,0.254c0,0.695,0,1.389,0,2.163c-6.612,0-13.186,0-19.848,0
		c0-0.724,0-1.415,0-2.128c0.986-0.18,1.917-0.374,2.857-0.512c1.593-0.233,2.34-1.239,2.569-2.732
		c0.066-0.434,0.107-0.875,0.106-1.312c-0.014-7.598-0.021-15.194-0.077-22.793c-0.007-0.86-0.212-1.75-0.487-2.572
		c-0.647-1.932-2.042-2.98-4.085-3.172c-3.914-0.361-7.161,0.887-9.599,4.017c-0.319,0.41-0.587,0.994-0.588,1.499
		c-0.017,7.518,0.009,15.034,0.052,22.553c0.004,0.67,0.138,1.354,0.312,2.004c0.555,2.071,2.14,2.744,4.074,2.879
		c0.516,0.035,1.033,0.004,1.662,0.004c0,0.82,0,1.545,0,2.293c-6.793,0-13.5,0-20.289,0c0-0.744,0-1.438,0-2.156
		c0.904-0.113,1.774-0.186,2.628-0.342c1.961-0.357,2.773-1.198,3.039-3.153c0.117-0.868,0.199-1.75,0.202-2.626
		c0.018-6.197,0.073-12.396-0.031-18.596c-0.029-1.807-0.395-3.645-0.87-5.398c-0.527-1.936-2.021-2.908-4.026-3.005
		c-3.854-0.187-6.986,1.351-9.565,4.117c-0.262,0.28-0.414,0.774-0.414,1.172c-0.023,8.038-0.029,16.076-0.01,24.114
		c0.006,2.035,0.826,2.986,2.842,3.367C297.373,151.674,298.292,151.731,299.356,151.859z"/>
	<path fill="#FFFFFF" d="M160.689,66.719c-1.052,3.658-2.51,7.121-5.01,10.086c-0.633,0.75-1.229,1.053-2.261,0.751
		c-5.862-1.716-11.447-1.029-16.717,2.103c-2.123,1.262-4.266,2.489-6.622,3.862c0.903-1.896,1.887-3.553,2.491-5.339
		c0.708-2.094,2.101-2.968,4.126-3.584c4.908-1.491,9.839-1.993,14.911-1.215c0.345,0.053,0.913-0.136,1.09-0.404
		c1.047-1.583,2.009-3.222,3.082-4.977c-3.466-1.672-6.708-2.754-10.366-1.933c-1.902,0.427-3.864,0.585-5.788,0.924
		c-2.189,0.385-3.904-0.481-5.402-1.945c-0.597-0.583-1.126-1.235-1.753-1.929c-0.911,2.179-2.371,3.623-4.838,3.314
		c-2.227-0.278-2.923-2.1-3.508-4.048c-1.708,0.166-3.128-0.345-4.041-2.056c0.416,0,0.794,0.052,1.153-0.009
		c1.198-0.206,2.416-0.363,3.576-0.707c1.396-0.413,2.741-0.996,4.145-1.52c-1.285-0.562-2.71-0.306-4.112-0.183
		c-1.351,0.119-2.694,0.325-4.045,0.436c-2.341,0.191-4.116-0.821-5.365-2.743c-0.693-1.066-1.01-2.579-1.953-3.226
		c-0.938-0.643-2.473-0.346-3.7-0.647c-4.808-1.182-8.007-4.13-9.495-8.886c-0.104-0.333-0.232-0.659-0.452-1.275
		c-1.779,3.398-2.031,6.646-0.896,10.021c1.122,3.333,3.489,5.661,6.408,7.698c-1.451,1.493-2.812,2.942-4.225,4.337
		c-4.896,4.833-6.834,10.808-7.009,17.55c-0.169,6.51,0.786,12.893,1.83,19.28c1.204,7.367,2.355,14.739,3.55,22.107
		c0.492,3.032,1.037,6.057,1.55,9.087c0.068,0.403,0.087,0.815-0.118,1.285c-0.129-0.218-0.298-0.419-0.381-0.651
		c-3.149-8.875-6.4-17.716-9.399-26.641c-2.661-7.921-4.438-16.095-5.614-24.353c-1.135-7.976,1.39-15.044,6.78-20.969
		c1.631-1.793,2.37-3.005,0.872-5.438c-1.869-3.035-1.434-6.573-0.204-9.863c2.104-5.631,5.907-9.997,10.525-13.718
		c0.093-0.075,0.198-0.139,0.307-0.187c0.066-0.029,0.152-0.017,0.431-0.041c-0.101,0.629-0.238,1.216-0.281,1.809
		c-0.154,2.139-0.452,4.288-0.367,6.419c0.106,2.641,1.694,4.107,4.331,4.438c1.306,0.164,2.618,0.287,3.923,0.458
		c1.717,0.225,2.949,1.175,3.751,2.673c0.583,1.09,1.15,2.195,1.626,3.334c0.345,0.827,0.815,1.089,1.727,1.047
		c2.631-0.119,5.271-0.212,7.843,0.612c2.646,0.848,4.722,2.403,6.366,4.646c2.885,3.938,2.919,3.877,7.874,4.05
		c6.711,0.235,12.994,1.993,18.772,5.461c0.205,0.123,0.411,0.249,0.604,0.389C160.503,66.48,160.57,66.585,160.689,66.719z"/>
	<path fill="#FFFFFF" d="M379.513,90.18c0,0.741,0,1.376,0,2.097c-6.448,0-12.864,0-19.377,0c0-0.696,0-1.394,0-2.133
		c0.795-0.119,1.543-0.212,2.284-0.346c2.086-0.376,2.991-1.29,3.299-3.378c0.128-0.867,0.23-1.748,0.233-2.622
		c0.02-6.2,0.028-12.399-0.007-18.599c-0.006-1.068-0.146-2.158-0.389-3.199c-0.938-4.01-3.913-5.72-7.847-4.551
		c-2.656,0.791-4.729,2.46-6.509,4.513c-0.274,0.316-0.378,0.874-0.379,1.321c-0.023,6.639-0.032,13.279,0,19.918
		c0.006,1.151,0.188,2.305,0.341,3.451c0.249,1.892,1.424,2.864,3.247,3.147c0.744,0.116,1.488,0.224,2.289,0.344
		c0,0.708,0,1.374,0,2.13c-6.541,0-13.074,0-19.684,0c0-0.67,0-1.333,0-2.109c0.565-0.106,1.177-0.232,1.791-0.334
		c2.626-0.432,3.494-1.388,3.636-4.052c0.047-0.878,0.075-1.758,0.075-2.637c0.006-15.119,0.005-30.237,0.004-45.356
		c0-3.441-0.995-4.308-4.457-3.884c-0.234,0.029-0.467,0.088-0.691,0.132c-0.648-1.859-0.417-2.277,1.348-2.818
		c3.432-1.053,6.854-2.141,10.273-3.227c1.429-0.454,1.809-0.202,1.81,1.292c0.004,8.839,0.002,17.679,0.002,26.518
		c0,0.469,0,0.938,0,1.789c0.534-0.535,0.827-0.815,1.105-1.108c3.022-3.19,6.655-5.06,11.122-5.051
		c6.335,0.012,10.457,3.767,10.963,10.278c0.303,3.897,0.233,7.825,0.28,11.74c0.04,3.399-0.007,6.8,0.018,10.199
		c0.007,0.955,0.135,1.909,0.199,2.864c0.117,1.747,1.021,2.792,2.745,3.14C377.977,89.798,378.705,89.99,379.513,90.18z"/>
	<path fill="#FFFFFF" d="M4.072,80.052c1.955,4.393,3.79,8.769,5.832,13.047c3.372,7.063,8.081,13.026,14.834,17.19
		c3.909,2.412,7.74,4.969,11.778,7.142c6.363,3.423,12.918,6.487,19.301,9.875c5.049,2.68,9.58,6.101,13.19,10.601
		c4.627,5.766,6.843,12.379,6.764,19.764c-0.003,0.295-0.074,0.588-0.362,0.943c-0.544-1.084-1.123-2.152-1.628-3.254
		c-4.734-10.332-13.183-16.182-23.662-19.518c-5.587-1.777-11.271-3.256-16.833-5.106C19.88,126.272,10.58,117.349,5.423,104.23
		C2.324,96.346,2.153,88.211,4.072,80.052z"/>
	<path fill="#FFFFFF" d="M256.833,154.944c-9.63-0.018-17.632-7.115-19.035-16.787c-0.913-6.298-0.097-12.228,3.728-17.445
		c4.302-5.871,10.281-8.088,17.419-7.469c5.42,0.473,10.009,2.602,13.492,6.865c2.428,2.971,3.596,6.471,4.074,10.212
		c0.842,6.582-0.729,12.556-4.9,17.729C267.83,152.739,262.891,154.956,256.833,154.944z M267.896,135.469
		c-0.074-0.938-0.117-2.58-0.352-4.196c-0.598-4.116-1.743-8.039-4.516-11.294c-3.559-4.18-9.282-4.557-13.146-0.861
		c-1.641,1.569-2.558,3.541-3.047,5.729c-0.926,4.136-0.563,8.262,0.178,12.368c0.67,3.715,1.675,7.328,4.004,10.4
		c4.32,5.701,11.643,5.035,14.918-1.32C267.584,143.106,267.829,139.659,267.896,135.469z"/>
	<path fill="#FFFFFF" d="M279.076,72.936c-0.1,4.916-2.053,10.118-6.084,14.547c-7.604,8.353-22.973,7.76-29.702-2.861
		c-4.85-7.655-4.662-18.605,0.696-25.763c4.34-5.798,10.314-7.945,17.377-7.327c5.406,0.474,10.031,2.6,13.466,6.913
		C277.955,62.371,279.012,66.985,279.076,72.936z M270.379,74.448c-0.221-2.06-0.337-4.137-0.688-6.175
		c-0.627-3.66-1.836-7.105-4.291-9.997c-3.033-3.572-7.933-4.45-11.655-2.059c-2.453,1.576-3.849,3.902-4.487,6.691
		c-1.065,4.658-0.594,9.294,0.378,13.894c0.765,3.619,1.913,7.095,4.417,9.956c2.895,3.308,7.41,3.991,11.036,1.63
		c1.998-1.301,3.136-3.265,3.929-5.438C270.016,80.213,270.273,77.358,270.379,74.448z"/>
	<path fill="#FFFFFF" d="M149.924,177.331c0-1.754,0.033-3.74-0.006-5.725c-0.264-13.423-3.393-26.229-8.433-38.604
		c-4.926-12.101-11.577-23.209-19.576-33.512c-0.852-1.098-1.141-1.888-0.02-2.862c0.206-0.179,0.339-0.439,0.602-0.789
		c0.822,0.921,1.612,1.797,2.39,2.682c10.703,12.184,19.958,25.355,27.126,39.936c5.182,10.539,9.169,21.5,11.222,33.098
		c0.582,3.287,0.858,6.628,1.293,10.096c-2.596-1.098-4.828-2.277-7.202-2.975C154.94,177.977,152.418,177.762,149.924,177.331z"/>
	<path fill="#FFFFFF" d="M483.562,129.958c-9.086,0-17.948,0-27.132,0c0.305,1.939,0.536,3.731,0.872,5.504
		c0.526,2.774,1.565,5.342,3.197,7.674c3.558,5.088,10.194,5.887,15.202,3.242c2.852-1.506,4.805-3.916,6.505-6.569
		c0.235-0.368,0.472-0.735,0.768-1.197c0.731,0.322,1.444,0.636,2.147,0.945c-3.83,12.179-15.226,18.432-26.091,13.793
		c-4.083-1.743-6.7-5.017-8.098-9.164c-2.2-6.547-2.192-13.183,0.34-19.593c2.571-6.51,7.499-10.594,14.521-11.395
		c8.394-0.955,14.942,3.028,16.936,11.941C483.068,126.649,483.261,128.191,483.562,129.958z M456.96,126.013
		c5.469,0,10.931,0,16.521,0c-0.252-1.116-0.442-2.091-0.689-3.05c-1.283-4.991-4.641-6.461-9.52-5.438
		C459.741,118.266,457.438,121.573,456.96,126.013z"/>
	<path fill="#FFFFFF" d="M381.257,129.93c-9.062,0-17.954,0-27.037,0c0.571,5.941,1.518,11.539,6.251,15.562
		c3.371,2.862,8.948,3.119,12.993,0.868c2.743-1.526,4.679-3.827,6.356-6.397c0.281-0.432,0.553-0.873,0.862-1.364
		c0.726,0.319,1.408,0.62,2.263,0.995c-0.434,1.057-0.782,2.102-1.272,3.074c-2.868,5.691-6.925,10.076-13.357,11.654
		c-10.019,2.457-18.688-3.129-20.559-13.271c-1.099-5.965-0.929-11.877,1.646-17.49c3.767-8.217,13.046-12.41,21.368-9.736
		c5.61,1.801,8.493,5.949,9.716,11.467C380.81,126.758,380.983,128.26,381.257,129.93z M354.691,126.051c5.445,0,10.888,0,16.487,0
		c-0.229-1.079-0.406-2.051-0.645-3.006c-1.226-4.935-4.537-6.621-9.689-5.485C357.447,118.31,354.944,121.963,354.691,126.051z"/>
	<path fill="#FFFFFF" d="M418.107,154.559c0-5.057,0-9.807,0-14.543c1.964-0.495,2.164-0.37,2.625,1.377
		c0.744,2.82,1.498,5.63,3.59,7.854c2.542,2.705,7.165,3.582,10.477,1.916c2.855-1.437,3.843-5.215,1.902-8.016
		c-0.767-1.105-1.917-2.035-3.069-2.766c-2.394-1.514-4.963-2.748-7.348-4.272c-1.739-1.112-3.427-2.374-4.912-3.804
		c-3.345-3.219-4.196-7.235-2.758-11.551c1.463-4.391,4.842-6.674,9.334-7.412c2.869-0.473,5.63-0.106,8.354,0.881
		c1.141,0.412,2.349,1.129,3.56-0.074c0.27-0.268,0.977-0.096,1.689-0.141c0.134,4.293,0.265,8.466,0.395,12.621
		c-1.877,0.564-2.073,0.41-2.638-1.346c-0.522-1.627-1.054-3.277-1.821-4.795c-1.764-3.48-5.015-4.928-8.807-4.105
		c-4.15,0.9-5.711,5.736-2.825,8.895c0.662,0.727,1.48,1.352,2.323,1.865c3.102,1.895,6.251,3.707,9.364,5.581
		c0.956,0.575,1.86,1.237,2.776,1.879c6.952,4.856,5.628,15.456-2.479,19.001c-3.824,1.672-7.674,1.545-11.603,0.589
		c-1.161-0.282-2.338-0.506-3.514-0.728c-0.967-0.184-1.825-0.188-2.625,0.67C419.748,154.516,418.88,154.417,418.107,154.559z"/>
	<path fill="#FFFFFF" d="M302.426,92.218c-7.162,0-14.341,0-21.662,0c0-0.45,0.041-0.841-0.009-1.222
		c-0.101-0.768,0.254-1.038,0.976-1.163c1.017-0.176,2.021-0.448,3.012-0.739c1.256-0.37,1.859-1.301,2.021-2.559
		c0.024-0.198,0.051-0.398,0.051-0.597c-0.006-8.236,0.035-16.473-0.053-24.708c-0.029-2.84-0.975-3.465-3.82-3.026
		c-0.588,0.09-1.176,0.183-1.764,0.274c-0.578-1.906-0.393-2.24,1.368-2.873c3.604-1.295,7.196-2.618,10.788-3.946
		c1.494-0.553,1.906-0.301,1.912,1.252c0.005,1.591,0.001,3.182,0.253,4.886c0.261-0.31,0.496-0.646,0.786-0.925
		c1.519-1.458,2.929-3.066,4.609-4.306c1.851-1.365,4.097-1.582,6.304-0.894c3.135,0.977,4.321,5.573,2.137,8.034
		c-1.249,1.406-3.633,1.593-5.377,0.371c-0.718-0.503-1.364-1.107-2.04-1.67c-0.768-0.639-1.588-0.755-2.414-0.162
		c-2.46,1.767-4.303,3.868-4.271,7.172c0.056,5.997,0.016,11.996,0.016,17.994c0,0.24-0.003,0.48,0,0.72
		c0.049,4.143,1.381,5.54,5.487,5.76C302.796,90,302.799,90.003,302.426,92.218z"/>
	<path fill="#FFFFFF" d="M384.296,151.78c0.854-0.174,1.708-0.328,2.554-0.525c2.817-0.656,3.585-1.604,3.591-4.492
		c0.01-7.195,0.013-14.393-0.009-21.588c-0.004-1.113-0.082-2.236-0.244-3.338c-0.233-1.584-1.053-2.186-2.665-2.041
		c-0.983,0.088-1.962,0.254-2.938,0.385c-0.394-2.223-0.383-2.189,1.537-2.881c3.564-1.278,7.121-2.588,10.673-3.904
		c1.616-0.6,1.97-0.374,1.972,1.359c0.001,1.549,0,3.097,0,5.041c0.504-0.582,0.745-0.914,1.038-1.191
		c1.552-1.479,2.998-3.104,4.707-4.372c1.773-1.315,3.94-1.515,6.077-0.907c3.295,0.936,4.546,5.617,2.218,8.139
		c-1.213,1.312-3.333,1.533-5.064,0.445c-0.738-0.465-1.397-1.062-2.061-1.638c-0.899-0.78-1.846-0.959-2.821-0.216
		c-2.405,1.833-4.163,3.98-4.117,7.277c0.085,6.035,0.023,12.072,0.023,18.109c0,0.279-0.005,0.561,0.002,0.84
		c0.086,3.488,1.414,4.918,4.868,5.252c0.794,0.075,1.586,0.162,2.463,0.254c0,0.66,0,1.319,0,2.09c-7.233,0-14.481,0-21.803,0
		C384.296,153.183,384.296,152.525,384.296,151.78z"/>
	<path fill="#FFFFFF" d="M508.793,146.204c0.584,0.49,1.158,0.973,1.719,1.441c-2.075,4.686-7.544,7.891-12.213,7.205
		c-3.521-0.518-5.883-2.783-6.531-6.518c-0.324-1.879-0.487-3.808-0.502-5.713c-0.056-7.676-0.02-15.351-0.024-23.025
		c-0.002-1.979,0.192-1.752-1.826-1.77c-0.6-0.006-1.2,0.016-1.799-0.007c-1.128-0.04-1.619-0.905-1.061-1.888
		c0.154-0.27,0.376-0.54,0.635-0.706c4.174-2.692,6.915-6.692,9.732-10.625c0.279-0.39,0.497-0.837,0.833-1.166
		c0.272-0.267,0.797-0.632,1.002-0.53c0.354,0.174,0.723,0.654,0.768,1.044c0.109,0.946,0.04,1.914,0.041,2.874
		c0.001,2.038,0.034,4.078-0.017,6.115c-0.021,0.854,0.297,1.107,1.114,1.096c2.318-0.037,4.637-0.012,6.955-0.004
		c0.191,0.001,0.385,0.059,0.659,0.102c0,1.203,0,2.381,0,3.693c-2.497,0-4.928,0.061-7.351-0.025
		c-1.142-0.041-1.391,0.355-1.385,1.426c0.04,7.875,0.013,15.749,0.033,23.624c0.003,0.993,0.09,2,0.257,2.979
		c0.58,3.414,3.786,4.691,6.572,2.604C507.229,147.814,507.924,147.024,508.793,146.204z"/>
	<path fill="#FFFFFF" d="M334.663,52.34c0,1.342,0,2.484,0,3.772c-2.875,0-5.689,0-8.573,0c-0.025,0.528-0.062,0.917-0.062,1.306
		c-0.003,8.04-0.011,16.08,0.009,24.119c0.002,0.874,0.08,1.76,0.24,2.618c0.641,3.438,3.776,4.658,6.585,2.542
		c0.82-0.619,1.515-1.406,2.268-2.118c2.035,1.262,2.11,1.456,0.683,3.279c-2.794,3.567-6.286,5.784-11.021,5.28
		c-3.244-0.346-5.438-2.195-6.257-5.292c-0.556-2.096-0.789-4.328-0.814-6.503c-0.093-7.918-0.058-15.839-0.013-23.758
		c0.007-1.123-0.241-1.628-1.443-1.48c-0.749,0.092-1.519,0.041-2.276,0.011c-1.146-0.045-1.61-0.917-1.009-1.902
		c0.185-0.298,0.438-0.593,0.729-0.779c3.452-2.198,5.87-5.383,8.242-8.611c0.732-0.999,1.406-2.042,2.163-3.021
		c0.23-0.299,0.795-0.711,0.96-0.621c0.394,0.216,0.688,0.671,0.925,1.086c0.12,0.213,0.028,0.548,0.028,0.828
		c0.001,2.72,0.029,5.44-0.018,8.159c-0.014,0.845,0.264,1.115,1.095,1.097c2.039-0.045,4.079-0.013,6.119-0.013
		C333.655,52.34,334.088,52.34,334.663,52.34z"/>
	<path fill="#FFFFFF" d="M67.61,173.054c-0.268-0.313-0.543-0.62-0.801-0.941c-5.413-6.728-11.975-11.825-20.359-14.319
		c-3.56-1.059-7.195-1.578-10.876-0.83c-1.451,0.293-2.825,0.973-4.358,1.521c-2.133-6.315-5.819-11.907-11.381-16.704
		c0.921-0.15,1.5-0.309,2.085-0.33c10.99-0.42,20.785,2.865,29.422,9.617c6.864,5.366,11.919,12.208,15.936,19.865
		c0.315,0.602,0.445,1.299,0.662,1.951C67.83,172.94,67.72,172.999,67.61,173.054z"/>
	<path fill="#FFFFFF" d="M113.074,86.616c0.466-0.077,0.684-0.064,0.854-0.148c2.442-1.21,4.268-0.124,6.228,1.341
		c3.147,2.352,6.611,4.202,10.55,4.912c5.598,1.008,9.7-1.244,11.902-6.476c0.092-0.219,0.189-0.436,0.369-0.848
		c1.57,0.917,3.148,1.748,4.622,2.735c0.933,0.625,1.577,0.557,2.226-0.31c0.759-1.014,0.022-1.513-0.678-2.008
		c-2.441-1.728-5.277-2.4-8.133-3.017c-0.292-0.063-0.577-0.156-0.865-0.235c-0.01-0.109-0.021-0.218-0.031-0.327
		c0.424-0.098,0.843-0.248,1.271-0.287c4.611-0.422,8.881,0.528,12.77,3.117c0.683,0.455,0.883,0.969,0.743,1.694
		c-0.489,2.528-1.912,4.45-3.966,5.918c-0.248,0.177-0.777,0.156-1.082,0.019c-0.869-0.394-1.719-0.849-2.52-1.367
		c-0.714-0.463-1.161-0.296-1.738,0.278c-2.522,2.51-5.502,4.226-9.034,4.869c-4.18,0.761-8.185,0.109-12.04-1.604
		C120.196,92.95,116.51,90.146,113.074,86.616z"/>
	<path fill="#FFFFFF" d="M360.598,185.103c-5.063,0-9.395-3.665-9.055-9.892c0.261-4.787,4.348-8.475,9.471-8.33
		c5.462,0.156,9.146,4.06,8.987,9.527C369.851,181.62,365.932,185.243,360.598,185.103z M365.548,175.922
		c-0.433-1.828-0.729-3.719-1.349-5.496c-0.521-1.491-1.753-2.295-3.442-2.293c-1.693,0.002-2.86,0.843-3.447,2.311
		c-1.464,3.664-1.468,7.398-0.03,11.07c0.609,1.561,1.848,2.471,3.634,2.404c1.723-0.064,2.911-0.984,3.4-2.547
		C364.854,179.645,365.127,177.834,365.548,175.922z"/>
	<path fill="#FFFFFF" d="M417.89,184.631c-1.974,0-3.945,0-5.919,0c-0.02-0.086-0.039-0.174-0.059-0.262
		c0.213-0.104,0.416-0.24,0.641-0.304c1.465-0.413,1.832-0.825,1.84-2.354c0.022-3.799,0.004-7.599,0.012-11.396
		c0.002-1.242-0.799-1.838-1.796-2.275c-0.253-0.111-0.532-0.162-0.787-0.521c0.23-0.059,0.462-0.165,0.692-0.168
		c1.561-0.016,3.123-0.075,4.677,0.027c0.542,0.035,1.215,0.358,1.558,0.773c2.294,2.771,4.514,5.604,6.761,8.412
		c0.196,0.245,0.418,0.471,0.784,0.878c0.068-0.466,0.145-0.743,0.145-1.021c0.012-1.961,0.01-3.92,0.007-5.879
		c-0.003-1.846-0.216-2.101-2.083-2.59c-0.124-0.031-0.226-0.16-0.627-0.459c2.283,0,4.232,0,6.485,0
		c-0.393,0.269-0.538,0.434-0.714,0.478c-1.601,0.397-1.932,0.793-1.936,2.505c-0.012,4.438-0.004,8.877-0.004,13.314
		c0,0.424,0,0.848,0,1.271c-0.141,0.071-0.278,0.142-0.418,0.213c-3.749-4.608-7.499-9.217-11.493-14.126
		c-0.044,0.712-0.084,1.07-0.086,1.432c-0.013,2.998-0.021,5.996-0.022,8.996c-0.001,1.777,0.153,1.971,1.89,2.516
		c0.193,0.061,0.361,0.199,0.54,0.303C417.947,184.472,417.918,184.551,417.89,184.631z"/>
	<path fill="#FFFFFF" d="M177.365,77.159c-1.689,0.226-3.389,0.39-5.064,0.691c-2.713,0.488-5.129,1.71-7.407,3.222
		c-3.624,2.405-7.479,2.728-11.385,0.937c-4.273-1.959-8.669-1.854-13.148-1.266c-0.417,0.055-0.837,0.083-1.248,0.122
		c-0.03-0.212-0.073-0.329-0.047-0.347c3.384-2.326,6.949-3.87,11.203-2.819c2.083,0.515,4.185,1.082,6.31,1.265
		c3.035,0.263,5.899-0.752,8.721-1.778c2.671-0.971,5.367-1.924,8.268-1.505c1.334,0.193,2.626,0.673,3.938,1.022
		C177.459,76.856,177.412,77.008,177.365,77.159z"/>
	<path fill="#FFFFFF" d="M382.067,167.5c3.172,0,6.191,0,9.214,0c0.021,0.092,0.041,0.186,0.062,0.277
		c-0.247,0.07-0.492,0.186-0.743,0.202c-1.058,0.067-1.639,0.622-1.645,1.671c-0.02,3.637-0.065,7.275,0.021,10.911
		c0.041,1.745,0.895,2.633,2.424,2.996c1.697,0.401,3.538-0.165,4.283-1.619c0.527-1.028,0.849-2.25,0.918-3.405
		c0.14-2.311,0.061-4.635,0.035-6.953c-0.018-1.725,0.444-3.77-2.486-3.938c2.149-0.319,4.136-0.306,6.312-0.279
		c-0.224,0.38-0.275,0.56-0.339,0.563c-2.229,0.141-2.18,0.98-2.247,2.785c-0.097,2.556-0.024,5.115-0.028,7.674
		c-0.006,4.637-2.366,6.875-7.03,6.713c-2.444-0.086-4.664-0.604-5.67-3.158c-0.34-0.865-0.461-1.859-0.48-2.799
		c-0.061-2.797-0.021-5.596-0.022-8.395c-0.002-2.266-0.004-2.264-2.243-2.812C382.314,167.915,382.264,167.765,382.067,167.5z"/>
	<path fill="#FFFFFF" d="M338.277,166.603c0,2.344,0,4.372,0,6.399c-0.116,0.026-0.232,0.055-0.35,0.082
		c-0.146-0.324-0.307-0.643-0.434-0.974c-0.928-2.416-2.895-3.88-5.231-3.886c-2.261-0.006-4.18,1.419-5.006,3.943
		c-0.908,2.773-0.869,5.606,0.168,8.338c1.222,3.219,5.04,4.254,8.118,2.25c0.854-0.557,1.589-1.297,2.424-1.99
		c0.309,0.968,0.06,1.662-0.692,2.312c-2.758,2.381-7.644,2.748-11.16,0.78c-3.257-1.819-4.791-5.405-4.045-9.452
		c0.657-3.566,3.934-6.686,7.544-7.33c1.921-0.343,3.735-0.093,5.526,0.555C336.938,168.282,336.932,168.297,338.277,166.603z"/>
	<path fill="#FFFFFF" d="M458.43,180.754c0.372,1.184-0.166,1.908-1.031,2.572c-2.884,2.213-7.79,2.409-11.098,0.4
		c-3.127-1.898-4.545-5.411-3.776-9.355c0.715-3.674,3.883-6.637,7.683-7.311c1.798-0.318,3.495-0.074,5.177,0.514
		c1.921,0.672,1.918,0.68,3.271-0.832c0,2.193,0,4.221,0,6.246c-0.076,0.024-0.152,0.051-0.229,0.074
		c-0.125-0.203-0.282-0.395-0.37-0.611c-1.177-2.916-3.205-4.416-5.721-4.22c-2.498,0.196-4.427,2.166-5.028,5.196
		c-0.427,2.15-0.293,4.298,0.287,6.402c1.233,4.479,5.824,4.582,8.376,2.933C456.828,182.208,457.568,181.467,458.43,180.754z"/>
	<path fill="#FFFFFF" d="M508.047,184.614c-5.238,0-10.336,0-15.434,0c-0.017-0.076-0.031-0.154-0.047-0.23
		c0.146-0.092,0.279-0.229,0.438-0.266c1.888-0.438,2.021-0.572,2.031-2.578c0.019-3.356,0.007-6.715,0.006-10.074
		c0-2.812-0.001-2.812-2.406-3.719c0.561-0.519,8.225-0.617,9.648,0.049c-0.665,0.1-1.003,0.16-1.344,0.197
		c-1.033,0.115-1.605,0.666-1.607,1.723c-0.007,4.078-0.005,8.156-0.001,12.234c0.001,1.004,0.447,1.582,1.523,1.551
		c0.515-0.015,1.033-0.029,1.547,0.016c2.845,0.251,4.373-1.26,5.181-3.795c0.146-0.457,0.433-0.87,0.654-1.303
		c0.15,0.057,0.304,0.113,0.455,0.17C508.475,180.616,508.258,182.644,508.047,184.614z"/>
	<path fill="#FFFFFF" d="M480.674,184.622c-3.024,0-6.052,0-9.077,0c-0.022-0.104-0.047-0.207-0.069-0.311
		c0.328-0.1,0.649-0.246,0.984-0.291c0.953-0.127,1.434-0.678,1.437-1.605c0.013-4.271,0.011-8.545,0-12.815
		c-0.002-0.942-0.519-1.468-1.447-1.599c-0.316-0.043-0.631-0.104-0.946-0.154c0.015-0.112,0.027-0.227,0.041-0.338
		c3.023,0,6.047,0,9.07,0c0.015,0.078,0.029,0.156,0.044,0.234c-0.116,0.076-0.235,0.223-0.349,0.219
		c-1.728-0.078-2.112,0.752-2.113,2.463c-0.002,3.675-0.005,7.349,0.001,11.021c0.003,2.096,0.074,2.172,2.169,2.692
		c0.099,0.024,0.176,0.129,0.263,0.194C480.678,184.429,480.676,184.525,480.674,184.622z"/>
</g>
</svg>
