<?xml version="1.0" encoding="utf-8"?>
<!-- Generator: Adobe Illustrator 16.0.0, SVG Export Plug-In . SVG Version: 6.00 Build 0)  -->
<!DOCTYPE svg PUBLIC "-//W3C//DTD SVG 1.1//EN" "http://www.w3.org/Graphics/SVG/1.1/DTD/svg11.dtd">
<svg version="1.1" id="Layer_1" xmlns="http://www.w3.org/2000/svg" xmlns:xlink="http://www.w3.org/1999/xlink" x="0px" y="0px"
	 width="514px" height="195.333px" viewBox="0 0 514 195.333" enable-background="new 0 0 514 195.333" xml:space="preserve">
<g>
	<g>
		<path fill="#FFFFFF" d="M185.42,77.883c-1.467-0.393-3.183-0.524-3.745-0.524h-0.237h-0.237l-0.069,0.225l-0.069,0.228
			c-0.88,2.909-2.652,8.338-5.118,15.852l-0.156,0.481l-6.097,18.739c-3.477-12.848-7.421-26.728-9.475-33.346
			c-0.455-1.133-0.867-2.179-1.978-2.179h-0.075c-1.473,0-3.008,0.344-4.693,1.055c0.006-0.002-0.262,0.106-0.262,0.106
			l-0.269,0.109l0.087,0.278l0.081,0.274c0.113,0.406,0.244,1.186,0.318,1.775c-3.614,11.662-7.264,23.993-9.442,31.583
			c-2.653-9.584-5.68-19.395-7.913-26.627l-1.014-3.295c-1.192-3.994-1.648-5.258-3.264-5.258c-1.395,0-4.275,0.737-5.604,1.436
			l-0.256,0.134l-0.25,0.134l0.104,0.265l0.103,0.268c4.231,10.976,8.095,23.488,11.83,35.59l2.775,8.938l0.069,0.225l0.068,0.225
			h0.237h0.237c1.511,0,3.251-0.388,4.12-0.762c1.073-0.53,1.591-1.33,2.159-3.283c0.805-2.751,2.396-8.02,4.075-13.591l0.462-1.523
			l4.512-15.039c4.144,14.238,7.995,28.251,9.461,33.599l0.038,0.132l0.062,0.23l0.062,0.237h0.244h0.25
			c1.367,0,3.763-0.412,4.5-0.88c0.843-0.556,1.242-1.342,1.834-2.896c4.188-11.438,9.542-26.256,13.843-39.297
			c0.393-1.289,0.418-2.09,0.081-2.69C186.55,78.348,186.106,78.055,185.42,77.883z"/>
		<path fill="#FFFFFF" d="M215.514,119.218l-0.075-0.15c0,0.007-0.125-0.249-0.125-0.249l-0.119-0.263l-0.268,0.094l-0.274,0.094
			c-0.325,0.118-0.836,0.118-1.148,0.118c-1.155,0.05-1.741-0.506-1.797-1.691c-0.043-2.727,0.025-6.472,0.081-9.481l0.006-0.384
			c0.032-1.788,0.056-3.342,0.056-4.434c0-7.898-4.231-12.61-11.321-12.61c-5.28,0-10.142,3.124-12.176,4.968l-0.119,0.106
			l-0.118,0.105l0.012,0.156l0.012,0.156c0.112,1.454,0.668,2.587,1.523,3.112c0.462,0.287,1.254,0.533,2.366,0.081
			c0.006-0.003,0.031-0.016,0.031-0.016l0.032-0.009l0.024-0.02l0.032-0.019c1.703-1.157,4.293-2.541,6.952-2.541
			c4.125,0,5.592,3.206,5.592,5.95v1.616c-0.899,0.163-1.991,0.381-3.083,0.631h0.024c-0.043,0.009-0.15,0.031-0.512,0.116
			c-4.163,0.988-13.917,3.313-13.917,11.185c0,4.974,3.851,8.731,8.956,8.731c4.232,0,7.458-2.577,8.925-3.994
			c0.842,2.521,2.708,3.994,5.268,3.994c1.729,0,3.064-0.475,3.981-1.41c0.861-0.88,1.28-2.123,1.249-3.676c0,0.005,0-0.063,0-0.063
			v-0.075l-0.038-0.068L215.514,119.218z M204.623,113.551c0,1.13-0.206,1.646-0.405,2.01c-0.674,0.941-2.559,3.076-5.624,3.076
			c-2.403,0-4.088-1.504-4.088-3.663v-0.069c0-3.62,5.411-5.354,10.116-6.18V113.551z"/>
		<path fill="#FFFFFF" d="M226.867,122.963c-0.144-1.992-0.288-5.837-0.288-9.338V79.072c0-2.103-0.031-3.314-0.218-4.075
			c-0.206-0.843-0.643-1.217-1.423-1.217c-1.117,0-4.013,0.362-5.567,1.052c-0.006,0.003-0.212,0.1-0.212,0.1l-0.206,0.094
			l0.019,0.227l0.025,0.231c0.118,1.223,0.28,3.364,0.28,7.823v39.344c0,1.029,0.543,1.578,1.574,1.578
			c0.817,0,4.168-0.218,5.548-0.6c-0.006,0,0.25-0.068,0.25-0.068l0.263-0.068l-0.025-0.269L226.867,122.963z"/>
		<path fill="#FFFFFF" d="M248.279,106.253c-1.373-0.799-2.852-1.535-4.281-2.249l-0.106-0.055l-2.016-1.014
			c-1.268-0.704-2.728-1.771-2.728-3.648c0-2.061,1.698-3.446,4.231-3.446c1.523,0,3.415,0.492,4.937,1.282l0.056,0.031l0.05,0.024
			l0.056,0.007l0.069,0.01c0.792,0.04,1.485-0.253,2.041-0.843c0.724-0.765,1.142-2.035,1.024-3.089l-0.012-0.112l-0.013-0.119
			l-0.087-0.081l-0.087-0.082c-1.704-1.631-4.575-2.609-7.677-2.609h-0.068c-5.698,0-11.465,3.445-11.465,10.034
			c0,3.627,1.823,6.464,5.423,8.439c0.911,0.499,1.81,0.94,2.758,1.408l0.194,0.101c0.743,0.361,1.579,0.773,2.434,1.217
			c2.247,1.167,3.165,2.265,3.165,3.807c0,2.259-1.841,3.663-4.806,3.663c-2.365,0-5.167-0.917-7.302-2.396
			c-0.006,0-0.15-0.093-0.15-0.093l-0.137-0.095l-0.156,0.057l-0.162,0.069c-1.155,0.462-1.742,1.822-1.904,2.934
			c-0.181,0.923,0.2,1.946,0.999,2.651c1.804,1.53,5.093,2.516,8.388,2.516c5.935,0,12.319-3.289,12.319-10.517
			C253.266,110.767,251.537,108.067,248.279,106.253z"/>
		<path fill="#FFFFFF" d="M285.291,119.355l-0.024-0.056l-0.031-0.063l-0.068-0.149l-0.119-0.268l-0.119-0.263l-0.274,0.094
			l-0.28,0.094c-0.325,0.118-0.843,0.118-1.148,0.118c-1.154,0.05-1.734-0.506-1.798-1.691c-0.044-2.54,0.02-5.972,0.075-9.001
			l0.007-0.459c0.037-2.04,0.068-3.694,0.068-4.839c0-7.898-4.231-12.61-11.321-12.61c-5.273,0-10.139,3.124-12.18,4.968
			l-0.118,0.106l-0.118,0.105l0.012,0.156l0.013,0.156c0.112,1.454,0.674,2.587,1.529,3.112c0.455,0.29,1.243,0.537,2.361,0.081
			l0.032-0.012l0.024-0.01l0.019-0.013l0.031-0.019c1.717-1.167,4.307-2.55,6.959-2.55c4.125,0,5.592,3.206,5.592,5.95v1.616
			c-0.904,0.169-1.997,0.384-3.083,0.631c-0.006,0-0.48,0.116-0.48,0.116c-4.163,0.988-13.914,3.31-13.914,11.185
			c0,4.974,3.852,8.731,8.952,8.731c4.226,0,7.458-2.577,8.919-3.994c0.843,2.521,2.709,3.994,5.268,3.994
			c1.729,0,3.07-0.475,3.981-1.41c0.861-0.88,1.279-2.123,1.242-3.676c0-0.013-0.007-0.069-0.007-0.069V119.355z M274.351,113.551
			c0,1.117-0.206,1.642-0.405,2.01c-0.675,0.936-2.56,3.076-5.623,3.076c-2.409,0-4.088-1.504-4.088-3.663v-0.069
			c0-3.625,5.411-5.354,10.116-6.18V113.551z"/>
		<path fill="#FFFFFF" d="M296.581,122.963c-0.137-1.967-0.28-5.806-0.28-9.338V79.072c0-2.275-0.062-3.42-0.225-4.088
			c-0.263-1.08-0.937-1.205-1.424-1.205c-1.11,0-4,0.362-5.561,1.052c0,0.003-0.212,0.1-0.212,0.1l-0.212,0.094l0.024,0.227
			l0.02,0.231c0.124,1.205,0.286,3.326,0.286,7.823v39.344c0,1.029,0.544,1.578,1.573,1.578c0.817,0,4.169-0.218,5.542-0.6
			l0.256-0.068l0.249-0.068l-0.018-0.262L296.581,122.963z"/>
		<path fill="#FFFFFF" d="M310.917,123.231l-0.019-0.268c-0.144-1.973-0.287-5.806-0.287-9.338V79.072
			c0-2.275-0.062-3.42-0.23-4.088c-0.263-1.08-0.937-1.205-1.418-1.205c-1.117,0-4.006,0.362-5.56,1.052
			c0,0.003-0.213,0.1-0.213,0.1l-0.212,0.094l0.025,0.23l0.024,0.231c0.119,1.214,0.287,3.349,0.287,7.82v39.344
			c0,1.029,0.537,1.578,1.566,1.578c0.812,0,4.163-0.218,5.542-0.6c0.007,0,0.263-0.068,0.263-0.068l0.249-0.074L310.917,123.231z"
			/>
		<path fill="#FFFFFF" d="M363.922,118.782c-0.075,0.998-0.867,2.509-1.935,3.145c-1.435,1.005-5.599,2.234-10.541,2.234
			c-15.766,0-23.79-9.468-23.79-23.229c0-14.184,10.533-23.717,24.364-23.717c6.672,0,11.539,2.219,12.688,3.58
			c-0.218,1.788-1.578,2.372-2.222,2.222c-2.652-1.436-6.453-2.577-10.821-2.577c-10.392,0-19.635,6.952-19.635,20.209
			c0,11.967,7.234,20.354,20.714,20.354c4.151,0,8.882-1.367,11.034-2.434L363.922,118.782z"/>
		<path fill="#FFFFFF" d="M381.248,91.111c9.748,0,14.84,6.95,14.84,16.204c0,9.095-5.741,16.621-15.203,16.621
			c-11.608,0-15.266-9.175-15.266-16.057c0-9.164,6.173-16.769,15.559-16.769H381.248z M380.68,93.838
			c-5.161,0-10.966,4.155-10.966,13.412c0,9.16,5.305,13.966,11.608,13.966c4.156,0,10.679-2.872,10.679-13.697
			c0-7.021-3.514-13.68-11.253-13.68H380.68z"/>
		<path fill="#FFFFFF" d="M401.212,100.295c0-4.378-0.137-6.529-0.287-8.102c0.937-0.431,2.44-0.652,3.158-0.652
			c0.431,0,0.718,0.359,0.718,4.375c0.069,4.731,0.069,9.893,0.069,14.263c0,9.387,4.442,10.33,8.1,10.33
			c4.301,0,7.951-3.016,9.168-5.03V94.051c0-1.504,0.212-1.857,0.862-2.082c0.861-0.206,2.222-0.427,3.014-0.427
			c0,1.585-0.219,6.601-0.219,12.765v12.035c0,4.013,0.787,4.811,2.94,5.086v0.293c-0.075,0.644-1.073,2.216-2.372,2.216
			c-2.215,0-3.863-2.078-3.932-5.518c-2.223,2.653-4.881,3.945-6.385,4.594c-1.504,0.644-3.009,0.924-4.655,0.924
			c-6.803,0-10.18-4.519-10.18-11.533V100.295z"/>
		<path fill="#FFFFFF" d="M456.421,104.306c0.068-6.813-2.865-9.9-7.739-9.9c-4.52,0-8.245,3.308-9.961,5.811v21.359
			c0,1.504-0.362,1.716-1.366,1.785c-0.793,0.15-1.792,0.069-2.51,0.15c0.145-1.43,0.218-5.599,0.218-13.4V97.714
			c0-3.011-0.437-4.378-1.078-4.95v-0.218c0.437-0.422,2.009-1.357,2.577-1.357c1.729,0,2.017,3.948,2.017,5.801
			c2.714-3.083,7.021-5.879,11.252-5.879c7.376,0,10.248,4.943,10.248,12.898v11.045c0,4.513,0.137,6.734,0.28,7.877
			c-1.436,0.293-2.434,0.581-3.289,0.581c-0.58,0-0.724-0.288-0.724-0.787L456.421,104.306z"/>
		<path fill="#FFFFFF" d="M489.542,119.355c-0.145,1.217-0.644,2.434-1.43,2.865c-1.36,0.86-4.225,1.716-7.309,1.716
			c-5.448,0-15.983-1.854-15.983-16.193c0-9.682,7.309-16.632,16.771-16.632c4.73,0,8.026,1.726,8.6,2.587
			c0,1.356-0.93,2.577-2.01,2.29c-2.221-1.146-4.588-1.716-7.239-1.716c-7.233,0-12.039,5.807-12.039,13.246
			c0,10.981,8.026,13.197,12.906,13.197c2.216,0,5.518-0.573,7.589-1.504L489.542,119.355z"/>
		<path fill="#FFFFFF" d="M498.278,76.925c1.36,0,2.297,1.142,2.297,2.509c0,1.211-0.861,2.578-2.365,2.578
			c-1.722,0-2.44-1.217-2.44-2.506c0-1.65,1.292-2.581,2.44-2.581H498.278z M500.07,121.352c0,1.299-0.281,1.66-0.93,1.797
			c-0.644,0.144-1.579,0.282-2.94,0.363c0.075-2.865,0.22-7.034,0.22-11.185v-12.032c0-4.378-0.145-6.529-0.288-8.102
			c0.93-0.431,2.509-0.652,3.151-0.652c0.506,0,0.787,0.359,0.787,4.375V121.352z"/>
		<path fill="#FFFFFF" d="M506.873,83.235c0-4.232-0.144-6.741-0.293-8.176c1.51-0.568,2.59-0.712,3.226-0.712
			c0.506,0,0.725,0.366,0.725,4.656v34.623c0,3.508,0.144,7.377,0.212,9.306c-1.073,0.361-2.29,0.581-2.94,0.581
			c-0.567,0-0.929-0.22-0.929-0.931V83.235z"/>
	</g>
	<g>
		<g>
			<polygon fill="#FFFFFF" points="59.421,39.8 58.791,39.8 58.791,40.256 58.123,40.693 58.027,40.886 60.438,40.73 			"/>
			<g>
				<path fill="#FFFFFF" d="M62.941,38.852l0.159-0.125l0.405-0.3l0.608,0.571l0.225,0.734l0.041,0.805l-0.162,0.643l0.009,0.106
					l0.175-0.152l0.243-0.434c0.016-0.1,0.025-0.106,0.025-0.118l0.041-0.861c0.007-0.022-0.003-0.043-0.006-0.062l-0.24-0.817
					c-0.016-0.025-0.031-0.056-0.056-0.082l-0.758-0.711c-0.065-0.063-0.174-0.069-0.246-0.01l-0.552,0.415
					c-0.019,0.012-0.038,0.031-0.047,0.047l-0.121,0.39l0.146,0.109L62.941,38.852z"/>
				<polygon fill="#FFFFFF" points="63.01,39.644 63.391,39.606 63.618,39.832 63.547,39.932 63.678,40.103 63.69,40.281 
					63.662,40.468 63.69,40.693 63.69,40.867 63.715,41.058 63.868,41.249 63.996,39.569 63.578,39.023 				"/>
			</g>
		</g>
		<path fill="#FFFFFF" d="M70.902,64.299c2.028,4.724,0.711,10.164,1.401,8.469c0.687-1.685-0.38-5.592-0.38-5.592
			c-0.496-1.903-0.603-2.375-1.626-4.887c-0.128-0.333-0.711-2.315-1.042-4.078C69.457,59.812,69.91,61.993,70.902,64.299z"/>
		<path fill="#FFFFFF" d="M56.035,81.565c-0.745,0.031-1.928,0.075-2.905,0.193c0,0.019,0.038,0.259,0.057,0.396
			c0.989-0.131,1.822-0.231,2.848-0.312C56.035,81.784,56.035,81.603,56.035,81.565z"/>
		<path fill="#FFFFFF" d="M65.622,81.603c0.006,0.031,0,0.181,0,0.266c0.771,0.118,1.757,0.262,2.637,0.452
			c0.025-0.116,0.065-0.29,0.087-0.378C67.453,81.809,66.53,81.696,65.622,81.603z"/>
		<path fill="#FFFFFF" d="M76.587,83.803l-3.522-2.425l-4.029,0.671l-0.122,0.509l3.592,2.512l4.066-0.677l0.125-0.515
			L76.587,83.803L76.587,83.803z M72.537,84.648l-0.084,0.006L69.7,82.464l3.448-0.68l2.84,2.212L72.537,84.648L72.537,84.648z"/>
		<path fill="#FFFFFF" d="M64.701,81.54v-0.131l-3.903-1.623l-4.004,1.635v0.527l3.895,1.62l4.013-1.632V81.54L64.701,81.54z
			 M60.757,83.16l-3.286-1.482l3.289-1.482l3.255,1.482L60.757,83.16L60.757,83.16z"/>
		<path fill="#FFFFFF" d="M52.294,81.993l-0.031-0.131l-4.306-0.643l-3.393,2.565l0.116,0.461l4.182,0.68l3.517-2.599L52.294,81.993
			L52.294,81.993z M48.808,84.517l-3.423-0.69l2.749-2.231l3.489,0.665L48.808,84.517L48.808,84.517z"/>
		<path fill="#FFFFFF" d="M34.486,90.353l0.062-1.941c0-0.068-0.028-0.125-0.078-0.174l-1.042-0.955
			c-0.047-0.05-0.116-0.069-0.182-0.069c-0.252,0.013-1.522,0.093-1.793,0.187l0.081,0.231l0.378,0.109
			c0.134-0.044,0.577,0.025,1.257-0.025l0.93,0.564l0.038,2.066c0,0.024,0.003,0.043,0.013,0.062l0.452,0.861l0.384,0.346
			l0.056-0.196L34.486,90.353z"/>
		<path fill="#FFFFFF" d="M20.927,87.154l-1.033,0.948c-0.049,0.047-0.081,0.116-0.084,0.184l-0.084,1.866l-0.215,0.715l0.243,0.068
			l0.072-0.274l0.39-0.384c0.003-0.019,0.009-0.038,0.009-0.062l0.078-1.81l0.883-0.817c0.68,0.044,1.111-0.044,1.249,0l0.387-0.082
			l0.078-0.23c-0.271-0.094-1.538-0.178-1.788-0.19C21.036,87.079,20.971,87.104,20.927,87.154z"/>
		<polygon fill="#FFFFFF" points="26.865,103.493 26.877,103.524 26.952,103.751 27.03,103.524 27.046,103.493 26.94,103.493 		"/>
		<path fill="#FFFFFF" d="M31.196,94.272l-0.237,0.03l-1.08-0.212c-0.028-0.013-0.05-0.013-0.081,0l-0.871,0.094l-0.549-0.384
			l0.246-0.733c0.54-0.197,1.189-0.649,1.339-0.899l1.835,0.534l-0.646,0.328c-0.54-0.272-1.345-0.366-1.707-0.26
			c-0.06,0.013-1.186,0.088-1.205,0.15l-0.228,0.787C28,93.732,28,93.744,28,93.77l0.063,2.399c0,0.019,0,0.031,0.003,0.037
			l0.381,0.83l0.184-0.037l-0.197-0.861l-0.044-1.785l0.044,0.179l0.271,0.508l-0.012,0.372l0.012,0.287l0.615-0.031
			c-0.019-0.05,0.128-0.736,0.15-0.812c0.012-0.05,0.406-0.057,0.452-0.05c0.138,0.037,0.502,0.153,0.502,0.153
			c-0.003,0.03-0.203,0.758-0.209,0.776l0.577,0.068l0.347-0.986l0.349-0.236l0.094-0.144c0.019,0,0.181,0,0.203-0.016l0.097-0.112
			c0.028-0.025,0.059-0.051,0.072-0.081l-0.278-0.125L31.196,94.272z"/>
		<path fill="#FFFFFF" d="M26.116,93.913l-0.246-0.068l-0.418-0.007c-0.034,0-0.068,0.013-0.096,0.019l-0.478,0.284l-0.749-0.138
			c-0.25,0.057-1.311,0.281-1.342,0.294l-0.437-0.384l-0.19,0.178c0,0,0.087,0.262,0.134,0.287l0.281,0.353
			c0.019,0.007,0.166,0.15,0.19,0.15l0.159,0.668l0.465,0.149c0,0,0.524,0.094,0.452-0.094c-0.065-0.188-0.093-0.762-0.062-0.736
			c0.038,0.043,0.917-0.019,0.917,0.037c0,0.097,0.396,0.73,0.2,0.756l0.505,0.074l-0.05-0.496l0.047-0.384l-0.094-0.434
			l0.197-0.213h0.2l-0.131,2.375l0.19,0.006l0.321-2.437L26.116,93.913z"/>
		<path fill="#FFFFFF" d="M22.652,88.933l-1.039-0.799c-0.05-0.037-0.122-0.037-0.168,0.009l-0.565,0.515
			c-0.025,0.025-0.041,0.056-0.041,0.093v0.936c0,0.05,0.025,0.088,0.065,0.119l0.168,0.087c0.047,0.025,0.097,0.025,0.138-0.006
			l0.73-0.453l0.68-0.281c0.043-0.012,0.078-0.06,0.081-0.103C22.706,89.007,22.693,88.958,22.652,88.933z"/>
		<path fill="#FFFFFF" d="M33.38,88.639c0-0.034-0.009-0.059-0.028-0.084L32.99,88.15c-0.037-0.047-0.093-0.06-0.14-0.035
			l-1.229,0.5c-0.041,0.013-0.075,0.05-0.078,0.1c-0.003,0.044,0.015,0.094,0.053,0.112l0.636,0.44c0.01,0,0.734,0.428,0.734,0.428
			l0.278,0.149c0.037,0.025,0.081,0.025,0.122,0c0.037-0.025,0.056-0.068,0.056-0.112L33.38,88.639z"/>
		<path fill="#FFFFFF" d="M38.551,104.858c0,1.144,0.287,0.796,0.899,1.829c-0.01-0.156-0.012-0.306-0.019-0.455
			c-0.135,1.572-0.818,2.867-1.438,4.316c-0.05,0.132,0.259-0.044,0.331-0.018c0.187-0.188,0.964-1.961,1.073-3.257
			c0.091-1.061,0.163-0.88-0.409-1.848c0,0.144-0.134-0.412-0.125-0.253c0-0.24-0.063-0.012-0.063-0.252
			c0-0.144-0.149-0.617-0.149-0.733L38.551,104.858z"/>
		<path fill="#FFFFFF" d="M17.85,99.278c-0.281,0.371,0.168,0.271-0.112,0.636c-0.128,0.163-0.019,0.366-0.019,1.192
			c0,0.54-0.25,0.446,0.115,2.083c0.112,0.503-0.343,0.827-0.621,1.264c0.037-0.068,0.181-0.056,0.225-0.112
			c0.228-0.364,0.524-0.684,0.593-1.111c0.103-0.598,0.047-1.25,0.153-1.857c0.074-0.415-0.168-0.668-0.212-1.532
			c-0.009-0.228,0.019-0.515,0.165-0.705c-0.043,0.057-0.174,0.043-0.221,0.105L17.85,99.278z"/>
		<path fill="#FFFFFF" d="M25.155,114.656c-0.06,0.649,0.016,1.729-0.046,2.365c-0.01,0.112,0.208-0.168,0.196-0.062
			c0.066-0.637,0.131-1.285,0.197-1.935C25.507,114.917,25.146,114.768,25.155,114.656L25.155,114.656z"/>
		<polyline fill="#FFFFFF" points="29.118,90.674 28.943,89.969 29.221,89.285 30.126,88.505 30.169,87.363 29.864,86.811 		"/>
		<path fill="#FFFFFF" d="M39.057,99.412c0.337,0.483,0.465,0.834,0.765,1.298c-0.043,0.353-0.09,0.706-0.134,1.053
			c-0.025,0.188,0.93,0.644,0.728,0.827c0.265-0.236-0.269-1.91-0.54-2.304c-0.337-0.49-0.68-0.974-1.014-1.473
			c-0.197-0.281-0.453-0.462-0.668-0.696c0.035,0.068,0.043,0.156,0.081,0.222C38.629,98.884,38.76,98.978,39.057,99.412z"/>
		<path fill="#FFFFFF" d="M37.094,97.602c-0.006-0.182,0.712,0.596,0.699,0.408c0.062,0.225,0.275-0.037,0.399,0.106
			c-0.199-0.446-0.199-0.999-0.044-1.507C37.644,96.865,37.109,97.03,37.094,97.602z"/>
		<path fill="#FFFFFF" d="M24.409,88.097c0.038,0,0.141,0.115,0.253,0.252c0-0.106,0.203-0.106-0.007-0.377
			c-0.115-0.162,0.038-0.553,0.1-0.861c-0.062,0.006-0.134,0.006-0.215,0.019C24.166,87.154,24.787,88.059,24.409,88.097z"/>
		<path fill="#FFFFFF" d="M24.781,88.028c0.021,0.013,0.038,0.031,0.059,0.056l0,0l0,0c0.037,0.038,0.075,0.078,0.109,0.115
			c-0.016-0.025-0.034-0.056-0.056-0.078c0.275,0.233,0.674,0.333,1.021,0.453c0.041,0.159,0.116,0.358,0.203,0.586
			c0-0.253-0.021-0.458-0.09-0.546c0.012,0,0.022,0.006,0.034,0.006c-0.065-0.06-0.121-0.109-0.177-0.166
			c0,0.013,0.012,0.038,0.019,0.056c-0.303-0.225-0.706-0.331-1.061-0.465c-0.038-0.043-0.075-0.087-0.115-0.137
			c0,0.031,0.038,0.075,0.078,0.125C24.796,88.028,24.787,88.028,24.781,88.028z"/>
		<path fill="#FFFFFF" d="M26.047,90.979c-0.025-0.168,0.468-0.627,0.627-0.684c-0.119-0.162-0.365-0.665-0.559-1.135
			C26.129,89.794,26.01,90.718,26.047,90.979z"/>
		<path fill="#FFFFFF" d="M15.987,94.078c0.509-1.208,0.281-1.114,0.746-2.243c-0.178,0.315-0.343,0.54-0.543,1.011
			c-0.152,0.378-0.346,0.924-0.399,1.389C15.89,94.104,15.987,93.997,15.987,94.078z"/>
		<path fill="#FFFFFF" d="M15.884,94.234c-0.137,0.144-0.284,0.315-0.287,0.222c0.072,0.425,0.174,0.728,0.274,1.018
			c-0.016-0.266-0.025-0.581-0.041-0.986C15.825,94.415,15.868,94.315,15.884,94.234z"/>
		<path fill="#FFFFFF" d="M15.781,95.474c0.028,0.714,0.046,1.136,0.137,2.353c0.085-0.35,0.169-0.771,0.153-0.993
			C16.037,96.226,15.912,95.866,15.781,95.474z"/>
		<path fill="#FFFFFF" d="M16.758,91.766c-0.01,0.025-0.013,0.038-0.025,0.069c0.034-0.069,0.078-0.144,0.112-0.219
			C16.804,91.679,16.773,91.735,16.758,91.766z"/>
		<path fill="#FFFFFF" d="M15.918,97.827c-0.006,0.028-0.006,0.04-0.009,0.053c0.002,0.007,0.009,0.007,0.016,0.02
			C15.921,97.879,15.921,97.861,15.918,97.827z"/>
		<path fill="#FFFFFF" d="M16.988,91.308c-0.053,0.118-0.097,0.206-0.143,0.309c0.128-0.215,0.349-0.533,0.393-0.643L16.988,91.308z
			"/>
		<path fill="#FFFFFF" d="M18.321,106.066l0.003-0.359c0.016,0.014-0.409-0.386-0.39-0.368c0.415,0.447-0.396,0.963-0.153,1.527
			c0.093,0.212,0.109,0.408,0.1,0.589C18.168,106.853,18.474,106.232,18.321,106.066z"/>
		<path fill="#FFFFFF" d="M29.024,89.547c-0.162,0.409-0.072,0.605,0.031,1.045c0.015,0.062,0.106,0.1,0.125,0.156
			c-0.084-0.328-0.218-0.596-0.087-0.912c0.184-0.477,0.359-0.621,0.752-0.961c0.396-0.346,0.353-0.677,0.378-1.223
			c0.003-0.184,0.031-0.284,0.056-0.384c-0.166,0.384-0.318,0.814-0.446,1.357C29.72,89.083,29.199,89.117,29.024,89.547z"/>
		<path fill="#FFFFFF" d="M33.458,96.409l-0.175-0.071l-0.181,0.233l-0.524,0.961c-0.013,0.02-0.016,0.044-0.013,0.075l0.034,0.83
			l-1.623,1.495l0.49,0.05l0.14,1.389l-0.499,2.077l-0.044-0.06l-0.774,0.527l-0.605,0.081l-2.497-0.821v-1.319l1.351-0.517
			c0.06-0.024,0.104-0.062,0.131-0.122l0.349-0.627c0.01-0.019-0.009-0.044-0.009-0.068c0.009-0.013,0.021-0.013,0.028-0.019
			c0.05-0.051,0.068-0.125,0.056-0.193l-0.399-2.672l-0.2,0.31l0.063,2.146l-3.392,0.006l-0.031-1.935l-0.246-0.024l-0.256,2.181
			c-0.007,0.075,0.018,0.15,0.062,0.2c0,0,0.01,0,0.012,0.006c0.006,0.019-0.009,0.037,0,0.051l0.478,0.729
			c0.031,0.044,0.078,0.087,0.13,0.094l1.373,0.457v1.333l-2.328,0.783l-0.458-0.066l-0.902-0.556l-0.047,0.085l-0.287-1.595
			c0.003,0.016-0.106-1.172-0.106-1.172l-0.078,0.007c-0.006-0.094-0.01-0.15-0.01-0.15l-0.162-0.755l-0.218-0.355l1.17,0.459
			l-1.632-1.314l-0.484-0.961c0.01,0.006-0.608-1.345-0.608-1.345l-0.225-0.256l-0.106,0.05l0.016-0.334l-0.175-0.446l0.022-0.019
			l-0.059-0.094l-0.325-0.855c-0.103-0.446-0.222-0.967-0.222-1.248c0-0.234,0.134-0.446,0.259-0.655
			c0.131-0.2,0.24-0.39,0.24-0.596l-0.215,0.24c0,0.138-0.131,0.056-0.237,0.225c-0.137,0.234-0.291,0.484-0.291,0.786
			c0,0.106,0.019,0.274,0.044,0.44v0.714l0.09,1.308l0.228-0.577c0.003,0.006,0.016,0.031,0.016,0.031l0.003,0.025l0.016,0.019
			l0.038,0.057l0.508,2.028l0.034-0.881l0.608,1.527c0.003,0.019,0.5,1.023,0.5,1.023c0.019,0.025,0.035,0.044,0.056,0.065
			l0.281,0.219c0.138,0.452,0.281,0.936,0.281,0.986c0,0.283,0.181,0.546,0.181,1.582l-0.034,0.972l0.34,0.668
			c0.034,0.199,0.062,0.353,0.062,0.353c0.01,0.043,0.025,0.091,0.06,0.122l1.058,1.254l0.006,0.024l0.087,0.082l1.479,1.757
			c0.046,0.05,0.103,0.084,0.168,0.084l1.323-0.01c0.019,0,0.456,0.196,0.472,0.196l0.914-0.099c0.059,0,0.115,0,0.175,0
			c0.062,0,0.118-0.025,0.188-0.038l0.474-0.057c0.068-0.012,0.187,0.524,0.23,0.469l0.234,0.524
			c0.125,1.111,0.184,1.883,0.094,2.876c-0.025,0.261,0.48,0.792,0.618,0.997c0.274,0.432,0.078,0.812,0.356,1.249
			c0.028,0.05,0.05,0.144,0.059,0.25c0.016-0.281,0.065-0.606,0.053-0.986c-0.006-0.281-0.818-1.261-0.812-1.549
			c0.106-5.222,0.886-5.043,1.161-5.783c0.078-0.199,0.091-0.271,0.078-0.305l0.459-0.612l0.044-0.051l0.009-0.012l0.01-0.021
			c0.016-0.016,0.024-0.035,0.031-0.06l0.618-1.199l-0.037-0.975l0.159-1.647l0.166-0.979l0.508-0.459
			c0.038-0.037,0.06-0.094,0.056-0.144l-0.034-0.874L33.458,96.409z M25.557,100.963l-0.208-0.472l3.03,0.225l-0.103,0.184
			l-1.338,0.516L25.557,100.963z M28.984,106.425l-1.875,0.196l-1.623-0.168l-1.357-1.598l2.605-1.08l3.386,1.164L28.984,106.425z"
			/>
		<path fill="#FFFFFF" d="M34.834,93.049c-0.068-0.396-0.181-0.681-0.19-0.705l-0.159,0.346c0.006,0.012,0.399,0.886-0.063,1.834
			l-0.499,1.005l0.087,0.044c-0.106,0.112-0.181,0.2-0.181,0.2l0.646,2.187l-0.15-2.444l0.252,0.381l-0.059-0.564l0.121-0.571
			c0,0,0.016-0.137,0.06-0.34v-0.007c0.041-0.1,0.065-0.206,0.094-0.312c0.006-0.025,0.016-0.05,0.022-0.075
			c0.021-0.071,0.04-0.14,0.068-0.209C34.994,93.576,34.922,93.267,34.834,93.049z"/>
		<path fill="#FFFFFF" d="M26.101,92.552c-0.006-0.078-0.063-0.165-0.15-0.165c-0.505-0.019-1.08-0.062-1.56-0.075v-0.006
			l-0.032-0.188c-0.059,0.006-0.228-0.025-0.315,0.043c-0.508-0.159-0.802-0.019-0.902,0l-0.415,0.49l-0.303,0.268
			c0.394-0.056,0.702-0.515,0.964-0.349l0.755,0.037c0.187,0.119,0.615-0.1,1.591,0.112l0.153,0.472l0.09,0.156l0.14-0.312
			L26.101,92.552z"/>
		<g>
			<polygon fill="#FFFFFF" points="24.484,102.964 21.651,103.533 24.546,102.662 			"/>
			<polygon fill="#FFFFFF" points="24.075,102.137 21.235,102.072 24.038,101.86 			"/>
			<polygon fill="#FFFFFF" points="24.269,101.2 20.839,100.635 24.3,100.963 			"/>
			<polygon fill="#FFFFFF" points="30.316,103.012 33.144,103.567 30.248,102.706 			"/>
			<polygon fill="#FFFFFF" points="30.95,102.365 33.783,102.293 30.987,102.082 			"/>
			<polygon fill="#FFFFFF" points="30.46,101.572 33.886,100.788 30.429,101.241 			"/>
		</g>
		<polygon fill="#FFFFFF" points="23.642,96.063 24.443,96.014 24.699,96.032 25.249,95.86 25.386,95.723 24.999,95.61 		"/>
		<polygon fill="#FFFFFF" points="30.625,95.963 29.57,95.913 29.118,95.811 28.781,95.907 28.718,95.68 29.371,95.661 		"/>
		<path fill="#FFFFFF" d="M36.788,120.708c0,0.244,0.306,0.481,0.306,0.481s-0.365,0.762-0.449,1.036
			c-0.088,0.293-0.274,1.854-0.428,2.253c-0.159,0.387,0.571-0.836,0.571-0.836l-0.56,2.945l-1.411,11.209
			c-0.138,0.132-2.944,1.422-3.523,1.81c-0.194,0.095-1.59,1.854-1.642,1.829l-6.409-2.803c-0.137-0.062-0.153-0.843-0.153-0.843
			s-0.51,0.244-0.61,0.156c0,0-3.418-2.945-3.428-3.046c-0.01-0.105,1.716-2.721,1.813-2.733l2.378-0.087l-1.991-14.011l0.563-0.649
			l0.552-0.611l1.947,15.259c0.019,0.106,0.234,0.624,0.171,0.705c-0.059,0.075-0.271,0.112-0.371,0.126l-2.887,0.242l-0.996,1.548
			l0.665,0.468l0.687-1.004c0.031-0.05,0.328-0.094,0.387-0.105l0.864-0.163l0.549,0.306l-1.46,0.331l-0.714,0.955l0.639,0.549
			l0.79-0.961c0.032-0.038,0.634-0.131,0.693-0.15l0.412-0.081l0.374,0.193l-1.117,0.399L22.59,135.9l-0.372,0.405l0.662,0.531
			l4.391-1.698l0.075-2.846l0.23-3.37l-0.999-5.691l0.927-3.215l0.319,4.438h0.015l0.612,7.215c0.006,0.012,0.244,1.36,0.244,1.373
			l0.103,2.315c-0.006,0.149-0.103,0.293-0.256,0.337l-4.63,1.592l-0.022,0.493l1.476,0.655l0.143-0.868
			c0.016-0.093,0.784-0.273,0.877-0.305l1.191-0.487l0.858,0.219l-2.459,0.811l-0.137,0.824l-0.065-0.006l1.47,0.661l0.1-0.849
			c0.013-0.094,1.554-0.762,1.638-0.8l0.366-0.186l0.511,0.293l-2.034,0.904l-0.104,0.855l1.358,0.599l0.849-0.998
			c0.025-0.037,0.056-0.068,0.094-0.088l3.539-2.078l2.269-16.021l-0.325-0.443l0.581-1.029l0.968-1.137l1.029,0.7l0.068,0.093
			l-0.651,1.136C37.497,120.235,36.788,120.472,36.788,120.708z M42.593,123.773l-1.938-0.529l-2.141,1.517l-1.566,0.249
			l3.713-1.966l-0.49-0.78l0.359-0.724l-1.12-1.866l0.19-2.097l-1.099,0.805l-1.242-1.055l-0.296,0.644
			c-0.012,0.012-0.306-0.425-0.324-0.412l-2.322,1.947h-0.003l-0.01,0.013l-0.586,0.485c-0.082,0.069-0.203,0.22-0.309,0.2
			c-0.006,0-0.015,0.007-0.025,0.007l-0.016,0.013l-0.016-0.013c-0.078,0.018-0.141,0.056-0.193,0c0,0-0.056-0.1-0.144-0.231
			l-0.146-0.105l-0.706-0.918l-1.286-0.786l0.163,0.668l-0.986-0.381l-0.939-1.367l-1.673,1.798l-0.199,0.243
			c-0.006,0-0.025,0-0.043,0l-0.693,0.612l-0.493,0.075l-0.365,0.324c-0.081,0.049-0.19-0.069-0.291-0.212h-0.059l-0.836-0.906
			l0.012,0.013c-0.012-0.019-0.024-0.019-0.038-0.03l0.01,0.012l-0.01-0.012c-0.212-0.169-0.39-0.319-0.38-0.307l-0.708-0.874
			l-0.399-0.424l-0.303,0.593l-0.258,3.65l-0.327-3.227l-0.189,0.101l-1.51,0.955c-0.112,0.074-0.766-1.205-0.769-1.349
			l-0.078-2.271l-1.738,0.287c-0.1,0.024-0.463-1.167-0.482-1.261l-0.387-2.216c0,0-1.119,0.231-1.16,0.1
			c0,0-2.418-7.062-2.409-7.119l1.058-4.858c0,0-1.279-4.422-1.353-4.427c0,0,2.101-5.36,2.117-5.392l3.467-5.586
			c0.025-0.038,1.927-1.156,1.927-1.156c0.068-0.037,2.049,0.146,2.049,0.146s0.252-1.262,0.358-1.3l1.576-0.819
			c0.162-0.05,0.685,0.306,0.685,0.306s0.412-0.281,0.534-0.306c0.125-0.025,0.596-0.315,0.687-0.228l0.457,0.228l0.304-0.304
			c0.05-0.178,1.752,0,1.752,0c0.1,0.006,0.939,1.123,0.939,1.123s1.613-0.522,1.707-0.429l1.663,1.68l1.693-0.36
			c0.333,0.267,1.043,0.763,1.065,0.932c0.084,0.608,0.352,1.917,0.933,2.463c0.817,0.746,1.303,1.1,1.73,1.466
			c1.195,1.023,0.716,1.212,1.465,1.999c0.603,0.621,0.135,3.32,0.135,6.204c0.225,1.701,0.025,6.193,0.025,6.217
			c0,0,0.05,9.897,0.05,9.91l0.431,0.144c-0.003,0.044-0.01,0.081-0.028,0.118l-0.431,1.043v1.922l1.382,5.068L42.593,123.773z
			 M37.487,116.853L37.487,116.853h-0.003H37.487z M40.084,113.988l0.533-1.448c0,0.013,0-16.692,0-17.084
			c-0.696-2.98-1.389-2.759-1.467-3.639c-0.09-0.999-0.09-0.999-1.104-1.853c-0.3-0.262-0.3-0.446-0.774-0.868
			c0.746,1.17,1.089,2.207,1.492,2.627c0.05,0.044,0.053,0.49,0.025,0.559c-0.243,0.596-0.493,1.208-0.743,1.81
			c0.203,0.546,0.399,1.08,0.593,1.626c0.025,0.062,0.065,0.509,0.019,0.559c-0.15,0.141-0.325,0.246-0.509,0.334
			c0.082-0.266,0.203-0.502,0.365-0.712c-0.218-0.527-0.452-1.08-0.534-1.639c-0.012,0.025-0.019,0.051-0.028,0.069
			c-0.003-0.119-0.006-0.231-0.012-0.344v-0.006c0-0.006,0-0.006,0-0.006c-0.003-0.065-0.003-0.135-0.006-0.203
			c0.006,0.013,0.016,0.031,0.016,0.05c0.022-0.559,0.271-0.695,0.511-1.292c-0.034-0.072-0.259-1.196-0.255-1.033
			c-0.774-0.809-0.281-0.609-1.061-1.426l-0.493-0.35c-0.06-0.062-0.359-0.93-0.599-1.598c-0.633-0.752-0.952-2.197-1.058-2.831
			l-1.339-0.103c-0.868,0.309-2.74,0.599-3.376,2.082c0.038-0.134,0.094-0.253,0.15-0.508c0.234-1.049,1.148-1.792,1.803-1.966
			l-0.985-0.992l-1.53,0.362c-0.143,0.037-0.293-0.012-0.384-0.131l-0.771-1.004l-0.905-0.112l-0.225,0.796
			c-0.034,0.128-0.134,0.228-0.269,0.259c-0.127,0.031-0.265,0-0.358-0.094l-0.48-0.49l-0.324,0.739
			c-0.054,0.134-0.175,0.216-0.312,0.234c-0.14,0.006-0.271-0.056-0.346-0.178l-0.527-0.795l-1.021,0.362l0.012,0.39
			c0,0.025,0.172,0.936,0.109,0.905c0.736,0.353,0.509,0.515,0.961,1.263c0.178,0.293,0.131,0.337-0.059,0.366
			c0.021-0.116,0.037-0.228,0.009-0.291c-0.212-0.571-2.113-0.88-2.886-1.195l-1.224,0.06l-1.229,0.64l-3.507,5.57l-1.742,5.245
			l0.574,2.357c0.15-0.371,0.518-0.378,0.762-1.036c-0.019-0.081-0.109-0.893,0.334-0.144c-0.041,0.175-0.088,0.344-0.122,0.447
			c-0.193,0.526,0.062,0.727-0.024,1.494l-0.119,0.583c0.012,0.044-0.343,0.887-0.346,0.931l-0.771,4.174
			c0.134,0.408,0.867,2.733,0.867,2.742l0.978,3.222l0.44-0.567c0.028-0.037,0.087-0.013,0.121-0.037
			c0.381-0.605,0.438-1.192,0.546-2.34c0.021-0.262,0.212-0.664,0.402-1.073c-0.021,0.381-0.168,0.752-0.199,1.192
			c-0.062,0.936,0.196,2.651,0.178,3.587l0.511,2.608l1.586-0.405c0.109-0.024,0.224-0.006,0.312,0.062
			c0.09,0.062,0.146,0.169,0.152,0.281l0.15,2.977l1.077-0.917c0.621-1.205,1.959-3.9,2.038-5.144
			c0.056-0.86,0.624-1.703,0.577-2.525c-0.044-0.684-0.084-1.36-0.131-2.034c0.006,0.062,0.147,0.54,0.153,0.599
			c0.047,0.727,0.112,1.033,0.156,1.771c0.012,0.25-0.156,0.475-0.23,0.712c-0.238,0.674-0.206,1.317-0.332,2.028
			c-0.193,1.011-0.468,3.502-0.072,4.763c0.496,0.529,0.796,1.173,0.808,1.185l0.887,1.099l0.065,0.019l1.139-0.705l2.119-2.564
			c0.069-0.081,0.262,0.062,0.365,0.049c0.103,0,0.103-0.156,0.178-0.093l0.739,0.687l0.622-0.375
			c0.168-0.111,0.421,0.206,0.533,0.362c0,0,1.501,1.828,1.492,1.811l0.321,0.567l0.524-0.462c0.855-1.847,0.952-2.453,1.099-3.127
			c0.187-0.948,0.767-2.152,0.721-3.12c-0.041-0.886-0.728-1.529-0.802-2.359c-0.06-0.681,0.603-1.31,0.443-1.967
			c-0.961-1.133-2.643-2.865-2.178-2.974c-0.178-0.254,0.109,0.146,0.15,0.205c0.359,0.505,0.643,0.799,0.999,1.301
			c0.359,0.507,0.131-0.093,0.559,0.453c0.184,0.237,0.065,0.443,0.252,0.689c0.147,0.175,0.312,0.353,0.416,0.546
			c0.031,0.044,0.056,0.081,0.081,0.122c-0.016-0.027-0.043-0.054-0.062-0.078c0.068,0.144,0.115,0.303,0.068,0.49
			c-0.247,1.062-0.615,1.424-0.093,2.447c0.437,0.868,0.53,1.505,0.265,2.435c-0.387,1.335,0.19,2.715,0.181,4.119l0.234-0.324
			l1.473-1.155c0.072-0.081-0.022-0.387,0.084-0.387c0.109,0,0.212,0.043,0.278,0.125l0.939,1.298L40.084,113.988z"/>
		<path fill="#FFFFFF" d="M103.901,98.142c0.006,0,0.01,0,0.013-0.013c-0.003-0.007-0.003-0.019-0.009-0.025
			C103.904,98.123,103.904,98.129,103.901,98.142z"/>
		<polygon fill="#FFFFFF" points="96.762,103.311 99.591,103.866 96.696,103.005 		"/>
		<polygon fill="#FFFFFF" points="97.173,102.472 100.016,102.406 97.208,102.188 		"/>
		<polygon fill="#FFFFFF" points="96.974,101.541 100.406,100.975 96.948,101.296 		"/>
		<polygon fill="#FFFFFF" points="90.926,103.341 88.102,103.904 90.995,103.042 		"/>
		<polygon fill="#FFFFFF" points="90.293,102.706 87.459,102.627 90.258,102.416 		"/>
		<polygon fill="#FFFFFF" points="90.795,101.907 87.356,101.119 90.813,101.572 		"/>
		<path fill="#FFFFFF" d="M88.414,87.922l0.705-0.2l0.2-0.203c-0.094-0.093-2.434-0.193-2.549-0.193
			c-0.069-0.006-0.125,0.019-0.175,0.062l-0.596,0.811c-0.043,0.044-0.521,0.256-0.521,0.325l-0.082,1.872l0.106,0.565l0.377-0.427
			c0.006-0.031,0.01-0.044,0.01-0.075l0.081-1.813l0.89-0.818C87.665,87.853,88.323,87.884,88.414,87.922z"/>
		<path fill="#FFFFFF" d="M98.078,87.84c0.137-0.05,0.381-0.193,1.011-0.031l0.89,0.811l0.074,1.813
			c0,0.019,0.006,0.044,0.016,0.056l0.234,0.416l0.228,0.246l0.081-0.203l-0.059-0.571l-0.209-1.276
			c-0.003-0.062,0.094-0.733,0.047-0.777l-1.04-0.961c-0.053-0.043-0.118-0.068-0.187-0.062c-0.25,0.013-1.511,0.093-1.789,0.187
			l0.315,0.309L98.078,87.84z"/>
		<path fill="#FFFFFF" d="M88.423,88.945c0.043-0.025,0.062-0.075,0.056-0.119c0-0.044-0.034-0.082-0.078-0.1l-1.223-0.496
			c-0.05-0.019-0.106-0.006-0.144,0.025l-0.365,0.409c-0.025,0.024-0.034,0.056-0.034,0.081l-0.035,1.099
			c0,0.044,0.022,0.087,0.06,0.119c0.041,0.019,0.084,0.019,0.122,0c0,0,0.278-0.15,0.28-0.156l0.718-0.434
			C87.787,89.373,88.423,88.945,88.423,88.945z"/>
		<path fill="#FFFFFF" d="M100.135,95.289l-0.009,0.278l0.087-0.297l0.009-0.031l0.006-0.019c0.013-0.05,0.375-1.401,0.375-1.91
			c0-0.306-0.16-0.571-0.293-0.789c-0.103-0.172-0.209-0.328-0.209-0.478l-0.085,0.237c0,0.222-0.046,0.169,0.075,0.372
			c0.134,0.2,0.262,0.421,0.262,0.658c0,0.472-0.346,1.761-0.362,1.835L100.135,95.289z"/>
		<path fill="#FFFFFF" d="M100.366,96.294l-0.253,0.49l-1.192,1.654l-0.231,0.721c0.006-0.012-0.79,0.428-0.843,0.54l-0.19,0.384
			l0.684-0.303l-0.246,1.002c0,0-0.006,0.175-0.02,0.431l-0.178,0.907c0.003-0.022-0.196,1.109-0.268,1.51l-0.958,0.533
			l-0.464,0.066l-2.428-0.812l0.103-1.31l1.37-0.448c0.056-0.019,0.103-0.057,0.131-0.106l0.474-0.727
			c0.013-0.013,0-0.025,0.003-0.038c0.003-0.006,0.016-0.006,0.016-0.006c0.046-0.06,0.068-0.128,0.062-0.196l-0.259-2.19
			l-0.249,0.031l-0.028,1.934l-3.392-0.012l0.115-2.425l-0.25-0.037l-0.406,2.674c-0.012,0.075,0.075,0.253,0.084,0.278l0.343,0.64
			c0.028,0.05,0.078,0.087,0.131,0.112l1.357,0.517v1.31l-2.49,0.837l-0.627-0.091l-0.805-0.483l-0.5-2.058l0.122-1.396l0.502-0.05
			l-0.693-0.633l-0.78-1.068l0.046,0.396l-0.19-0.177l-0.068-0.759c0.003-0.031,0.1-0.128,0.09-0.159l-0.54-1.267l-0.172,0.08
			l0.003,0.385l0.35,0.917l-0.041,0.871c0,0.05,0.021,0.108,0.059,0.146l0.578,0.533l0.109,0.905l0.15,1.652l-0.038,0.952
			l0.665,1.313l0.125,0.15l0.68,0.904l0.44,0.698l0.44,0.446l0.455,0.609c0.038,0.049,0.1,0.084,0.172,0.093l0.75,0.082
			c0.056,0.002,0.115,0.028,0.174,0.028c0.066,0,0.112,0,0.162,0l0.933,0.093c0.013,0,0.031,0,0.702,0.038l1.011-0.144
			c0.231-0.072,0.203-0.106,0.25-0.154l1.47-1.75l0.094-0.094l0.003-0.021l1.067-1.27c0.028-0.035,0.044-0.072,0.056-0.11
			l0.059-0.354l0.34-0.668l-0.034-0.971c0-1.034,0.182-1.3,0.182-1.581c0-0.046,0.146-0.53,0.287-0.979l0.271-0.233
			c0.022-0.014,0.041-0.031,0.056-0.057l0.5-1.012c0-0.012,0.234-0.445,0.468-1.036l0.347-0.422l0.387-1.407l0.247,0.628
			l0.097-1.317v-1.021l-0.956,2.54L100.366,96.294z M92.292,101.156l-0.096-0.187l2.681-0.131l0.327,0.33l-1.566,0.49
			L92.292,101.156z M95.092,106.703l-1.625,0.166l-1.882-0.188l-1.133-1.495l3.161-1.045l2.824,0.964L95.092,106.703z"/>
		<path fill="#FFFFFF" d="M86.648,95.773l-0.502-1.012c-0.462-0.93-0.206-1.613-0.2-1.632l-0.028-0.527
			c-0.006,0.019-0.122,0.299-0.184,0.708c-0.087,0.216-0.156,0.515-0.05,0.768c0.025,0.062,0.044,0.125,0.068,0.188
			c0.006,0.075,0.041,0.144,0.056,0.209c0.019,0.057,0.028,0.118,0.044,0.175c0.012,0.025,0.019,0.062,0.031,0.088
			c0.034,0.162,0.047,0.277,0.047,0.277l0.125,0.564l-0.059,0.571l0.247-0.377l0.128,0.942l0.372-0.696c0,0-0.078-0.075-0.184-0.196
			L86.648,95.773z"/>
		<g>
			<path fill="#FFFFFF" d="M89.531,94.487l0.861-0.229c0.025-0.012,0.306,0.025,0.337,0.032l0.69,0.006l0.795-0.353l-0.549-1.161
				c-0.019-0.075-1.367-0.322-1.57-0.188c-0.125,0-0.63,0.05-0.705,0.131l-0.836,0.309l0.43-0.452l0.34-0.434
				c-0.097,0.012,1.476,0.1,1.563,0.05c0.082-0.038,1.545,0.156,1.583,0.181c0.056,0.025-0.568,0.687-0.549,0.749l0.564,0.509
				c0.009,0.019,0.019,0.318,0.019,0.346l-0.062,2.394c0,0.02-0.002,0.031-0.006,0.044l-0.378,0.827l-0.178-0.044l0.19-0.855
				l0.146-1.763l-0.324,0.062L91.8,94.996l0.019,0.627l-0.012,0.274l-0.552,0.041c0.016-0.047-0.156-0.605-0.175-0.681
				c-0.016-0.05-0.356-0.112-0.403-0.1c-0.134,0.037-0.487,0.037-0.487,0.037c0,0.156-0.012,0.887-0.024,0.799l-0.644-0.134
				l-0.203-0.603l0.003-0.427c0,0-0.312,0.012-0.331,0c0,0,0.019-0.409,0.003-0.435L89.531,94.487z"/>
			<path fill="#FFFFFF" d="M94.365,94.129l0.244-0.075h0.415c0.031,0,0.068,0.006,0.09,0.024l0.474,0.274l0.665-0.149
				c0.252,0.062,0.971,0.296,1.005,0.303l0.605-0.153l-0.006,0.428c0,0-0.062,0.069-0.109,0.094l-0.281,0.234
				c-0.016,0.006-0.019-0.069-0.04-0.069l0.021,0.646l-0.493,0.422c0,0-0.324-0.044-0.259-0.113
				c0.146-0.146,0.225-0.705,0.196-0.667c-0.04,0.037-0.939-0.318-0.939-0.269c0,0.093-0.334,0.683-0.334,1.005l-0.552-0.112
				l0.053-0.503l-0.05-0.377l0.097-0.435l-0.194-0.215h-0.196l0.128,2.362l-0.188,0.012l-0.212-2.016L94.365,94.129z"/>
			<path fill="#FFFFFF" d="M94.377,92.765c0.006-0.081,0.131-0.087,0.146-0.168c0.021-0.109,0.64-0.559,0.68-0.559l0.543,0.237
				l0.353,0.05c0.056,0.006,0.24-0.347,0.322-0.281c0.505-0.153,1.488,0.356,1.488,0.356l-0.24,0.471
				c-0.041-0.038-0.574-0.218-0.574-0.218c-0.041,0-1.111,0-1.071,0l-0.74-0.125c-0.184,0.125-0.355,0.137-0.658,0.331l-0.082,0.742
				l-0.05,0.3l-0.203-0.05L94.377,92.765z"/>
			<polygon fill="#FFFFFF" points="95.934,96.15 96.842,96.385 95.716,96.231 95.055,96.125 95.055,95.897 95.551,95.86 			"/>
			<polygon fill="#FFFFFF" points="89.981,96.281 91.428,96.263 91.731,96.014 91.766,95.873 91.316,95.873 91.06,96.132 			"/>
		</g>
		<path fill="#FFFFFF" d="M98.677,88.206l-1.136,0.545c-0.053,0.019-0.081,0.075-0.078,0.125c0,0.05,0.031,0.094,0.081,0.112
			l0.687,0.278l0.728,0.465c0.043,0.025,0.096,0.025,0.134,0l0.178-0.093c0.041-0.019,0.065-0.072,0.065-0.116v-0.936
			c0-0.044-0.024-0.087-0.065-0.112l-0.474-0.262C98.759,88.193,98.715,88.187,98.677,88.206z"/>
		<path fill="#FFFFFF" d="M94.739,107.923c0.022-0.048,0.15,0.549,0.15,0.549c0.25,0.399,0.549,1.197,0.549,1.296
			c0.1,0.2,0.1,0.999,0.2,1.699c-0.022-0.407,0.234-1.792,0.2-1.898c-0.2-0.646-0.799-1.187-0.799-1.296
			c0-1.103,0.521-1.348,0.399-1.348C95.389,106.925,94.889,107.624,94.739,107.923z"/>
		<path fill="#FFFFFF" d="M90.414,88.168c0.016,0.012,0.028,0.031,0.047,0.043c0,0,0,0,0,0.006h0.006
			c0.025,0.025,0.05,0.05,0.084,0.087c-0.019-0.019-0.041-0.05-0.06-0.069c0.219,0.2,0.394,0.416,0.636,0.49
			c0.169,0.472,0.272,1.261,0.403,1.707c0.019,0.069,0.284-0.465,0.299-0.402c-0.099-0.35-0.299-1.148-0.524-1.438
			c0.006,0,0.013,0.006,0.019,0.006c-0.047-0.043-0.1-0.094-0.144-0.144c0.006,0.019,0.022,0.038,0.025,0.056
			c-0.234-0.199-0.512-0.256-0.765-0.337c-0.024-0.046-0.05-0.078-0.087-0.128c0.009,0.032,0.041,0.075,0.075,0.122
			C90.424,88.168,90.42,88.168,90.414,88.168z"/>
		<path fill="#FFFFFF" d="M90.155,87.834c0.022-0.006,0.112,0.094,0.2,0.212c-0.022-0.1,0.115-0.118-0.065-0.362
			c-0.109-0.141,0.056-0.69,0.041-1.002c-0.035,0.019-0.047,0.082-0.1,0.1C89.993,86.852,90.386,87.766,90.155,87.834z"/>
		<path fill="#FFFFFF" d="M95.142,87.828c-0.702,0.818-1.301,0.696-1.301,0.596c0-0.05,0.268,0.546,0.252,0.602l0.402-0.502
			c0.1,0.203,0.459-0.237,0.674-0.483c0.188-0.225,0.115-0.409-0.031-0.571C95.198,87.606,95.226,87.734,95.142,87.828z"/>
		<path fill="#FFFFFF" d="M95.005,86.86c0.277-0.252,0.265-1.95,0.368-1.95c0.081,0-0.203-0.773-0.225-0.905
			c-0.19,0.537,0.153,2.497-0.115,2.684C94.983,86.729,95.001,86.798,95.005,86.86z"/>
		<path fill="#FFFFFF" d="M94.986,87.17c-0.109-0.24-0.312-0.49-0.331-0.662c-0.032,0.025-0.05,0.062-0.088,0.082
			C94.333,86.729,94.758,86.917,94.986,87.17z"/>
		<path fill="#FFFFFF" d="M83.296,105.358c0.006,0.359,0.009,0.799,0.009,0.708c0.081,0.908,0.343,1.199,0.662,1.558
			c-0.303-0.687-0.568-1.373-0.627-2.091C83.337,105.466,83.312,105.414,83.296,105.358z"/>
		<path fill="#FFFFFF" d="M103.086,92.478c0.468,1.148,0.247,1.049,0.746,2.253c0-0.081,0.103,0.025,0.2,0.153
			c-0.056-0.459-0.247-1.012-0.399-1.383C103.436,93.024,103.265,92.796,103.086,92.478z"/>
		<path fill="#FFFFFF" d="M102.594,91.588c0.046,0.125,0.278,0.531,0.418,0.793c-0.05-0.106-0.097-0.219-0.153-0.355L102.594,91.588
			z"/>
		<path fill="#FFFFFF" d="M81.674,99.015c-0.053,0.088,0.106-1.11,0.222-1.632c-0.453,2.153-1.645,3.215-1.442,3.052
			C81.502,99.599,81.636,99.079,81.674,99.015z"/>
		<path fill="#FFFFFF" d="M81.982,96.834c0.019-0.1,0.274-1.501,0.274-1.601c0-0.2,0.1-0.484,0.456-0.855
			c0.041-0.037,0.053-0.094,0.084-0.144c-0.208,0.156-0.474,0.278-0.674,0.471C81.898,94.918,82.061,96.615,81.982,96.834z"/>
		<path fill="#FFFFFF" d="M83.49,89.729c0,0-0.255,0.112-0.465,0c0.103,0.181,0.065,1.373-0.116,1.373
			c-0.053,0-0.811,1.979-0.767,2.003c0.34,0.219,0.521,0.446,0.624,0.696c-0.006-0.353,0.262-1.08-0.038-1.345
			C82.495,92.84,83,91.458,83,91.554L83.49,89.729z"/>
		<path fill="#FFFFFF" d="M101.941,107.71c0.019,0.381,0.168,0.74,0.2,1.192c0.074,1.128,0.461,2.838,0.486,3.962
			c0,0.043,0.599-1.137,0.599-1.099c-0.418-0.637-0.765-1.785-0.877-2.997C102.319,108.528,102.135,108.116,101.941,107.71z"/>
		<path fill="#FFFFFF" d="M102.488,103.904c-0.097-0.431-0.431-0.54-0.821-1.323c-0.106-0.189-0.191-0.474-0.128-0.708
			c-0.019,0.071-0.15,0.119-0.169,0.196l-0.053,0.062c-0.116,0.449,0.278,0.169,0.156,0.63c-0.05,0.203,0.849,1.104,1.001,1.299
			c0.281,0.368,0.299,1.205,0.415,1.645c0.122,0.502,0.003,0.896-0.09,1.426c0.009-0.077,0.156-0.131,0.174-0.212
			c0.069-0.412,0.228-0.837,0.128-1.248C102.956,105.081,102.631,104.494,102.488,103.904z"/>
		<path fill="#FFFFFF" d="M106.576,99.439c0,0-0.723-4.95-0.772-5.019l-2.203-4.688l-1.398-2.946
			c-0.034-0.118-0.88-1.41-0.999-1.448l-2.197-0.1l-0.6-1.747c-0.043-0.088-1.205-0.331-1.298-0.3l-0.948,0.15l-0.85-0.799
			c-0.115-0.094-0.667,0.031-0.798,0.1l-0.649,0.05l-0.5-0.549c-0.15-0.131-1.089,0.038-1.398,0l-0.499,0.5h-0.799l-0.799,0.299
			c-0.2,0-0.549,0.45-0.699,0.649l-0.799,0.15c0,0-0.63-0.15-0.699-0.05c-0.068,0.1-0.886,0.586-0.849,0.699l-1.348,0.799
			c0,0-1.997,1.011-1.997,1.198l-0.899,2.746c-0.078,0.038-1.117,1.067-1.148,1.148l-0.5,0.699l-0.859,2.722
			c-0.025,0.056-0.138,0.521-0.138,0.521l0.144,18.978c0,0.081,0.019,0.151,0.062,0.213l1.064-0.53l-0.112,0.742
			c0.013,0.112,0.665,0.799,0.671,0.968c0.003,0.112,0.041,0.212,0.146,0.168l1.133,2.21l0.977-0.175
			c-0.24,0.057,0.365-0.194,0.477-0.182c0.116,0.013,0.334-0.086,0.416-0.174l1.495-0.612l0.571,2.01
			c0.025,0.062,0.065,0.132,0.125,0.181l1.342,0.774c0.106,0.068,0.281,0.35,0.409,0.306l1.485-0.6l0.939,0.73
			c-0.277-0.312,0.16,0.169,0.39,0.094c0.112-0.044,0.237,0.231,0.296,0.138l0.893-1.561l1.267,1.117
			c0.131,0.125,0.502,0.031,0.652-0.088l1.544-0.924l1.719,0.787l-2.078,13.823c-0.013,0.095-0.013,0.338,0.078,0.294
			c0.122-0.075,0.556,0.068,0.658,0.081l2.687,0.193l1.114,1.491l-0.594,0.588l-0.829-1.08c-0.04-0.057-0.096-0.095-0.156-0.1
			l-0.78-0.119l-0.431,0.324l0.999,0.243l0.687,0.943l-0.586,0.705l-0.63-0.849c-0.038-0.068-0.097-0.106-0.162-0.106l-0.949-0.262
			l-0.484,0.287l1.223,0.437l0.583,0.867l-0.655,0.618l-1.267-0.456l-4.104-2.358l0.284-4.793l1.046-4.618l-0.622-4.932
			l-0.309,4.188l-0.862,7.002c0,0.037-0.596,1.91-0.596,1.941l0.556,1.916c0.012,0.149,0.512,0.612,0.652,0.655l3.052,1.179
			l0.55,1.111l-0.952,0.425l-0.424-0.943c-0.025-0.068-0.078-0.112-0.14-0.137l-1.455-0.543l-0.564,0.355l1.747,0.631l0.378,0.849
			l-1.152,0.518l-0.402-0.754c-0.028-0.044-0.066-0.095-0.119-0.119l-1.442-0.618l-0.415,0.35l1.573,0.699l0.418,0.568l-1.214,0.598
			l-4.862-2.751l-2.082-16.221l-0.309,0.024l0.134-1.229l-0.924-1.042l-1.276-0.475l1.126,1.773l-0.24,0.492
			c0,0,0.378,0.088,0.378,0.331c0,0.23-0.1,0.656-0.1,0.656s0.23,0.767,0.328,1.041c0.078,0.193,0.171,0.544,0.269,0.899l0.25,1.622
			l-0.115,0.337l-0.033,0.649l1.466,11.346c0.019,0.107,0.676,0.868,0.772,0.93l3.728,2.348c0.265,0.105,1.49,0.637,1.599,0.586
			c0,0,5.292-2.609,5.249-2.702l0.078-0.692c0,0,0.594,0.393,0.694,0.305c0,0,3.621-3.307,3.553-3.382c0,0-1.603-2.546-1.699-2.559
			l-2.779-0.387l2.083-12.352l0.154-0.773c0.1,0.049,0.212-0.718,0.309-0.773c0.107-0.051,0.442-0.582,0.464-0.694l0.542-1.316
			h0.694c0.087-0.024,0.802,0.013,0.849-0.074c0.599-1.087,0.868-2.646,1.158-2.777c0.047,0.037,0.75-0.905,0.851-1.006
			c0.187-0.186,0.743-0.511,0.849-0.773c0.406-0.985,1.192-4.173,1.157-4.242c-0.097-0.196-0.969-5.093-1.003-5.25L106.576,99.439z
			 M104.775,105.078c0,0-0.031,2.908-0.128,3.012c-0.044-0.022-0.4,1.126-0.771,2.079c-0.097,0.25-0.809-1.812-0.899-1.599
			c-0.191,0.465,0.24,3.021,0.187,2.971c-0.087-0.073-1.227,1.967-1.769,2.934l-1.064-0.312c-0.237-1.759-0.711-2.134-1.064-3.257
			c-0.215-0.674,0.805-1.854,0.687-2.558c-0.034-0.243-0.006-0.937-0.137-1.148c-0.325-0.542-0.521-0.512-0.805-0.897
			c0.178,0.417,0.353,0.836,0.512,1.107c0.418,0.695-0.936,2.716-0.586,3.496c0.546,1.248,0.59,2.989,0.677,4.476
			c0,0-0.068,0.225-0.09,0.361l-0.546,1.268l-3.045,0.28c-0.231-0.106-0.39,0.144-0.497,0.231l-0.755,0.998l-1.183-0.956
			c-0.337-0.168-0.009-0.673-0.128-0.661c-0.003,0-0.171-0.593-0.171-0.593c0.043-0.955-0.047-0.792,0.035-2.035
			c0.021-0.349-0.487-1.098-0.622-1.378c-0.159-0.362-0.34-1.168-0.203-2.065c-0.153,0.511-0.274,1.005-0.268,1.347
			c0.009,0.395,0.761,1.772,0.817,2.16c0.079,0.6-0.751,1.241-0.595,2.715c0.002,0.037-0.706,1.104-0.68,1.447l0.181,0.48
			l-1.286-1.541c-0.106-0.105-0.876,0.675-1.021,0.73l-0.792,0.156l-1.476-0.818l-0.343-1.953c-0.128-0.094-0.269,0.119-0.39,0.094
			c-0.131-0.025-0.574-0.038-0.668,0.05c0,0-1.201-2.31-1.167-3.089c0.038-0.886,0.262-1.549,0.337-2.378
			c0.057-0.688-0.649-1.344-0.439-2.009c0.075-0.096,0.14-0.199,0.218-0.28c0.184-0.231,0.209-0.196,0.402-0.437
			c0.443-0.568-0.266,0.866,0.303,0.062c0.2-0.277-0.699-1.406-0.83-1.22c0,0,0.403,1.063-0.296,2.095
			c-0.203-0.375-0.409-0.612-0.596-0.818c0.168,0.375,0.337,0.746,0.508,1.104c-0.021,0.094-0.028,0.188-0.002,0.303
			c0.256,1.057,0.618,1.405,0.1,2.448c-0.434,0.849-0.53,1.498-0.268,2.427c0.38,1.299-0.318,2.229-0.546,2.541l0.134-0.312
			c-0.094-0.161-0.206-0.637-0.384-0.568l-0.977-1.628c0,0-0.197-2.466-0.45-2.446l-0.905,0.936l-0.082-0.892
			c0.075-0.3,0.084-0.331,0.222-0.855c-0.15,0.225-0.28,0.337-0.35,0.38l-0.131-16.851c0-0.019-0.003-0.024-0.003-0.043
			l-0.018-0.163l1.267-1.859v-0.904c0.181,0.093,0.458-0.728,0.624-0.646c-0.122-0.2,1.058-0.658,0.933-0.864l0.135-0.599
			l0.745-2.032c0,0,2.347-1.289,2.406-1.382c0.062-0.1,0.973-0.714,0.973-0.714l0.79-0.15c0.106,0,0.206,0.159,0.343,0.415
			l0.23-0.025c0.396-0.109,0.749,0.094,1.033,0.758c0.031,0.075,0.337,0.187,0.35,0.3c0.115-0.032,0.35,0.449,0.35,0.299
			s-0.45-0.849-0.55-1.298c0.025,0.019-0.188-0.431-0.299-0.55l0.35-0.798l0.868-0.216c0.15,0.088,0.811,0.256,0.929,0.131
			l0.2-0.599l0.599-0.131c0.115,0.094,0.599,0.661,0.733,0.599l0.961,0.11l0.165,0.13c0.181,0.347,0.44,0.728,0.518,1.03
			c0.059-0.15,0.125-0.296,0.193-0.434l0.15,0.131c0.106,0.09,0.25,0.109,0.38,0.059l1.161-0.53l0.708,1.479
			c0.044,0.106-1.417,0.534-1.316,0.534l1.572-0.06l2.559,0.328c0.006,0.038,1.401,2.747,1.423,2.777l2.556,5.258
			c0,0,0.471,2.209,0.477,2.253l0.19,2.407c-0.517-0.244-0.836,1.298-0.998,0.836c0.016-0.106-0.999-3.062-1.548-3.661
			c0.044,0.181,0.871,2.397,0.899,2.497c0.174,0.472-0.25,2.512,0.3,3.194C104.026,102.076,104.709,104.609,104.775,105.078z"/>
		<path fill="#FFFFFF" d="M81.549,106.587c0.125-0.839-0.128-1.123,0.156-1.931c1.292-3.713,2.119-4.951,2.119-4.951
			s-0.471-0.125-0.512,0.037c-0.88,3.611-0.175,2.963-0.836,3.937C81.814,104.657,81.549,106.587,81.549,106.587z"/>
		<g>
			<g>
				<path fill="#FFFFFF" d="M77.592,94.721l-1.585-0.63l0.159,0.05l0.618-0.212l0.04-1.08l-2.2-0.574l0.116-0.336l-0.041-0.088
					l-2.54-0.15l-0.293,1.005l3.379,0.418l-7.018-0.156l0.421-0.88l-0.902-1.124l-1.096-0.081l-0.315,0.384l-0.546,0.072l-0.1,0.705
					l-0.272,0.752l0.178-0.112l0.144,0.571l-2.069-1.591l-0.68,0.312l-0.184,0.527l2.783,2.006l-0.43,0.443l-0.958,0.013
					l-0.268,0.334l0.166,0.677l3.648-0.618l0.215-0.28l4.974-0.374l0.206,0.437l-0.833,0.165l-0.272,0.658l3.146-0.562l-0.022-0.418
					h-0.053l1.068,0.603l-0.388,0.222l0.134,0.38l1.326,0.119L77.592,94.721L77.592,94.721z M77.567,95.832l-0.156,0.571
					l-0.989-0.284l-0.343-0.178l0.365-0.396l-0.138-0.33l-0.59-0.226l0.119-0.062l-0.546-0.13l-0.31-0.412l-0.331,1.254
					l-2.759,0.431l0.156-0.621l1.495-0.203l-0.434-0.586l0.022-0.318l1.077-0.338l-5.979,0.931l-0.265-0.562l-0.375,0.802
					l-3.357,0.658l-0.131-0.405l0.24-0.269l0.986-0.146l0.608-0.652l-1.588-0.837l-0.893-0.674l0.281-0.131l-0.727-0.274
					l0.134-0.381l0.649-0.231l1.292,1.354l0.443,0.019l0.049-0.696l0.325-0.234l-0.056-0.798l0.524-0.044l0.393-0.405l0.936,0.119
					l1.002,1.503l-0.262,0.094l-0.318,0.842l-0.372,0.138l0.372-0.559l7.688,0.078l-0.021-0.156L72.172,92.6l-0.013-0.131
					l0.303-0.662l2.043,0.231l-0.303,0.231l-1.008-0.156l-0.075,0.038l0.024,0.068l3.605,0.75l-0.106,0.939l-1.226-0.138
					l0.262,0.172l-0.1,0.162l1.569,0.583l0.627,0.19L77.567,95.832z"/>
				<polygon fill="#FFFFFF" points="67.113,94.091 66.439,93.561 66.14,93.654 66.002,93.254 65.644,93.08 65.844,93.164 
					66.14,93.91 66.442,93.717 66.745,94.141 67.167,94.234 67.485,93.776 67.697,93.698 67.587,93.754 67.275,93.561 
					67.113,94.091 				"/>
			</g>
			<g>
				<path fill="#FFFFFF" d="M77.592,99.92l-1.585-0.63l0.159,0.05l0.618-0.213l0.04-1.079l-2.2-0.574l0.116-0.337l-0.041-0.091
					l-2.54-0.149l-0.293,1.008l3.379,0.412l-7.018-0.15l0.421-0.883l-0.902-1.12l-1.096-0.081l-0.315,0.38l-0.546,0.075l-0.1,0.705
					l-0.272,0.75l0.178-0.113l0.144,0.568l-2.069-1.585l-0.68,0.309l-0.184,0.528l2.783,2.007l-0.43,0.442l-0.958,0.013
					l-0.268,0.334l0.166,0.678l3.648-0.615l0.215-0.284l4.974-0.371l0.206,0.438l-0.833,0.162l-0.272,0.661l3.146-0.562
					l-0.022-0.421h-0.053l1.068,0.603L75.788,101l0.134,0.38l1.326,0.122L77.592,99.92L77.592,99.92z M77.567,101.028l-0.156,0.571
					l-0.989-0.283l-0.343-0.182l0.365-0.393l-0.138-0.331l-0.59-0.225l0.119-0.06l-0.546-0.135l-0.31-0.408l-0.331,1.255
					l-2.759,0.424l0.156-0.618l1.495-0.202l-0.434-0.587l0.022-0.321l1.077-0.331l-5.979,0.931l-0.265-0.562l-0.375,0.799
					l-3.357,0.658l-0.131-0.405l0.24-0.265l0.986-0.15l0.608-0.648l-1.588-0.837l-0.893-0.674l0.281-0.131l-0.727-0.278l0.134-0.377
					l0.649-0.234l1.292,1.358l0.443,0.019l0.049-0.699l0.325-0.23l-0.056-0.802l0.524-0.041l0.393-0.409l0.936,0.122l1.002,1.501
					l-0.262,0.097l-0.318,0.84l-0.372,0.137l0.372-0.558l7.688,0.077l-0.021-0.152l-3.614-0.487l-0.013-0.138l0.303-0.655
					l2.043,0.23l-0.303,0.232l-1.008-0.16l-0.075,0.041l0.024,0.069l3.605,0.748l-0.106,0.937l-1.226-0.138l0.262,0.172l-0.1,0.166
					l1.569,0.58l0.627,0.193L77.567,101.028z"/>
				<polygon fill="#FFFFFF" points="67.113,99.291 66.439,98.756 66.14,98.853 66.002,98.448 65.644,98.279 65.844,98.361 
					66.14,99.109 66.442,98.913 66.745,99.34 67.167,99.434 67.485,98.971 67.697,98.894 67.587,98.954 67.275,98.756 
					67.113,99.291 				"/>
			</g>
			<g>
				<path fill="#FFFFFF" d="M77.592,105.109l-1.585-0.628l0.159,0.05l0.618-0.215l0.04-1.074l-2.2-0.582l0.116-0.328l-0.041-0.091
					l-2.54-0.147l-0.293,0.999l3.379,0.419l-7.018-0.157l0.421-0.882l-0.902-1.116l-1.096-0.084l-0.315,0.39l-0.546,0.068
					l-0.1,0.707l-0.272,0.749l0.178-0.115l0.144,0.57l-2.069-1.585l-0.68,0.309l-0.184,0.528l2.783,2.004l-0.43,0.448l-0.958,0.004
					l-0.268,0.34l0.166,0.674l3.648-0.614l0.215-0.282l4.974-0.377l0.206,0.44l-0.833,0.162l-0.272,0.658l3.146-0.564l-0.022-0.415
					h-0.053l1.068,0.603l-0.388,0.221l0.134,0.375l1.326,0.121L77.592,105.109L77.592,105.109z M77.567,106.219l-0.156,0.567
					l-0.989-0.284l-0.343-0.177l0.365-0.394l-0.138-0.324l-0.59-0.234l0.119-0.056l-0.546-0.141l-0.31-0.403l-0.331,1.252
					l-2.759,0.428l0.156-0.615l1.495-0.205l-0.434-0.588l0.022-0.315l1.077-0.342l-5.979,0.933l-0.265-0.559l-0.375,0.799
					l-3.357,0.658l-0.131-0.405l0.24-0.266l0.986-0.146l0.608-0.652l-1.588-0.84l-0.893-0.668l0.281-0.134l-0.727-0.278l0.134-0.374
					l0.649-0.236l1.292,1.357l0.443,0.021l0.049-0.702l0.325-0.236l-0.056-0.796l0.524-0.035l0.393-0.41l0.936,0.118l1.002,1.5
					l-0.262,0.097l-0.318,0.839l-0.372,0.145l0.372-0.565l7.688,0.078l-0.021-0.156l-3.614-0.483l-0.013-0.134l0.303-0.656
					l2.043,0.231l-0.303,0.225l-1.008-0.159l-0.075,0.04l0.024,0.075l3.605,0.742l-0.106,0.939l-1.226-0.14l0.262,0.178l-0.1,0.162
					l1.569,0.584l0.627,0.188L77.567,106.219z"/>
				<polygon fill="#FFFFFF" points="67.113,104.481 66.439,103.95 66.14,104.042 66.002,103.641 65.644,103.469 65.844,103.551 
					66.14,104.297 66.442,104.11 66.745,104.531 67.167,104.628 67.485,104.163 67.697,104.09 67.587,104.148 67.275,103.95 
					67.113,104.481 				"/>
			</g>
		</g>
		<path fill="#FFFFFF" d="M96.534,117.875l-1.289,0.399l-0.659,0.287l-1.551-0.948l-1.158,1.636l-1.286-1.411l-1.525,0.893
			l-1.764-0.985l-0.814-2.017l-2.291,0.768l-0.955,0.118l-1.245-3.875l-1.164-0.337V90.687c1.323-3.392,3.055-5.745,4.56-7.945
			c1.763-2.556,4.326-5.325,4.326-5.325c-1.101-1.354-1.974-2.396-2.129-2.396c-0.112,0.006-1.964,1.306-2.796,1.93
			c-0.799,0.599-3.479,2.707-4.727,2.463c-0.019,0-0.91-0.028-1.531-0.334c-2.886-1.257-2.746-1.83-2.846-2.429
			c-0.026-0.161-0.132-1.058-0.282-1.099l-0.799-0.399l0.265-5.459c0-0.044-0.056-0.827-0.065-0.864l-3.196-11.251v-4.394
			c0-0.037-0.054-2.626-0.066-2.664l-2.397-8.787c-0.009-0.031-0.58-1.433-0.599-1.463l-1.798-2.73
			c-0.044-0.075-0.448-0.507-0.532-0.532l-2.596-0.931c-0.112-0.044-0.7,0.331-0.799,0.399l-0.999,0.465l-3.13,1.198
			c-0.046,0.019-0.562,0.496-0.599,0.533l-1.064,0.798l-1.732,0.599c-0.222,0.074-1.591,0.735-1.591,0.735
			c-0.097,0.043-0.175,0.112-0.222,0.203c-0.041,0.094-0.044,0.203-0.003,0.303l0.486,1.158c0.009,0.019,0.666,0.799,0.666,0.799
			l0.477,0.392c-0.106,0.081-0.162,0.196-0.162,0.325c0.003,0.125,0.948,1.214,0.948,1.214c0.06,0.031,0.798,0.399,0.866,0.399
			l2.13,0.133l0.066,1.465l-0.532,1.131l-1.797-0.465c0,0-6.073-5.684-6.191-5.659c0,0-2.197,0.467-2.264,0.467l-0.999,0.731
			c-0.041-0.012-1.959,0.325-1.959,0.325c-0.181,0.028-1.12,0.223-1.127,0.397l-0.131,1.854l-1.457,0.158
			c-0.044,0.103-1.238,2.986-1.19,3.086l1.653,2.581l0.133,4.568l-0.529-0.331c-0.168-0.118-2.169,2.397-2.119,2.515l1.721,5.361
			l-1.588,2.186c-0.097,0.131,0.184,0.92,0.265,1.058l2.713,3.907l0.12,7.584c-0.615,0.368-1.281,0.762-2.197,0.899
			c-1.333,0.199-2.988-0.949-4.798-2.244c-0.895-0.646-2.979-2.25-3.091-2.25c-0.156,0-2.565,2.236-2.443,2.373
			c0.053,0.072,6.438,7.313,9.042,13.311v25.642c0.003,0.006,0.016,0.486,0.016,0.486c0.066,2.054,0.144,4.075,1.917,6.696
			l-1.386-0.637c-0.109-0.043-0.231-0.043-0.337,0.013l-3.367,1.892c-0.097,0.05-0.162,0.144-0.188,0.249l-1.633,7.553
			c-0.025,0.143-0.134,1.061,0,1.142l7.586,4.762l-2.551,0.137l-2.752-2.221c-0.134-0.106-0.936-0.225-1.074-0.132l-3.49,2.353
			c-0.166,0.112-0.512,0.706-0.403,0.868l0.403,0.943c0.05,0.068,1.867,2.595,1.945,2.614l2.752,0.812l-1.141,1.142
			c-0.1,0.094-0.309,0.531-0.268,0.668c0.034,0.131,0.338,0.968,0.469,1.005l3.222,1.074c0.078,0.012,1.069-0.432,1.141-0.47
			l2.819-1.342l9.867,0.943c-0.015,0,6.914,0.53,6.914,0.53c0.16,0.031,0.893,0.736,0.967,0.587l3.794-0.531l11.983-1.466
			c0,0,2.902,1.766,2.996,1.734l4.893-2.202c0.128-0.051-1.432-1.592-1.432-1.592l2.596-0.868c0.084-0.024,0.457-0.53,0.51-0.605
			c0,0,1.414-3.713,1.48-3.713l-4.027-2.821c-0.138-0.087-3.398,2.678-3.398,2.678l-3.046,0.08c0,0,7.847-4.854,7.816-5.004
			l-1.532-7.857c0-0.306-0.309-1.205-0.399-1.261l-4.1-2.078l0.705-0.456l-0.05-0.849l1.077-3.077l-0.265-1.467l-0.069-2.665
			l0.858-0.075l1.108,2.847l2.029-0.038l1.329-0.056l0.593,1.704l0.905,0.262l0.92,0.687l0.755-0.443l0.936-0.798l1.14,1.316
			l0.621,0.605l0.927-1.948l1.517,1.543l1.595-1.305l1.464,0.63l0.162,1.012l0.199,1.204l0.343-2.416L96.534,117.875z
			 M59.418,44.502l-2.581-0.015l-0.827-0.524l0.334-0.225c0.118-0.087,0.184-0.225,0.162-0.368
			c-0.019-0.137-0.122-0.259-0.256-0.303l-0.905-0.296l-0.328-0.549l-0.184-0.475c0.144-0.13,0.266-0.362,0.356-0.605l0.159-0.053
			c-0.021,0.006,2.15-0.602,2.15-0.602c0.06-0.016,0.116-0.044,0.162-0.087l1.379-1.323l3.174-1.397
			c0.028-0.007,0.377,0.118,0.405,0.099l0.812-0.542l2.175,0.736l2.041,2.814l1.03,3.77c-3.058-0.798-6.176,0.038-7.767,0.899
			c-0.284,0.15-1.005,0.624-0.924,0.571l-0.203-1.227C59.749,44.63,59.596,44.502,59.418,44.502z M50.028,43.476l5.732,5.031
			c0.044,0.037,0.864,0.599,0.92,0.617l1.842,0.368c0.171,0.038,0.777-0.243,0.854-0.393l0.874-1.429
			c0.028-0.05,0.025-0.113,0.025-0.163c0.019-0.025,0.031-0.031,0.047-0.049c-0.006,0.012-0.013,0.012-0.013,0.012
			c2.406-2.178,7.371-1.916,8.807-1.482l0.271,0.83c-0.003-0.006,1.114,3.566,1.217,3.907l-0.097,6.456
			c0,0.038,0.216,1.264,0.228,1.308l2.983,10.903l-0.187,6.157l-0.793-0.228c-0.181-0.056-0.368,0.037-0.446,0.208
			c-0.365,0.846-1.894,2.097-5.28,1.607c-2.655-0.383-4.06-4.581-4.312-5.929c-0.072-0.406-4.082-0.502-4.25,0.044
			c0.002-0.019,0-0.038,0.002-0.05c-0.009,0.068-0.028,0.162-0.04,0.237c0,0-1.208-1.074-1.033-2.768
			c0.13-1.251,1.033-2.506,2.281-3.349c0.427-0.287,1.367-0.78,2.256-0.792c1.876-0.025,4.085,1.282,4.085,1.282
			s0.084-0.427,0-0.502c-0.702-0.602-1.81-1.057-2.396-1.229c-3.283-0.98-5.243,1.329-5.243,1.329l-0.502-2.715
			c0.012-0.593,0.203-3.264,0.203-3.264l0.149-2.413l5.412,0.64c0.087,0.009,0.508-0.347,0.586-0.403l2.384-1.492
			c0.031-0.028,0.06-0.053,0.082-0.081l0.78-0.952l1.561-0.852l-0.162,0.543l0.072,0.455l0.174,0.524l0.303-2.674l-0.066-0.353
			l-0.274-0.219l-0.29-0.23l-2.643,3.242l-2.553,1.726l-4.855-0.5l-2.106-0.068l-8.869-1.504l-0.818-2.193l1.268,0.112l4.138,0.109
			l1.707-0.153l-1.451-0.05l-3.851-0.122l-1.732-0.075l1.055-0.721l5.07,0.315v0.038l5.227-0.087c0.085,0,0.166-0.031,0.234-0.087
			l2.696-2.559l2.503-0.836l-0.275-0.062l-0.427-0.068l-1.819,0.352c-0.035,0.013-0.069,0.032-0.097,0.056l-2.961,2.456l-3.136,0.05
			l-1.033-0.3l-1.073-1.03l-2.793-3.314c-0.046-0.044-0.106-0.087-0.321,0.128l-1.367-0.64l-0.059-2.25L50.028,43.476z
			 M53.703,74.229c-0.041,0.006-1.942,1.236-1.968,1.335c-0.031,0.103,0.281,1.124,0.281,1.124c-1.136-0.025-1.34-0.337-1.546-0.702
			l-0.07-5.834l2.108-1.899c0.062-0.068-0.07-3.303-0.07-3.303c0-0.106-2.319-1.897-2.319-1.897l-0.07-6.748l6.816,1.125
			c0,0-0.36,5.784-0.351,5.834l0.634,2.601c0,0-1.102,1.672-1.055,3.233c0.05,1.71,1.546,3.163,1.546,3.163
			c-0.112,0.515-0.267,0.691-0.491,1.265L53.703,74.229z M57.387,74.766c-0.608,1.114-1.52,2.075-2.933,2.284
			c-0.3,0.037-0.571,0.056-0.842,0.075l-0.61-1.139l1.27-0.734L57.387,74.766z M50.11,48.556l0.142-0.132l2.051,2.449l-2.185-0.132
			C50.141,50.27,50.11,48.556,50.11,48.556z M42.502,67.279l-0.375-0.852l0.868-1.411l0.462-0.593l1.535,1.792l0.443,0.162
			l-1.257-2.216c-0.003-0.013-0.915-1.367-0.92-1.383l-1.367-4.2l1.123-1.289l0.452,0.369l1.099,2.306l0.634,1.232l0.477,0.159
			l-1.523-4.019l-0.171-4.425c0-0.062,0.233-1.083,0.203-1.139l-1.404-2.762l0.736-1.979l0.886,0.362l0.655,0.912l0.955,1.495
			l0.512,0.184l-1.47-2.965l0.06-2.062l2.662-0.309l0.088,0.409l0.146,1.376c0.003,0.006,0.016,0.019,0.019,0.031
			c0.019,0.068,0.053,0.131,0.1,0.187c0.01,0.006,0.01,0.019,0.016,0.025l0.5,0.424l0.259,0.468l-0.09,3.794l-0.833,0.006
			c-0.041,0-0.084,0.013-0.125,0.031l-1.239,0.593c-0.103,0.031-0.29,0.356-0.334,0.456c-0.034,0.094,0.09,0.365,0.134,0.462
			l0.93,2.244c0.053,0.109,0.162,0.184,0.28,0.203l1.183,0.184l0.156,4.322c0,0.106-0.081,3.798,0,3.866l2.344,2.013l-0.125,1.788
			l-1.76,1.654c-0.069,0.069-0.106,0.156-0.106,0.256v6.66c-0.215-0.191-0.375-0.388-0.45-0.572
			c-0.078-0.171-0.268-0.265-0.45-0.208l-2.003,0.574c-0.146,0.04-0.256,0.168-0.271,0.331c-0.053,0.636-0.553,1.438-1.495,2.172
			v-7.945C44.648,70.384,42.542,67.339,42.502,67.279z M60.52,136.966c-6.413-3.831-10.676-6.827-13.553-9.316l-0.836-0.743
			c-4.977-4.538-5.08-7.259-5.162-10.066l-0.018-0.475c0,0,0.003-3.214,0.003-7.45h30.098l8.921-0.004c0,0.035,0,0.072,0,0.11
			c-0.153,4.179,0.003,7.337,0.003,7.337l-0.019,0.475c-0.082,2.814-0.184,5.53-5.162,10.073l-0.836,0.743
			c-2.877,2.489-7.139,5.485-13.552,9.316H60.52z M48.181,88.331c3.479-0.83,7.733-1.308,12.235-1.308
			c4.431,0,8.631,0.478,12.104,1.308H48.181z M35.824,142.285l-0.537-0.442l1.479-1.318l1.083,0.463l-0.012-0.219L36.947,140
			c-0.097-0.073-0.234-0.073-0.334-0.005l-1.61,1.248l-0.705-0.681l2.234-1.561l1.029,0.418l-0.041-0.212l-0.808-0.705
			c-0.082-0.081-1.126,0.637-1.22,0.705l-1.482,0.979l-0.375-0.698l3.055-2.135l2.805,2.546c0.075,0.062,0.16,0.088,0.25,0.088
			l5.642-0.624c0.166,0,0.35-0.637,0.284-0.698c-0.181-0.183-3.585-1.699-3.726-1.792l-5.521-4.325l1.27-7.09l3.935-1.473
			l1.333,0.706c2.515,3.089,7.349,7.032,16.82,12.706l-2.584,1.354l0.044-0.094l-5.208-2.534l-0.003,0.006
			c-0.465-0.904,0.446-1.197,0.446-1.197c-0.015-0.025,1.573,0.543,1.102,0.243c-0.43-0.263-0.777-1.087-0.796-1.104l-3.601-1.772
			l-2.59-1.429l-1.466-1.261l0.343,0.686l0.54,0.593l0.009,0.019l0.022,0.02l2.924,3.177l0.986,1.403l0.359,0.85l0.402,0.43
			l-0.171-0.836l-0.462-0.812l-1.251-2.202l1.136,0.823l1.86,3.813c0.069-0.007,1.526,2.646,1.617,3.407
			c0.006,0.013,0.63,1.636,1.079,2.565l-9.63-0.793c-0.015,0-0.034,0-0.05,0.007l-5.489,0.399L35.824,142.285z M55.759,143.096
			l-0.402-0.132c0,0-1.908-4.637-2.214-5.373l2.752,1.416c0,0-1.333,0.893-1.276,1.074L55.759,143.096z M62.077,146.273
			l-8.017-0.544c-0.016-0.005-10.594-0.979-10.594-0.979c-0.062-0.006-0.125,0-0.181,0.025l-3.567,1.697l-2.022-0.68l1.932-1.71
			l4.678-0.724l9.224,0.598l2.321,0.295l3.393,0.012c0.496-0.038,1.885-0.106,1.935-0.106l0.898-2.141
			c-0.043-0.269,0.016-0.718-0.137-0.812l-0.949-0.511l2.141-1.024l1.813,1.261L62.077,146.273z M60.996,141.891l-0.403,1.273
			h-1.006l-0.268-1.205l0.939-0.405L60.996,141.891z M65.09,139.47l2.081-1.136c-0.144,0.324-1.229,4.244-1.229,4.244l-0.584-0.15
			c0,0,0.755-2.241,0.606-2.347L65.09,139.47z M83.228,145.18l-2.855,1.042l-2.786-1.741c-0.065-0.03-1.72,0.593-1.788,0.593
			l-12.71,1.418l1.045-2.254l11.827-1.035l5.558,0.698L83.228,145.18z M80.547,124.816l2.449,1.154l1.604,6.834l-9.696,6.197
			c-0.144,0.081,0.094,0.432,0.134,0.593c0.044,0.163,0.144,0.556,0.309,0.568l5.667-0.449c0.09,0,0.271,0.249,0.34,0.187
			l2.893-2.346l2.75,1.892l-0.209,0.573l-2.343-1.548c-0.097-0.05-0.222-0.05-0.306,0.031l-0.74,0.787l-0.075,0.317l1.001-0.605
			l2.194,1.205l-0.5,1.073l-1.731-1.093c-0.106-0.062-0.24-0.062-0.334,0.032l-0.63,0.729l-0.082,0.387l0.93-0.604l1.41,0.93
			l-0.215,0.331l-3.86,1.167l-5.495-0.399c-0.016-0.007-0.028-0.007-0.043-0.007l-9.225,0.487l0.612-2.572l2.996-6.296
			c0,0,0.733-0.793,1.342-1.299l-0.131,0.911l-0.605,0.893l-0.565,0.787l-0.041,0.437l1.27-1.647l1.885-2.129l1.938-1.716
			l0.034-0.019l0.016-0.014l0.043-0.037l-0.031,0.013l0.721-0.998l-2.534,1.71l-5.995,3.857c-0.043,0.031,1.744-0.705,1.719-0.668
			l-1.154,1.31l0.478,0.431l0.125,0.032l-2.066,1.197l-8.628,3.782c-0.168,0.082-0.253,0.274-0.194,0.456l0.624,1.935l-1.913-0.112
			l-1.027-3.096l4.169-2.328l0.873-0.324c9.833-5.86,14.82-9.897,17.369-13.031l0.593-0.268L80.547,124.816z M80.082,108.91H40.96
			V91.991c0,0,0.016-0.016,0.106-0.1c1.81-1.657,4.644-2.596,4.644-2.596l29.364-0.016c2.069,0.689,3.661,1.61,4.784,2.48
			c0.103,0.082,0.144,0.175,0.225,0.181V108.91z M79.801,90.674c-3.335-2.646-10.784-4.662-19.219-4.662
			c-8.541,0-16.108,2.15-19.372,4.774c-0.684-1.816-1.099-2.487-1.792-4.02c1.108-0.755,2.16-1.457,4.125-2.187L43.4,84.065
			c-1.916,0.692-3.064,1.295-4.387,2.028c-0.065-0.094-0.125-0.225-0.187-0.312c0.858-0.612,2.901-1.529,4.459-2.125l-0.075-0.275
			c-1.903,0.577-3.501,1.357-4.721,1.916c-1.579-2.256-3.595-5.108-5.885-7.873c0.272-0.324,0.843-0.88,1.011-1.03
			c0.538,0.29,1.617,1.074,2.388,1.629c2.144,1.538,4.2,3.126,5.892,2.606c1.026-0.328,1.932-0.684,2.633-1.13
			c0.534-0.347,0.917-0.768,1.268-1.139c0.577-0.608,0.895-1.273,1.014-1.847l1.544-0.393c0.212,0.336,0.543,0.633,0.964,0.898
			c0.225,0.144,0.477,0.268,0.751,0.375c0.827,0.34,1.895,0.543,3.143,0.512c0.271-0.006,0.562-0.031,0.852-0.062
			c0.168-0.022,0.328-0.028,0.496-0.047c1.916-0.284,2.958-1.438,3.629-2.924c0.122-0.271,0.312-0.746,0.405-1.017
			c0.119-0.334,0.219-0.668,0.297-0.986c0.075-0.299,0.134-0.58,0.184-0.836c0.022-0.138,0.053-0.296,0.072-0.416
			c0.312,0,0.861-0.068,1.389-0.068c0.505,0,1.011,0.068,1.473,0.075c0.172,1.023,1.187,3.712,2.899,5.179
			c0.715,0.614,1.177,0.897,1.688,0.993c1.888,0.353,3.096,0.097,4.182-0.284c0.955-0.325,1.664-0.821,2.025-1.392l0.549,0.149
			l0.802,0.168l0.15,0.112c0.178,0.918,0.78,2.188,3.763,3.633c1.233,0.608,2.175,0.458,2.206,0.452
			c1.258-0.1,2.696-1.098,4.625-2.512c0.736-0.54,1.657-1.307,2.412-1.709c0.165,0.149,0.639,0.705,0.914,1.023
			c-1.176,1.404-3.841,4.706-5.953,8.029c-0.918-0.608-2.431-1.363-4.231-1.91l-0.094,0.315c1.838,0.571,3.251,1.426,4.085,2.01
			c-0.075,0.131-0.153,0.269-0.234,0.421c-0.927-0.768-2.182-1.42-3.96-2.075l-0.146,0.496c1.788,0.699,2.889,1.554,3.723,2.269
			C80.722,88.677,80.179,89.657,79.801,90.674z"/>
		<path fill="#FFFFFF" d="M41.616,120.735"/>
		<g>
			<g>
				<path fill="#FFFFFF" d="M57.879,114.75l-1.547-0.693l0.153,0.057l0.602-0.231l0.041-1.186l-2.149-0.637l0.115-0.368l-0.041-0.1
					l-2.48-0.163l-0.284,1.111l3.299,0.449l-6.853-0.161l0.412-0.968l-0.88-1.236l-1.07-0.093l-0.309,0.424l-0.534,0.075
					l-0.096,0.773l-0.266,0.83l0.172-0.125l0.14,0.631l-2.019-1.748l-0.665,0.337l-0.178,0.581l2.718,2.209l-0.421,0.48
					l-0.937,0.014l-0.262,0.373l0.163,0.743l3.563-0.674l0.208-0.312l4.859-0.405l0.2,0.474l-0.814,0.182l-0.266,0.725l3.071-0.619
					l-0.019-0.461h-0.053l1.042,0.668l-0.378,0.242l0.131,0.412l1.295,0.132L57.879,114.75L57.879,114.75z M57.852,115.973
					l-0.15,0.624l-0.967-0.312l-0.334-0.194l0.355-0.437l-0.134-0.361l-0.578-0.25l0.116-0.068l-0.534-0.145l-0.299-0.448
					l-0.325,1.379l-2.693,0.469l0.153-0.681l1.46-0.226l-0.425-0.642l0.021-0.35l1.052-0.369l-5.838,1.023l-0.259-0.617
					l-0.365,0.873l-3.279,0.731l-0.128-0.45l0.234-0.293l0.964-0.162l0.593-0.712l-1.551-0.924l-0.871-0.736l0.274-0.144
					l-0.712-0.306l0.131-0.418l0.634-0.256l1.261,1.484l0.433,0.026l0.05-0.763l0.315-0.262l-0.056-0.88l0.515-0.037l0.384-0.455
					l0.914,0.13l0.977,1.654l-0.256,0.105l-0.312,0.924l-0.358,0.15l0.358-0.618l7.511,0.088l-0.021-0.169l-3.529-0.536
					l-0.013-0.144l0.296-0.725l1.998,0.256l-0.296,0.256l-0.986-0.181l-0.072,0.043l0.025,0.082l3.517,0.824l-0.103,1.029
					l-1.196-0.149l0.256,0.187l-0.097,0.182l1.532,0.642l0.611,0.2L57.852,115.973z"/>
				<polygon fill="#FFFFFF" points="47.645,114.056 46.986,113.469 46.696,113.582 46.559,113.139 46.209,112.945 46.403,113.033 
					46.696,113.864 46.989,113.645 47.286,114.113 47.697,114.218 48.01,113.708 48.215,113.625 48.109,113.688 47.804,113.469 
					47.645,114.056 				"/>
			</g>
			<g>
				<path fill="#FFFFFF" d="M57.879,120.466l-1.547-0.687l0.153,0.043l0.602-0.23l0.041-1.192l-2.149-0.63l0.115-0.368l-0.041-0.095
					l-2.48-0.168l-0.284,1.111l3.299,0.456l-6.853-0.163l0.412-0.974l-0.88-1.235l-1.07-0.094l-0.309,0.425l-0.534,0.081
					l-0.096,0.774l-0.266,0.822l0.172-0.124l0.14,0.631l-2.019-1.748l-0.665,0.337l-0.178,0.58l2.718,2.209l-0.421,0.487
					l-0.937,0.013l-0.262,0.368l0.163,0.749l3.563-0.681l0.208-0.312l4.859-0.405l0.2,0.48l-0.814,0.176l-0.266,0.729l3.071-0.624
					l-0.019-0.462h-0.053l1.042,0.668l-0.378,0.244l0.131,0.41l1.295,0.132L57.879,120.466L57.879,120.466z M57.852,121.683
					l-0.15,0.624l-0.967-0.312l-0.334-0.194l0.355-0.437l-0.134-0.362l-0.578-0.25l0.116-0.062l-0.534-0.15l-0.299-0.442
					l-0.325,1.373l-2.693,0.468l0.153-0.675l1.46-0.229l-0.425-0.644l0.021-0.344l1.052-0.374l-5.838,1.023l-0.259-0.611
					l-0.365,0.874l-3.279,0.724l-0.128-0.449l0.234-0.287l0.964-0.168l0.593-0.706l-1.551-0.93l-0.871-0.743l0.274-0.137
					l-0.712-0.306l0.131-0.412l0.634-0.256l1.261,1.485l0.433,0.019l0.05-0.768l0.315-0.256l-0.056-0.873l0.515-0.044l0.384-0.456
					l0.914,0.137l0.977,1.648l-0.256,0.105l-0.312,0.924l-0.358,0.156l0.358-0.618l7.511,0.088l-0.021-0.169l-3.529-0.537
					l-0.013-0.149l0.296-0.717l1.998,0.249l-0.296,0.256l-0.986-0.175l-0.072,0.043l0.025,0.075l3.517,0.83l-0.103,1.023
					l-1.196-0.149l0.256,0.187l-0.097,0.188l1.532,0.631l0.611,0.212L57.852,121.683z"/>
				<polygon fill="#FFFFFF" points="47.645,119.78 46.986,119.187 46.696,119.292 46.559,118.85 46.209,118.663 46.403,118.75 
					46.696,119.574 46.989,119.355 47.286,119.823 47.697,119.93 48.01,119.423 48.215,119.335 48.109,119.406 47.804,119.187 
					47.645,119.78 				"/>
			</g>
			<g>
				<path fill="#FFFFFF" d="M57.901,125.653l-1.36-0.606l0.134,0.044l0.53-0.199l0.038-1.043l-1.891-0.556l0.103-0.317l-0.037-0.088
					l-2.181-0.15l-0.247,0.975l2.896,0.399l-6.02-0.15l0.362-0.849l-0.774-1.079l-0.939-0.081l-0.268,0.374l-0.468,0.069
					l-0.087,0.674l-0.231,0.73l0.149-0.106l0.122,0.543l-1.773-1.529l-0.583,0.299l-0.156,0.507l2.387,1.934l-0.372,0.432
					l-0.82,0.012l-0.231,0.319l0.144,0.654l3.126-0.599l0.184-0.269l4.27-0.355l0.174,0.418l-0.711,0.155l-0.234,0.637l2.696-0.542
					l-0.019-0.406h-0.043l0.911,0.587l-0.327,0.212l0.115,0.361l1.133,0.119L57.901,125.653L57.901,125.653z M57.877,126.719
					l-0.131,0.556L56.897,127l-0.296-0.175l0.315-0.381l-0.122-0.312l-0.503-0.225l0.104-0.057l-0.472-0.131l-0.262-0.394
					l-0.287,1.211l-2.365,0.411l0.134-0.592l1.282-0.2l-0.371-0.568l0.019-0.305l0.92-0.325l-5.127,0.898l-0.228-0.542l-0.318,0.773
					l-2.88,0.63l-0.113-0.387l0.203-0.256l0.849-0.144l0.521-0.631l-1.363-0.798l-0.762-0.656l0.24-0.124l-0.627-0.269l0.112-0.362
					l0.562-0.225l1.104,1.305l0.381,0.019l0.043-0.675l0.278-0.225l-0.046-0.768l0.449-0.044l0.334-0.386l0.805,0.112l0.861,1.448
					l-0.225,0.093l-0.271,0.812l-0.322,0.132l0.322-0.544l6.593,0.081l-0.015-0.149l-3.105-0.475l-0.012-0.125l0.262-0.636
					l1.754,0.225l-0.259,0.219l-0.868-0.15l-0.06,0.038l0.019,0.068l3.092,0.717l-0.093,0.905l-1.052-0.132l0.228,0.17l-0.087,0.156
					l1.345,0.555l0.54,0.188L57.877,126.719z"/>
				<polygon fill="#FFFFFF" points="48.912,125.046 48.337,124.536 48.075,124.628 47.957,124.236 47.651,124.068 47.823,124.148 
					48.075,124.873 48.34,124.685 48.596,125.09 48.956,125.184 49.23,124.734 49.411,124.666 49.32,124.722 49.052,124.536 
					48.912,125.046 				"/>
			</g>
		</g>
		<polygon fill="#FFFFFF" points="67.425,114.562 67.429,114.562 67.417,114.549 67.417,114.537 67.407,114.556 		"/>
		<polygon fill="#FFFFFF" points="63.431,112.259 63.434,112.259 63.434,112.259 		"/>
		<polygon fill="#FFFFFF" points="62.542,115.947 62.542,115.941 62.539,115.941 		"/>
		<polygon fill="#FFFFFF" points="62.71,112.94 62.72,112.933 62.72,112.927 		"/>
		<polygon fill="#FFFFFF" points="75.673,114.562 75.676,114.562 75.667,114.549 75.664,114.537 75.654,114.556 		"/>
		<polygon fill="#FFFFFF" points="70.79,115.947 70.79,115.941 70.786,115.941 		"/>
		<polygon fill="#FFFFFF" points="70.958,112.94 70.967,112.933 70.967,112.927 		"/>
		<polygon fill="#FFFFFF" points="71.679,112.259 71.682,112.259 71.682,112.259 		"/>
		<polygon fill="#FFFFFF" points="72.986,120.098 72.989,120.098 72.999,120.104 		"/>
		<polygon fill="#FFFFFF" points="71.548,122.388 71.551,122.388 71.538,122.375 71.538,122.375 71.532,122.388 		"/>
		<polygon fill="#FFFFFF" points="67.553,120.085 67.557,120.085 67.557,120.085 		"/>
		<polygon fill="#FFFFFF" points="66.664,123.786 66.664,123.78 66.664,123.773 		"/>
		<polygon fill="#FFFFFF" points="66.661,123.768 66.667,123.761 66.667,123.761 		"/>
		<polygon fill="#FFFFFF" points="47.854,94.584 47.857,94.584 47.844,94.571 47.844,94.562 47.835,94.581 		"/>
		<polygon fill="#FFFFFF" points="43.138,92.968 43.148,92.955 43.148,92.955 		"/>
		<polygon fill="#FFFFFF" points="42.97,95.976 42.97,95.97 42.967,95.966 		"/>
		<polygon fill="#FFFFFF" points="43.859,92.281 43.862,92.281 43.862,92.281 		"/>
		<polygon fill="#FFFFFF" points="56.101,94.584 56.104,94.584 56.095,94.571 56.092,94.559 56.083,94.581 		"/>
		<polygon fill="#FFFFFF" points="51.386,92.968 51.395,92.958 51.395,92.955 		"/>
		<polygon fill="#FFFFFF" points="51.217,95.976 51.217,95.97 51.214,95.966 		"/>
		<polygon fill="#FFFFFF" points="52.107,92.281 52.11,92.281 52.11,92.281 		"/>
		<polygon fill="#FFFFFF" points="53.414,100.12 53.417,100.12 53.427,100.129 		"/>
		<polygon fill="#FFFFFF" points="51.976,102.417 51.979,102.417 51.967,102.406 51.967,102.4 51.96,102.416 		"/>
		<polygon fill="#FFFFFF" points="47.089,103.792 47.095,103.789 47.095,103.786 		"/>
		<polygon fill="#FFFFFF" points="47.092,103.813 47.092,103.804 47.092,103.804 		"/>
		<polygon fill="#FFFFFF" points="47.981,100.114 47.985,100.114 47.985,100.114 		"/>
		<path fill="#FFFFFF" d="M60.389,88.845l-14.988,0.022c0,0-3.58,1.148-4.708,2.79l-0.025,17.215h19.771L60.389,88.845z
			 M54.129,91.924l0.608-1.468l0.02-0.048h0.676l0.021,0.046l0.537,1.196l0.011,0.023l-0.006,0.027l-0.468,2.217l-0.008,0.034
			l-0.03,0.018l-0.348,0.207l-0.023,0.015l-0.03-0.003l-0.483-0.072l-0.055-0.01l-0.011-0.054l-0.417-2.081l-0.004-0.023
			L54.129,91.924z M56.375,95.242l0.076,0.005l-0.002,0.076l-0.019,0.931l-0.001,0.074l-0.075,0.003c0,0-1.36,0.062-1.364,0.062
			l-1.325-0.003h-0.07l-0.009-0.068l-0.103-0.78l-0.009-0.072l0.07-0.018l1.271-0.309l0.013-0.003l0.012,0.001l0.841,0.062
			L56.375,95.242z M51.23,93.785l-0.013-0.041l0.027-0.032l0.936-1.144l0.007-0.01l0.008-0.004l0.017-0.012l0.025,0.082l0.005-0.006
			l0.016-0.011v-0.002l0.001-0.08h0.245l-0.041,0.03l0.844,0.126l0.047,0.008l0.016,0.044l0.65,1.767l0.014,0.039l-0.024,0.034
			l-0.208,0.299l0.014,0.1l-0.147,0.056l-0.292-0.434l-0.487,0.062v1.554l-0.02,0.024l-0.699,0.759l-0.045,0.049l-0.056-0.036
			l-0.78-0.493l0.034-0.008h-0.12l0.047-0.107c0.001-0.016,0-0.031,0-0.031h0.014l0.443-1.018L51.23,93.785z M50.345,98.053h0.679
			l0.016,0.058l0.467,1.645l0.005,0.016l-0.002,0.017l-0.281,2.113l-0.008,0.053l-0.048,0.012l-0.448,0.142l-0.026,0.006
			l-0.025-0.006l-0.451-0.17l-0.041-0.015l-0.009-0.047l-0.557-2.601l-0.006-0.031l0.016-0.028l0.696-1.125L50.345,98.053z
			 M51.973,102.887l0.06,0.021l-0.001,0.06l-0.021,0.929l-0.001,0.075l-0.074,0.004c0,0-1.256,0.065-1.261,0.065l-1.427-0.007
			l-0.071-0.006l-0.009-0.065l-0.105-0.783l-0.007-0.057l0.055-0.024l0.702-0.307l0.009-0.003h0.011l1.197-0.158h0.017h0.015
			L51.973,102.887z M47.092,94.307l0.592-1.567l0.017-0.043l0.045-0.008l1.047-0.163l0.028-0.003l0.023,0.014l0.019,0.01v0.001
			l0.003,0.002l-0.034,0.065l0.042-0.056l0.711,0.807l0.026,0.029l-0.008,0.04l-0.43,2.103l0.062,0.192l0.451,0.652l0.044,0.063
			l-0.062,0.045l-0.894,0.663l-0.062,0.049l-0.048-0.064l-0.832-1.11l-0.023-0.031l0.009-0.038l0.336-1.314l-0.24-0.066
			l-0.386,0.289l-0.068,0.05l-0.38-0.571L47.092,94.307z M47.353,95.247l-0.002,0.076l-0.02,0.931l-0.002,0.071l-0.07,0.006
			l-1.152,0.114h-0.011l-1.532-0.056l-0.067-0.002l-0.009-0.066l-0.131-0.985l-0.013-0.092l0.094,0.001l1.372,0.03l0.758-0.072
			h0.013l0.696,0.039L47.353,95.247z M44.947,91.57l0.696-1.125l0.023-0.038h0.669l0.021,0.046l0.536,1.196l0.009,0.023
			l-0.005,0.025l-0.451,2.353l-0.005,0.022l-0.015,0.018l-0.347,0.351l-0.037,0.038l-0.048-0.021l-0.348-0.142l-0.038-0.015
			l-0.011-0.04l-0.66-2.632l-0.008-0.033L44.947,91.57z M43.792,96.211l-0.02,0.024l-0.698,0.759l-0.045,0.049l-0.056-0.036
			l-0.78-0.493l0.034-0.008h-0.12l0.047-0.107c0-0.016,0-0.031,0-0.031h0.014l0.441-1.018l-0.478-1.564l-0.012-0.041l0.026-0.032
			l0.936-1.144l0.007-0.008l0.006-0.004l0.015-0.012l0.028,0.083l0.007-0.008l0.014-0.011v-0.002l0.001-0.08h0.228l-0.034,0.026
			l0.856,0.13l0.047,0.008l0.015,0.044l0.649,1.767l0.014,0.039l-0.023,0.034l-0.209,0.299l0.015,0.098l-0.146,0.058l-0.29-0.434
			l-0.49,0.062V96.211z M46.34,99.299l-0.011,0.034l-0.034,0.015l-0.318,0.136l-0.046,0.02l-0.04-0.034l-0.913-0.838l-0.534,0.049
			l-0.05,0.005l-0.026-0.042l-0.353-0.581l-0.022-0.035l0.017-0.04l0.465-1.053l0.019-0.04l0.044-0.007l0.487-0.071l0.059-0.008
			l0.025,0.055l0.304,0.693l0.835-0.651l0.061-0.049l0.048,0.06l0.494,0.598l-0.022-0.543l-0.003-0.065l0.064-0.016l0.552-0.138
			l0.08-0.02l0.017,0.082l0.282,1.378l0.011,0.05l-0.042,0.029l-0.395,0.29l-0.022,0.018l-0.026-0.002l-0.368-0.009l-0.54,0.428
			L46.34,99.299z M48.472,103.861l-0.021,0.021l-0.698,0.765l-0.045,0.047l-0.058-0.034l-0.78-0.499l0.081-0.038l-0.015-0.005
			l-0.105-0.013v-0.014c0,0,0-0.081,0.003-0.081h0.016l0.003-0.005l0.011-0.041h0.004L47.291,103l-0.479-1.571l-0.012-0.041
			l0.026-0.031l0.937-1.141l0.009-0.01l0.016-0.014l0.029,0.083l0.008-0.01l0.014-0.012v-0.002l0.001-0.08h0.208l-0.028,0.025
			l0.871,0.131l0.046,0.008l0.016,0.044l0.648,1.765l0.015,0.044l-0.023,0.031l-0.209,0.3l0.016,0.105l-0.146,0.056l-0.292-0.443
			l-0.488,0.06V103.861z M52.461,105.932l-0.5,0.281l-0.014,0.009h-0.017l-0.487,0.047l-0.325,0.365l-0.1,0.312l-0.011,0.035
			l-0.032,0.013l-0.319,0.144l-0.056,0.021l-0.039-0.044l-0.894-1.102l-0.312,0.29l-0.06,0.054l-0.053-0.062l-0.538-0.574
			l-0.038-0.041l0.022-0.043l0.465-1.05l0.019-0.037l0.043-0.009l0.487-0.071l0.06-0.01l0.024,0.059l0.291,0.659l0.48-0.644
			l0.05-0.064l0.064,0.053l0.858,0.704l-0.024-0.602l-0.003-0.064l0.062-0.02l0.552-0.141l0.082-0.024l0.017,0.084l0.283,1.386
			l0.013,0.06L52.461,105.932z M54.348,104.141l-0.894,0.661l-0.062,0.044l-0.048-0.062l-0.832-1.111l-0.024-0.025l0.01-0.038
			l0.335-1.325l-0.244-0.065l-0.382,0.29l-0.069,0.053l-0.046-0.074l-0.312-0.469l-0.022-0.031l0.014-0.037l0.591-1.565l0.017-0.044
			l0.045-0.008l1.046-0.162l0.03-0.004l0.026,0.017l0.022,0.014l-0.028,0.049l0.031-0.041l0.711,0.803l0.027,0.029l-0.008,0.039
			l-0.431,2.112l0.062,0.188l0.451,0.652l0.043,0.065L54.348,104.141z M56.981,98.471l-0.52,0.104l-0.009,0.001h-0.008l-0.37-0.009
			l-0.54,0.428l-0.095,0.302l-0.011,0.036l-0.034,0.015l-0.318,0.136l-0.055,0.023l-0.039-0.046l-0.897-1.092l-0.311,0.281
			l-0.058,0.053l-0.053-0.058l-0.54-0.571l-0.037-0.039l0.022-0.049l0.465-1.053l0.018-0.04l0.044-0.007l0.487-0.071l0.06-0.008
			l0.025,0.055l0.304,0.693l0.833-0.651l0.062-0.049l0.048,0.06l0.495,0.598l-0.024-0.543l-0.003-0.065l0.064-0.016l0.552-0.138
			l0.077-0.019l0.02,0.077l0.407,1.563l0.02,0.083L56.981,98.471z M58.766,96.49l-0.895,0.663l-0.062,0.049l-0.048-0.064
			l-0.832-1.11l-0.023-0.031l0.009-0.038l0.335-1.314l-0.24-0.066l-0.384,0.289l-0.068,0.052l-0.047-0.072l-0.333-0.501l0.014-0.038
			l0.591-1.567l0.018-0.043l0.045-0.008l1.045-0.163l0.026-0.003l0.024,0.013l0.019,0.009l0.004,0.003l-0.033,0.066l0.041-0.055
			l0.713,0.807l0.026,0.029l-0.008,0.04l-0.431,2.103l0.061,0.193l0.452,0.651l0.043,0.063L58.766,96.49z"/>
		<path fill="#FFFFFF" d="M80.36,108.872l-19.971,0.051l-0.031,28.326c0,0,8.559-4.861,11.679-7.746
			c3.121-2.877,8.379-5.847,8.379-13.586C80.416,115.361,80.36,108.872,80.36,108.872z M74.233,111.498l0.608-1.467l0.021-0.05
			h0.676l0.021,0.05l0.537,1.186l0.011,0.031l-0.006,0.025l-0.468,2.216l-0.008,0.031l-0.03,0.018l-0.348,0.214l-0.023,0.012h-0.03
			l-0.484-0.082h-0.054l-0.011-0.056l-0.417-2.085l-0.004-0.018L74.233,111.498z M76.478,114.812l0.076,0.013l-0.001,0.068
			l-0.019,0.93l-0.001,0.081h-0.075c0,0-1.361,0.057-1.364,0.057H73.77h-0.07l-0.01-0.069l-0.103-0.773l-0.009-0.075l0.07-0.019
			l1.272-0.307l0.012-0.005l0.013,0.005l0.841,0.057L76.478,114.812z M71.334,113.357l-0.012-0.037l0.026-0.038l0.936-1.142
			l0.008-0.012l0.008-0.007l0.017-0.013l0.025,0.088l0.004-0.006l0.016-0.014l0,0l0.001-0.081h0.245l-0.041,0.032l0.844,0.131h0.046
			l0.016,0.05l0.65,1.76l0.014,0.044l-0.023,0.037l-0.209,0.294l0.014,0.105l-0.147,0.051l-0.292-0.438l-0.487,0.063v1.561
			l-0.021,0.024l-0.699,0.761l-0.045,0.044l-0.056-0.03l-0.78-0.494l0.034-0.012h-0.12l0.047-0.105c0.001-0.013,0-0.039,0-0.039
			h0.014l0.443-1.017L71.334,113.357z M70.449,117.62h0.679l0.016,0.062l0.468,1.648l0.004,0.012l-0.001,0.013l-0.281,2.116
			l-0.008,0.056l-0.048,0.013l-0.448,0.137l-0.026,0.007l-0.025-0.007l-0.451-0.168l-0.041-0.013l-0.009-0.049l-0.558-2.597
			l-0.006-0.031l0.016-0.032l0.696-1.123L70.449,117.62z M72.077,122.457l0.06,0.024l-0.002,0.058l-0.02,0.93l-0.002,0.075
			l-0.073,0.006c0,0-1.256,0.062-1.261,0.062l-1.427-0.007l-0.071-0.006l-0.009-0.062l-0.104-0.786l-0.008-0.057l0.054-0.025
			l0.702-0.305h0.01h0.011l1.196-0.163h0.018h0.016L72.077,122.457z M67.196,113.875l0.591-1.566l0.018-0.037l0.045-0.013
			l1.047-0.163h0.028l0.023,0.013l0.019,0.013h0.002l-0.034,0.069l0.042-0.062l0.712,0.812l0.026,0.024l-0.008,0.037l-0.431,2.104
			l0.062,0.2l0.451,0.648l0.043,0.068l-0.062,0.044l-0.894,0.655l-0.062,0.05l-0.048-0.057l-0.832-1.116l-0.023-0.025l0.009-0.037
			l0.336-1.323l-0.24-0.062l-0.386,0.294l-0.068,0.05l-0.381-0.574L67.196,113.875z M67.457,114.825l-0.001,0.068l-0.021,0.93
			l-0.001,0.075l-0.07,0.006l-1.151,0.118h-0.011l-1.532-0.062h-0.067l-0.01-0.069l-0.131-0.986l-0.013-0.093l0.094,0.006
			l1.372,0.024l0.758-0.068h0.013l0.696,0.038L67.457,114.825z M65.05,111.142l0.696-1.13l0.023-0.031h0.669l0.022,0.05l0.536,1.186
			l0.009,0.031l-0.005,0.025l-0.451,2.353l-0.004,0.02l-0.016,0.019l-0.346,0.35l-0.038,0.043l-0.048-0.024l-0.348-0.138
			l-0.038-0.019l-0.011-0.043l-0.66-2.628l-0.008-0.037L65.05,111.142z M63.896,115.786l-0.02,0.024l-0.697,0.761l-0.045,0.044
			l-0.056-0.03l-0.78-0.494l0.034-0.012h-0.12l0.047-0.105c0-0.013,0-0.039,0-0.039h0.014l0.441-1.017l-0.477-1.561l-0.013-0.037
			l0.027-0.038l0.936-1.142l0.007-0.012h0.006l0.016-0.013l0.028,0.088l0.006-0.013l0.014-0.014l0,0l0.002-0.081h0.227l-0.034,0.025
			l0.856,0.138h0.047l0.016,0.05l0.649,1.76l0.014,0.044l-0.024,0.037l-0.208,0.294l0.016,0.1l-0.147,0.057l-0.291-0.438
			l-0.49,0.063V115.786z M66.444,118.875l-0.011,0.031l-0.034,0.013l-0.318,0.137l-0.047,0.02l-0.039-0.038l-0.913-0.83
			l-0.534,0.044l-0.05,0.007l-0.026-0.038l-0.353-0.581l-0.021-0.043l0.017-0.037l0.465-1.056l0.019-0.037l0.044-0.007l0.486-0.074
			h0.06l0.025,0.05l0.304,0.692l0.834-0.648l0.061-0.05l0.048,0.062l0.494,0.599l-0.022-0.543l-0.003-0.068l0.064-0.013l0.552-0.144
			l0.08-0.019l0.018,0.081l0.282,1.379l0.011,0.051l-0.042,0.024l-0.395,0.293l-0.022,0.02l-0.026-0.006h-0.368l-0.54,0.424
			L66.444,118.875z M68.575,123.431l-0.02,0.024l-0.698,0.761l-0.045,0.051l-0.058-0.038l-0.78-0.499l0.081-0.037l-0.015-0.007
			l-0.105-0.013v-0.013l0.003-0.08h0.016l0.002-0.007l0.011-0.037h0.004l0.422-0.968l-0.479-1.566l-0.012-0.043l0.026-0.032
			l0.936-1.136l0.01-0.012l0.016-0.013l0.029,0.081l0.008-0.013l0.014-0.013l0,0l0.002-0.08h0.208l-0.028,0.024l0.871,0.131
			l0.046,0.013l0.016,0.044l0.649,1.76l0.014,0.044l-0.023,0.03l-0.209,0.3l0.016,0.106l-0.146,0.057l-0.292-0.443l-0.488,0.062
			V123.431z M72.565,125.502l-0.5,0.28l-0.014,0.014h-0.017l-0.487,0.044l-0.325,0.368l-0.099,0.312l-0.011,0.03l-0.033,0.014
			l-0.318,0.143l-0.057,0.026l-0.039-0.044l-0.894-1.104l-0.312,0.293l-0.059,0.049l-0.053-0.062l-0.538-0.575l-0.038-0.037
			l0.021-0.043l0.465-1.049l0.019-0.037l0.044-0.013l0.487-0.069l0.059-0.012l0.025,0.062l0.29,0.655l0.48-0.643l0.05-0.063
			l0.064,0.051l0.858,0.705l-0.023-0.6l-0.003-0.068l0.062-0.019l0.552-0.138l0.082-0.024l0.017,0.081l0.283,1.385l0.013,0.062
			L72.565,125.502z M74.451,123.711l-0.894,0.661l-0.062,0.044l-0.048-0.062l-0.832-1.11l-0.023-0.024l0.009-0.039l0.336-1.322
			l-0.244-0.069l-0.382,0.294l-0.068,0.05l-0.047-0.075l-0.312-0.469l-0.022-0.03l0.014-0.038l0.592-1.565l0.017-0.044h0.045
			l1.047-0.168h0.03l0.027,0.012l0.021,0.013l-0.028,0.051l0.032-0.038l0.711,0.799l0.026,0.031l-0.008,0.037l-0.43,2.116
			l0.062,0.187l0.451,0.649l0.044,0.068L74.451,123.711z M77.085,118.039l-0.52,0.106h-0.009h-0.008h-0.37l-0.54,0.424l-0.095,0.306
			l-0.011,0.031l-0.034,0.013l-0.318,0.137l-0.054,0.02l-0.04-0.038l-0.896-1.092l-0.311,0.274l-0.058,0.056l-0.053-0.056
			l-0.539-0.568l-0.038-0.044l0.021-0.049l0.465-1.056l0.019-0.037l0.044-0.007l0.487-0.074h0.059l0.025,0.05l0.304,0.692
			l0.833-0.648l0.062-0.05l0.049,0.062l0.495,0.599l-0.023-0.543l-0.003-0.068l0.064-0.013l0.553-0.144l0.077-0.019l0.02,0.081
			l0.407,1.561l0.021,0.081L77.085,118.039z M78.87,116.066l-0.894,0.655l-0.063,0.05l-0.048-0.057l-0.832-1.116l-0.023-0.025
			l0.009-0.037l0.336-1.323l-0.24-0.062l-0.384,0.294l-0.068,0.05l-0.047-0.075l-0.333-0.499l0.014-0.044l0.591-1.566l0.018-0.037
			l0.045-0.013l1.045-0.163h0.026l0.023,0.013l0.019,0.013h0.005l-0.033,0.069l0.041-0.062l0.713,0.812l0.026,0.024l-0.008,0.037
			l-0.431,2.104l0.061,0.2l0.451,0.648l0.044,0.068L78.87,116.066z"/>
		<g>
			<path fill="#FFFFFF" d="M67.302,151.147c0.583-0.449,1.685-1.636,0.969-2.29c-1.768-1.611-3.219,0.168-4.064,0.893
				c-0.899-0.587-2.78-0.756-3.944-0.8c-1.645-0.062-3.733,1.18-4.543,0.549c-0.537-0.424-1.604-1.521-2.396-1.348
				c-0.589,0.119-1.623,1.187-1.148,1.892c0.362,0.567,0.949,0.955,1.498,1.348c-4.144,4.15-0.293,9.518,4.693,7.389
				c0.799-0.337,1.647-0.773,2.297-1.347c1.026,0.842,2.649,1.529,3.994,1.653c2.578,0.231,4.781-2.109,4.394-4.793
				C69.05,154.292,68.8,152.146,67.302,151.147z M66.202,149.125c0.805-0.699,2.565-0.351,0.886,1.116
				c-1.791,1.573-3.645,3.065-5.211,4.85c0.312,0.281-0.839-0.668-0.958-0.867 M65.005,153.039c2.397,1.902,0.512,4.692-2.396,2.346
				C63.442,154.449,65.005,153.039,65.005,153.039z M58.665,151.639c1.473-0.441,2.221-0.404,3.694,0.057
				c-0.721,0.756-0.98,1.131-1.697,1.892C60.662,153.587,59.488,152.376,58.665,151.639z M52.862,149.099
				c0.98-0.829,2.044,0.681,2.756,1.168c-0.821,0.418-0.921,0.867-2.128,0.168C53.489,150.435,52.26,149.611,52.862,149.099z
				 M53.857,157.562c-2.527-2.339-0.465-5.654,2.022-6.877c2.452-1.211,5.673-1.41,8.226-0.374c-1.404,1.229-1.57,0.374-4.219,0.461
				c-1.66,0.056-3.379,0.655-4.581,1.848c-1.114,1.111-1.742,3.245-0.188,4.294c0.755,0.512,1.697,0.475,2.515,0.144
				c1.573-0.617,1.227-1.38,2.59-0.181C58.454,158.411,55.808,159.373,53.857,157.562 M58.615,155.741
				c-2.347,2.29-5.222-0.375-2.796-2.646C55.819,153.094,57.631,154.767,58.615,155.741z M67.672,156.901
				c-3.698,4.818-8.668-2.416-11.405-4.387c1.95-1.392,2.25,0.03,4.496,2.253c1.218,1.198,3.215,3.039,5.078,1.959
				c1.966-1.161,0.83-3.401-0.578-4.368c0.372-0.331,0.755-0.655,1.148-0.968c0.007,0.013,0.003,0.013-0.003,0.013
				C68.564,152.495,68.599,155.69,67.672,156.901"/>
			<path fill="#FFFFFF" d="M16.432,135.606l0.925,0.481l1.868,0.974l0.061,0.031c-0.001-0.007,0.064-0.019,0.064-0.019l1.408-0.476
				l0.519-0.174l-0.531-0.138c-0.91-0.225-3.265-1.273-3.533-1.429c-0.408-1.018-1.909-4.25-5.163-6.172
				c-2.46-1.448-4.742-1.81-7.88-1.249c-0.067,0.013-0.179,0.032-0.298,0.057c-0.146,0.031-0.366,0.075-0.408,0.081l-0.205,0.012
				c-0.008,0,0.058,0.194,0.058,0.194c0.032,0.105,0.203,0.53,0.238,0.61c1.296,3.033,2.91,4.869,5.391,6.142
				C11.913,136.032,14.889,135.85,16.432,135.606z M4.397,128.254c2.991-0.405,5.68-0.031,7.583,1.087
				c2.456,1.447,3.456,3.75,3.996,5.018c-3.838-1.716-10.307-5.524-10.374-5.561l-0.179,0.261c1.201,0.943,4.92,3.315,9.539,5.78
				c-1.476,0.118-3.649,0.225-5.707-0.83C7.343,133.042,5.758,131.144,4.397,128.254z"/>
			<path fill="#FFFFFF" d="M25.197,143.771l0.606,0.105l0.067,0.007l0.053-0.044l1.189-0.893l0.437-0.326l-0.544,0.044
				c-0.946,0.07-3.525-0.198-3.804-0.262c-0.694-0.816-3.111-3.413-6.834-4.225c-2.802-0.612-5.083-0.237-7.875,1.279
				c-0.073,0.037-0.208,0.112-0.342,0.188c-0.112,0.068-0.265,0.162-0.293,0.174l-0.18,0.081c-0.002,0,0.112,0.157,0.112,0.157
				c0.038,0.05,0.134,0.162,0.269,0.324c0.064,0.074,0.127,0.149,0.148,0.181c2.194,2.471,4.298,3.707,7.043,4.131
				c3.281,0.494,6.049-0.598,7.441-1.322L25.197,143.771z M10.208,140.606h0.002c1.479,0.53,5.758,1.622,10.85,2.49
				c-1.356,0.58-3.393,1.354-5.676,1.004c-2.119-0.317-4.22-1.622-6.418-3.938c2.706-1.323,5.377-1.81,7.544-1.348
				c2.794,0.618,4.456,2.472,5.369,3.52c-4.178-0.424-11.527-2.022-11.602-2.035l-0.087,0.307
				C10.193,140.606,10.203,140.606,10.208,140.606z"/>
			<path fill="#FFFFFF" d="M37.686,148.501l0.067-0.013l0.042-0.051l0.939-1.148l0.35-0.43l-0.524,0.174
				c-0.91,0.307-3.483,0.655-3.754,0.681c-0.886-0.649-3.862-2.571-7.654-2.466c-2.854,0.088-4.979,0.999-7.333,3.146
				c-0.059,0.051-0.165,0.156-0.27,0.256c-0.095,0.095-0.225,0.22-0.253,0.237l-0.156,0.119c-0.006,0.007,0.14,0.131,0.14,0.131
				c0.045,0.044,0.152,0.118,0.308,0.237c0.09,0.068,0.184,0.137,0.214,0.163c2.726,1.878,5.068,2.558,7.84,2.302
				c3.462-0.317,5.954-2.233,6.903-3.077L37.686,148.501z M32.894,148.901c-1.185,0.893-2.965,2.127-5.268,2.339
				c-2.131,0.2-4.486-0.555-7.176-2.277c2.305-1.941,4.778-3.058,6.993-3.126c2.855-0.075,4.924,1.329,6.06,2.114
				c-4.161,0.6-11.674,0.824-11.752,0.831l-0.011,0.317C23.262,149.25,27.681,149.281,32.894,148.901z"/>
			<path fill="#FFFFFF" d="M47.775,151.215c-0.956-0.524-4.149-2.065-7.896-1.497c-2.833,0.443-4.831,1.609-6.891,4.019
				c-0.002,0.007-0.198,0.243-0.198,0.243c-0.111,0.137-0.25,0.312-0.274,0.337l-0.127,0.144l0.166,0.101
				c0.084,0.05,0.482,0.274,0.566,0.318c2.935,1.517,5.342,1.915,8.055,1.316c3.383-0.736,5.633-2.945,6.472-3.9l1.013-0.212
				l2.074-0.444l0.065-0.012l0.036-0.057l0.787-1.254l0.289-0.462l-0.492,0.231C50.575,150.486,48.084,151.16,47.775,151.215z
				 M34.981,154.205c0.006,0,0.016,0,0.021,0c0,0,0.01,0,0.011-0.006c1.553-0.031,5.913-0.55,11.009-1.566
				c-1.061,1.023-2.684,2.478-4.938,2.977c-2.081,0.456-4.51-0.006-7.406-1.373c2.054-2.209,4.373-3.632,6.561-3.969
				c2.822-0.431,5.05,0.711,6.275,1.348c-4.055,1.104-11.484,2.26-11.562,2.272L34.981,154.205z"/>
			<path fill="#FFFFFF" d="M102.915,129.958l0.067-0.007l0.041-0.056l1.264-1.659l0.64-0.843c1.507-0.449,4.28-1.573,6.297-4.182
				c1.701-2.216,2.371-4.562,2.245-7.852l-0.004-0.094c-0.014-0.243-0.028-0.486-0.043-0.574l-0.038-0.199l-0.186,0.08
				c-0.026,0.013-0.191,0.051-0.313,0.082c-0.148,0.037-0.303,0.074-0.387,0.101c-3.058,0.829-4.965,2.134-6.578,4.506
				c-2.123,3.139-2.093,6.684-2.024,7.775c-0.153,0.225-1.843,2.209-2.576,2.814l-0.422,0.351l0.542-0.063L102.915,129.958z
				 M106.262,119.83c1.242-1.842,3.513-3.333,6.386-4.231c0.009,3.184-0.613,5.58-1.924,7.271c-1.409,1.823-3.417,2.665-4.796,3.184
				c3.111-4.182,5.454-7.934,6.14-9.294l-0.276-0.161c-0.044,0.062-4.258,6.278-6.99,9.468
				C104.747,124.692,104.667,122.188,106.262,119.83z"/>
			<path fill="#FFFFFF" d="M117.953,127.575c-0.041-0.006-0.271-0.057-0.424-0.088c-0.111-0.024-0.214-0.044-0.276-0.05
				c-3.141-0.561-5.423-0.199-7.881,1.249c-3.254,1.922-4.755,5.154-5.163,6.172c-0.268,0.155-2.623,1.204-3.533,1.429l-0.532,0.138
				l0.52,0.174l1.404,0.476l0.065,0.012c-0.001,0.007,0.059-0.024,0.059-0.024l1.929-0.999l0.868-0.456
				c1.543,0.244,4.518,0.426,7.484-1.073c2.482-1.272,4.094-3.108,5.393-6.142c0.002-0.005,0.064-0.154,0.064-0.154
				c0.083-0.214,0.152-0.388,0.174-0.456l0.07-0.206H117.953z M112.167,134.009c-2.062,1.055-4.235,0.948-5.709,0.83
				c4.625-2.465,8.343-4.837,9.54-5.78l-0.179-0.261c-0.067,0.036-6.536,3.845-10.374,5.561c0.54-1.268,1.54-3.57,3.996-5.018
				c1.901-1.118,4.59-1.492,7.579-1.087C115.664,131.138,114.079,133.042,112.167,134.009z"/>
			<path fill="#FFFFFF" d="M113.292,139.664c-0.141-0.081-0.287-0.169-0.367-0.206c-2.793-1.517-5.074-1.892-7.873-1.279
				c-3.728,0.812-6.143,3.408-6.837,4.225c-0.271,0.063-2.852,0.332-3.8,0.262l-0.543-0.044l0.433,0.326l1.186,0.893l0.055,0.044
				l0.067-0.007l0.876-0.145l2.239-0.361c1.392,0.725,4.158,1.816,7.436,1.322c2.748-0.424,4.854-1.66,7.043-4.131
				c0.026-0.031,0.086-0.1,0.148-0.175c0.134-0.162,0.232-0.28,0.27-0.33l0.117-0.157l-0.181-0.081
				C113.536,139.807,113.402,139.726,113.292,139.664z M106.037,144.1c-2.284,0.351-4.321-0.424-5.674-1.004
				c5.082-0.868,9.364-1.96,10.848-2.49h0.002c0.004,0,0.014,0,0.019,0l-0.088-0.307c-0.075,0.013-7.423,1.611-11.603,2.035
				c0.911-1.043,2.577-2.901,5.37-3.52c2.166-0.462,4.835,0.024,7.541,1.348C110.259,142.478,108.158,143.783,106.037,144.1z"/>
			<path fill="#FFFFFF" d="M101.873,148.65c-0.104-0.1-0.21-0.205-0.271-0.256c-2.353-2.146-4.478-3.058-7.332-3.146
				c-3.806-0.105-6.771,1.816-7.655,2.466c-0.271-0.025-2.844-0.374-3.755-0.681l-0.522-0.174l0.35,0.43l0.939,1.148l0.042,0.051
				l0.067,0.013l3.143,0.261c0.949,0.844,3.44,2.76,6.897,3.077c2.774,0.256,5.116-0.424,7.829-2.297
				c0.042-0.031,0.138-0.1,0.23-0.168c0.156-0.119,0.262-0.193,0.308-0.237l0.16-0.138l-0.182-0.112
				C102.096,148.87,101.968,148.745,101.873,148.65z M93.793,151.24c-2.304-0.212-4.088-1.446-5.269-2.339
				c5.214,0.38,9.631,0.349,11.151,0.198l-0.011-0.317c-0.078-0.007-7.586-0.231-11.747-0.831c1.137-0.785,3.203-2.189,6.059-2.114
				c2.211,0.068,4.686,1.185,6.993,3.126C98.279,150.685,95.925,151.44,93.793,151.24z"/>
			<path fill="#FFFFFF" d="M88.607,153.949l-0.173-0.205c-2.063-2.416-4.059-3.582-6.892-4.025
				c-3.741-0.568-6.941,0.973-7.901,1.497c-0.307-0.056-2.796-0.729-3.64-1.129l-0.492-0.231l0.289,0.462l0.786,1.254l0.036,0.057
				l0.066,0.012l2.145,0.456l0.941,0.2c0.836,0.955,3.078,3.164,6.469,3.9c2.713,0.599,5.122,0.2,8.055-1.316
				c0.004,0,0.062-0.031,0.062-0.031l0.505-0.287l0.178-0.101l-0.141-0.144C88.875,154.287,88.713,154.086,88.607,153.949z
				 M80.332,155.609c-2.251-0.493-3.876-1.953-4.935-2.977c5.099,1.017,9.457,1.535,11.006,1.566
				c0.001,0.006,0.011,0.006,0.011,0.006c0.006,0,0.016,0,0.021,0l0.028-0.317c-0.077-0.013-7.507-1.168-11.559-2.272
				c1.225-0.637,3.45-1.778,6.275-1.348c2.186,0.337,4.504,1.76,6.558,3.969C84.846,155.609,82.417,156.065,80.332,155.609z"/>
			<path fill="#FFFFFF" d="M20.101,129.852c-0.734-0.605-2.425-2.59-2.579-2.814c0.07-1.092,0.108-4.625-2.021-7.775
				c-1.611-2.372-3.518-3.677-6.581-4.506c-0.083-0.026-0.24-0.063-0.394-0.101c-0.118-0.031-0.282-0.069-0.313-0.082l-0.183-0.068
				c-0.006,0-0.034,0.194-0.034,0.194c-0.017,0.112-0.042,0.567-0.045,0.661c-0.127,3.289,0.544,5.642,2.242,7.852
				c2.024,2.608,4.793,3.732,6.299,4.182l0.598,0.785l1.308,1.717l0.04,0.056l0.067,0.007l1.476,0.181l0.542,0.063L20.101,129.852z
				 M16.616,126.065c-2.732-3.189-6.943-9.406-6.987-9.468l-0.276,0.161c0.69,1.373,3.033,5.125,6.138,9.294
				c-1.38-0.519-3.391-1.36-4.798-3.184c-1.308-1.69-1.93-4.082-1.92-7.271c2.877,0.904,5.146,2.396,6.383,4.231
				C16.753,122.188,16.673,124.685,16.616,126.065z"/>
		</g>
	</g>
</g>
</svg>
