<?xml version="1.0" encoding="utf-8"?>
<!-- Generator: Adobe Illustrator 16.0.0, SVG Export Plug-In . SVG Version: 6.00 Build 0)  -->
<!DOCTYPE svg PUBLIC "-//W3C//DTD SVG 1.1//EN" "http://www.w3.org/Graphics/SVG/1.1/DTD/svg11.dtd">
<svg version="1.1" id="Layer_1" xmlns="http://www.w3.org/2000/svg" xmlns:xlink="http://www.w3.org/1999/xlink" x="0px" y="0px"
	 width="250px" height="38.333px" viewBox="-93 13.833 250 38.333" enable-background="new -93 13.833 250 38.333"
	 xml:space="preserve">
<g id="XMLID_32_">
	<path id="XMLID_3_" d="M-50.668,44.508l-1.584-8.773h-8.266l1.585,8.773h-6.978l-4.021-23.009h6.973l1.436,8.121h8.265
		l-1.436-8.121h6.973l4.027,23.009H-50.668z"/>
	<path id="XMLID_5_" d="M-39.955,44.508l-4.027-23.009h17.468l1.077,6.04h-10.497l0.434,2.3h10.279l1.081,6.039h-10.283l0.435,2.516
		h10.494l1.078,6.04h-17.538V44.508z"/>
	<path id="XMLID_7_" d="M-6.744,44.508l-4.458-7.263h-2.516l1.293,7.263h-6.973l-4.027-23.009h12.296
		c5.389,0,8.912,3.596,9.702,7.91c0.721,3.951-1.219,6.042-2.946,6.973l5.606,8.127H-6.744z M-8.61,29.334
		c-0.218-1.22-1.441-1.796-2.592-1.796h-4.243l0.65,3.593h4.239C-9.331,31.205-8.324,30.627-8.61,29.334z"/>
	<path id="XMLID_10_" d="M8.568,44.508l-3.016-16.97H-0.63l-1.082-6.04h19.34l1.081,6.04h-6.114l3.02,16.97H8.568z"/>
	<path id="XMLID_12_" d="M21.51,41.275l2.73-5.179c2.014,1.65,4.816,2.943,7.91,2.943c1.293,0,2.517-0.359,2.301-1.218
		c-0.361-2.231-12.796,0-14.449-9.061c-0.72-3.882,1.87-7.623,8.196-7.623c3.736,0,7.333,1.08,10.347,3.236l-2.871,4.959
		c-2.299-1.509-4.959-2.3-7.19-2.3c-1.367,0-1.653,0.43-1.583,1.007c0.36,2.158,12.863,0.287,14.378,8.842
		c0.867,5.105-2.373,7.976-8.556,7.976C27.907,44.932,24.314,43.493,21.51,41.275z"/>
	<path id="XMLID_14_" d="M66.434,44.508l-4.45-7.263h-2.512l1.292,7.263h-6.98l-4.027-23.009h12.302c5.394,0,8.914,3.596,9.696,7.91
		c0.72,3.951-1.22,6.042-2.937,6.973l5.597,8.127H66.434z M64.567,29.334c-0.208-1.22-1.438-1.796-2.584-1.796h-4.248l0.646,3.593
		h4.248C63.849,31.205,64.864,30.627,64.567,29.334z"/>
	<path id="XMLID_17_" d="M77.147,44.508l-4.025-23.009h6.981l4.026,23.009H77.147z"/>
	<path id="XMLID_19_" d="M87.86,44.508l-4.026-23.009h10.288c7.26,0,13.372,4.168,14.666,11.501
		c1.294,7.332-3.38,11.508-10.572,11.508H87.86z M101.669,33c-0.582-3.088-2.733-5.387-6.477-5.387h-3.379l1.938,10.855h3.306
		C100.586,38.468,102.177,35.877,101.669,33z"/>
	<path id="XMLID_22_" d="M113.239,44.508l-4.026-23.009h17.474l1.071,6.04h-10.492l0.436,2.3h10.277l1.071,6.039h-10.269
		l0.424,2.516h10.503l1.078,6.04h-17.547V44.508z"/>
	<path id="XMLID_24_" d="M146.522,44.508l-4.45-7.263h-2.52l1.3,7.263h-6.979l-4.029-23.009h12.302c5.388,0,8.905,3.596,9.698,7.91
		c0.721,3.951-1.221,6.042-2.944,6.973l5.604,8.127H146.522z M144.657,29.334c-0.222-1.22-1.439-1.796-2.585-1.796h-4.249
		l0.646,3.593h4.249C143.864,31.205,144.873,30.627,144.657,29.334z"/>
	<polygon id="XMLID_28_" points="-68.28,24.375 -83.305,24.375 -84.026,21.499 -68.28,21.499 	"/>
	<polygon id="XMLID_29_" points="-85.537,24.375 -89.775,24.375 -90.496,21.499 -86.257,21.499 	"/>
	<polygon id="XMLID_1_" points="-63.967,31.062 -76.837,31.062 -77.558,28.184 -63.967,28.184 	"/>
	<polygon id="XMLID_30_" points="-79.067,31.062 -82.591,31.062 -83.305,28.184 -79.783,28.184 	"/>
	<polygon id="XMLID_2_" points="-66.124,37.822 -82.591,37.822 -83.305,34.943 -66.124,34.943 	"/>
	<polygon id="XMLID_31_" points="-84.816,37.822 -88.338,37.822 -89.059,34.943 -85.537,34.943 	"/>
	<polygon id="XMLID_27_" points="-62.532,44.508 -76.837,44.508 -77.558,41.627 -62.532,41.627 	"/>
</g>
</svg>
