<?xml version="1.0" encoding="utf-8"?>
<!-- Generator: Adobe Illustrator 16.0.0, SVG Export Plug-In . SVG Version: 6.00 Build 0)  -->
<!DOCTYPE svg PUBLIC "-//W3C//DTD SVG 1.1//EN" "http://www.w3.org/Graphics/SVG/1.1/DTD/svg11.dtd">
<svg version="1.1" id="Layer_1" xmlns="http://www.w3.org/2000/svg" xmlns:xlink="http://www.w3.org/1999/xlink" x="0px" y="0px"
	 width="300px" height="46px" viewBox="-118 10 300 46" enable-background="new -118 10 300 46" xml:space="preserve">
<g id="XMLID_32_">
	<path id="XMLID_3_" d="M-67.54,46.856l-1.908-10.564h-9.953l1.909,10.564h-8.402l-4.842-27.705h8.396l1.729,9.778h9.952
		l-1.729-9.778h8.396l4.849,27.705H-67.54z"/>
	<path id="XMLID_5_" d="M-54.64,46.856l-4.849-27.705h21.033l1.296,7.272h-12.639l0.522,2.77h12.377l1.301,7.271h-12.381
		l0.523,3.029h12.636l1.297,7.272H-54.64V46.856z"/>
	<path id="XMLID_7_" d="M-14.652,46.856l-5.367-8.745h-3.029l1.558,8.745h-8.396l-4.85-27.705h14.806
		c6.489,0,10.731,4.33,11.682,9.524c0.868,4.757-1.468,7.275-3.547,8.396l6.75,9.785H-14.652z M-16.898,28.586
		c-0.262-1.469-1.735-2.163-3.121-2.163h-5.108l0.783,4.327h5.104C-17.766,30.838-16.554,30.143-16.898,28.586z"/>
	<path id="XMLID_10_" d="M3.785,46.856L0.153,26.423h-7.444l-1.302-7.272h23.287l1.301,7.272H8.634l3.636,20.433H3.785z"/>
	<path id="XMLID_12_" d="M19.368,42.964l3.287-6.235c2.425,1.987,5.799,3.544,9.524,3.544c1.557,0,3.03-0.433,2.77-1.466
		c-0.435-2.688-15.407,0-17.398-10.911c-0.867-4.674,2.251-9.178,9.869-9.178c4.499,0,8.83,1.301,12.459,3.897l-3.457,5.971
		c-2.769-1.817-5.971-2.769-8.658-2.769c-1.646,0-1.99,0.518-1.906,1.212c0.433,2.599,15.487,0.345,17.312,10.646
		c1.044,6.147-2.857,9.604-10.302,9.604C27.071,47.366,22.745,45.635,19.368,42.964z"/>
	<path id="XMLID_14_" d="M73.46,46.856l-5.358-8.745h-3.024l1.556,8.745h-8.405l-4.849-27.705h14.812
		c6.494,0,10.732,4.33,11.675,9.524c0.866,4.757-1.469,7.275-3.536,8.396l6.739,9.785H73.46z M71.213,28.586
		c-0.25-1.469-1.73-2.163-3.111-2.163h-5.115l0.777,4.327h5.115C70.348,30.838,71.57,30.143,71.213,28.586z"/>
	<path id="XMLID_17_" d="M86.36,46.856l-4.847-27.705h8.406l4.848,27.705H86.36z"/>
	<path id="XMLID_19_" d="M99.26,46.856l-4.849-27.705h12.388c8.742,0,16.102,5.019,17.659,13.849
		c1.559,8.828-4.069,13.856-12.729,13.856H99.26z M115.887,33c-0.701-3.718-3.292-6.487-7.799-6.487h-4.068l2.334,13.071h3.98
		C114.582,39.584,116.498,36.464,115.887,33z"/>
	<path id="XMLID_22_" d="M129.818,46.856l-4.849-27.705h21.04l1.29,7.272h-12.634l0.524,2.77h12.375l1.29,7.271h-12.364l0.51,3.029
		h12.646l1.298,7.272h-21.127V46.856z"/>
	<path id="XMLID_24_" d="M169.894,46.856l-5.358-8.745h-3.033l1.564,8.745h-8.403l-4.853-27.705h14.812
		c6.487,0,10.723,4.33,11.678,9.524c0.868,4.757-1.47,7.275-3.545,8.396l6.748,9.785H169.894z M167.647,28.586
		c-0.267-1.469-1.733-2.163-3.112-2.163h-5.116l0.778,4.327h5.116C166.693,30.838,167.907,30.143,167.647,28.586z"/>
	<polygon id="XMLID_28_" points="-88.746,22.615 -106.838,22.615 -107.706,19.151 -88.746,19.151 	"/>
	<polygon id="XMLID_29_" points="-109.525,22.615 -114.628,22.615 -115.496,19.151 -110.392,19.151 	"/>
	<polygon id="XMLID_1_" points="-83.553,30.666 -99.049,30.666 -99.917,27.201 -83.553,27.201 	"/>
	<polygon id="XMLID_30_" points="-101.734,30.666 -105.978,30.666 -106.838,27.201 -102.596,27.201 	"/>
	<polygon id="XMLID_2_" points="-86.149,38.807 -105.978,38.807 -106.838,35.34 -86.149,35.34 	"/>
	<polygon id="XMLID_31_" points="-108.657,38.807 -112.898,38.807 -113.765,35.34 -109.525,35.34 	"/>
	<polygon id="XMLID_27_" points="-81.825,46.856 -99.049,46.856 -99.917,43.388 -81.825,43.388 	"/>
</g>
</svg>
